JonovaCondensed-Bold.ufo
<glyph name="exclam" format="2">
  <advance width="552"/>
  <unicode hex="0021"/>
  <outline>
    <contour>
      <point x="298" y="375" type="line"/>
      <point x="223" y="1434" type="line"/>
      <point x="245" y="1464" type="line"/>
      <point x="464" y="1464" type="line"/>
      <point x="487" y="1434" type="line"/>
      <point x="412" y="375" type="line"/>
    </contour>
    <contour>
      <point x="464" y="116" type="qcurve"/>
      <point x="464" y="86"/>
      <point x="447" y="32"/>
      <point x="418" y="-7"/>
      <point x="377" y="-30"/>
      <point x="355" y="-30" type="qcurve"/>
      <point x="332" y="-30"/>
      <point x="292" y="-7"/>
      <point x="263" y="32"/>
      <point x="245" y="86"/>
      <point x="245" y="116" type="qcurve"/>
      <point x="245" y="146"/>
      <point x="263" y="200"/>
      <point x="292" y="239"/>
      <point x="332" y="262"/>
      <point x="355" y="262" type="qcurve"/>
      <point x="377" y="262"/>
      <point x="418" y="239"/>
      <point x="447" y="200"/>
      <point x="464" y="146"/>
    </contour>
  </outline>
</glyph>
<glyph name="quotedbl" format="2">
  <advance width="552"/>
  <unicode hex="0022"/>
  <outline>
    <contour>
      <point x="79" y="901" type="line"/>
      <point x="49" y="1434" type="line"/>
      <point x="71" y="1464" type="line"/>
      <point x="193" y="1464" type="line"/>
      <point x="215" y="1434" type="line"/>
      <point x="185" y="901" type="line"/>
    </contour>
    <contour>
      <point x="367" y="901" type="line"/>
      <point x="337" y="1434" type="line"/>
      <point x="359" y="1464" type="line"/>
      <point x="481" y="1464" type="line"/>
      <point x="503" y="1434" type="line"/>
      <point x="473" y="901" type="line"/>
    </contour>
  </outline>
</glyph>
<glyph name="parenleft" format="2">
  <advance width="552"/>
  <unicode hex="0028"/>
  <outline>
    <contour>
      <point x="478" y="1464" type="line"/>
      <point x="413" y="1390"/>
      <point x="324" y="1187"/>
      <point x="269" y="957"/>
      <point x="245" y="711"/>
      <point x="245" y="593" type="qcurve"/>
      <point x="245" y="460"/>
      <point x="269" y="211"/>
      <point x="324" y="-13"/>
      <point x="413" y="-204"/>
      <point x="478" y="-278" type="qcurve"/>
      <point x="463" y="-384" type="line"/>
      <point x="280" y="-226"/>
      <point x="86" y="258"/>
      <point x="86" y="593" type="qcurve"/>
      <point x="86" y="927"/>
      <point x="280" y="1412"/>
      <point x="463" y="1570" type="qcurve"/>
    </contour>
  </outline>
</glyph>
<glyph name="plus" format="2">
  <advance width="864"/>
  <unicode hex="002B"/>
  <outline>
    <contour>
      <point x="68" y="381" type="line" name="dv01"/>
      <point x="68" y="593" type="line" name="dv02"/>
      <point x="353" y="593" type="line" name="dh01"/>
      <point x="353" y="974" type="line" name="at01"/>
      <point x="512" y="974" type="line"/>
      <point x="512" y="593" type="line" name="dh02"/>
      <point x="797" y="593" type="line"/>
      <point x="797" y="381" type="line" name="sv01"/>
      <point x="512" y="381" type="line" name="sh01"/>
      <point x="512" y="0" type="line" name="ab01"/>
      <point x="353" y="0" type="line" name="sh02"/>
      <point x="353" y="381" type="line"/>
    </contour>
  </outline>
</glyph>
<glyph name="period" format="2">
  <advance width="432"/>
  <unicode hex="002E"/>
  <outline>
    <contour>
      <point x="338" y="131" type="qcurve" name="dh02"/>
      <point x="338" y="98"/>
      <point x="319" y="39"/>
      <point x="286" y="-5"/>
      <point x="242" y="-30"/>
      <point x="217" y="-30" type="qcurve" name="ab01"/>
      <point x="192" y="-30"/>
      <point x="148" y="-5"/>
      <point x="115" y="39"/>
      <point x="96" y="98"/>
      <point x="96" y="131" type="qcurve" name="dh01"/>
      <point x="96" y="164"/>
      <point x="115" y="223"/>
      <point x="148" y="267"/>
      <point x="192" y="292"/>
      <point x="217" y="292" type="qcurve" name="sv01"/>
      <point x="242" y="292"/>
      <point x="286" y="267"/>
      <point x="319" y="223"/>
      <point x="338" y="164"/>
    </contour>
  </outline>
</glyph>
<glyph name="seven" format="2">
  <advance width="840"/>
  <unicode hex="0037"/>
  <guideline x="0" y="1225" angle="3"/>
  <guideline x="303" y="0" angle="65"/>
  <guideline x="92" y="0" angle="90"/>
  <guideline x="-99" y="0" angle="80"/>
  <outline>
    <contour>
      <point x="779" y="1434" type="line" name="hr00"/>
      <point x="779" y="1375" type="line"/>
      <point x="356" y="-30" type="line" name="ab01"/>
      <point x="148" y="0" type="line"/>
      <point x="581" y="1272" type="line"/>
      <point x="71" y="1232" type="line"/>
      <point x="98" y="1434" type="line"/>
    </contour>
  </outline>
</glyph>
<glyph name="less" format="2">
  <advance width="864"/>
  <unicode hex="003C"/>
  <outline>
    <contour>
      <point x="687" y="1004" type="line"/>
      <point x="714" y="804" type="line"/>
      <point x="303" y="487" type="line"/>
      <point x="714" y="170" type="line"/>
      <point x="688" y="-30" type="line"/>
      <point x="84" y="436" type="line"/>
      <point x="84" y="538" type="line"/>
    </contour>
  </outline>
</glyph>
<glyph name="at" format="2">
  <advance width="1536"/>
  <unicode hex="0040"/>
  <outline>
    <contour>
      <point x="611" y="347" type="qcurve"/>
      <point x="611" y="297"/>
      <point x="626" y="214"/>
      <point x="653" y="155"/>
      <point x="691" y="122"/>
      <point x="715" y="122" type="qcurve"/>
      <point x="743" y="122"/>
      <point x="791" y="161"/>
      <point x="831" y="225"/>
      <point x="861" y="310"/>
      <point x="881" y="402"/>
      <point x="892" y="496"/>
      <point x="892" y="537" type="qcurve"/>
      <point x="892" y="582"/>
      <point x="881" y="663"/>
      <point x="855" y="724"/>
      <point x="813" y="760"/>
      <point x="782" y="760" type="qcurve"/>
      <point x="749" y="760"/>
      <point x="686" y="686"/>
      <point x="639" y="567"/>
      <point x="611" y="420"/>
    </contour>
    <contour>
      <point x="460" y="368" type="qcurve"/>
      <point x="460" y="430"/>
      <point x="481" y="555"/>
      <point x="519" y="669"/>
      <point x="575" y="768"/>
      <point x="643" y="840"/>
      <point x="723" y="882"/>
      <point x="767" y="882" type="qcurve"/>
      <point x="827" y="882"/>
      <point x="923" y="799"/>
      <point x="944" y="719" type="qcurve"/>
      <point x="962" y="852" type="line"/>
      <point x="1083" y="882" type="line"/>
      <point x="1106" y="882" type="line"/>
      <point x="1029" y="291" type="line"/>
      <point x="1025" y="261"/>
      <point x="1021" y="216"/>
      <point x="1021" y="202" type="qcurve"/>
      <point x="1021" y="187"/>
      <point x="1027" y="159"/>
      <point x="1041" y="136"/>
      <point x="1064" y="122"/>
      <point x="1082" y="122" type="qcurve"/>
      <point x="1125" y="122"/>
      <point x="1204" y="189"/>
      <point x="1265" y="303"/>
      <point x="1302" y="455"/>
      <point x="1302" y="540" type="qcurve"/>
      <point x="1302" y="663"/>
      <point x="1233" y="896"/>
      <point x="1100" y="1078"/>
      <point x="906" y="1188"/>
      <point x="781" y="1188" type="qcurve"/>
      <point x="708" y="1188"/>
      <point x="573" y="1135"/>
      <point x="455" y="1039"/>
      <point x="357" y="903"/>
      <point x="287" y="739"/>
      <point x="249" y="549"/>
      <point x="249" y="447" type="qcurve"/>
      <point x="249" y="345"/>
      <point x="290" y="157"/>
      <point x="362" y="-6"/>
      <point x="461" y="-141"/>
      <point x="579" y="-237"/>
      <point x="712" y="-290"/>
      <point x="781" y="-290" type="qcurve"/>
      <point x="883" y="-290"/>
      <point x="1069" y="-185"/>
      <point x="1144" y="-88" type="qcurve"/>
      <point x="1233" y="-207" type="line"/>
      <point x="1180" y="-273"/>
      <point x="1063" y="-363"/>
      <point x="944" y="-418"/>
      <point x="831" y="-442"/>
      <point x="781" y="-442" type="qcurve"/>
      <point x="688" y="-442"/>
      <point x="517" y="-379"/>
      <point x="368" y="-263"/>
      <point x="246" y="-101"/>
      <point x="160" y="97"/>
      <point x="113" y="324"/>
      <point x="113" y="447" type="qcurve"/>
      <point x="113" y="571"/>
      <point x="160" y="800"/>
      <point x="246" y="999"/>
      <point x="368" y="1161"/>
      <point x="517" y="1277"/>
      <point x="688" y="1340"/>
      <point x="781" y="1340" type="qcurve"/>
      <point x="885" y="1340"/>
      <point x="1061" y="1278"/>
      <point x="1204" y="1168"/>
      <point x="1313" y="1019"/>
      <point x="1386" y="844"/>
      <point x="1424" y="652"/>
      <point x="1424" y="554" type="qcurve"/>
      <point x="1424" y="490"/>
      <point x="1403" y="358"/>
      <point x="1363" y="235"/>
      <point x="1300" y="127"/>
      <point x="1214" y="46"/>
      <point x="1106" y="0"/>
      <point x="1039" y="0" type="qcurve"/>
      <point x="1004" y="0"/>
      <point x="951" y="24"/>
      <point x="911" y="60"/>
      <point x="885" y="103"/>
      <point x="878" y="122" type="qcurve"/>
      <point x="850" y="71"/>
      <point x="760" y="0"/>
      <point x="703" y="0" type="qcurve"/>
      <point x="642" y="0"/>
      <point x="551" y="56"/>
      <point x="490" y="155"/>
      <point x="460" y="290"/>
    </contour>
  </outline>
</glyph>
<glyph name="B" format="2">
  <advance width="936"/>
  <unicode hex="0042"/>
  <guideline x="344" y="0" angle="90"/>
  <guideline x="497" y="0" angle="90"/>
  <anchor x="300" y="0" name="AccentBelow"/>
  <anchor x="400" y="1600" name="AccentDefault"/>
  <anchor x="400" y="712" name="AccentMiddle"/>
  <outline>
    <contour>
      <point x="333" y="859" type="line" name="dv01"/>
      <point x="400" y="859" type="line"/>
      <point x="442" y="859"/>
      <point x="512" y="884"/>
      <point x="563" y="938" name="hr00"/>
      <point x="590" y="1024"/>
      <point x="590" y="1086" type="qcurve" name="dh03"/>
      <point x="590" y="1131"/>
      <point x="563" y="1210"/>
      <point x="514" y="1268"/>
      <point x="443" y="1302"/>
      <point x="400" y="1302" type="qcurve" name="sv01"/>
      <point x="333" y="1302" type="line" name="dh02"/>
    </contour>
    <contour>
      <point x="333" y="717" type="line" name="sh01"/>
      <point x="333" y="132" type="line" name="sv02"/>
      <point x="406" y="132" type="line"/>
      <point x="469" y="132"/>
      <point x="560" y="179"/>
      <point x="620" y="260"/>
      <point x="648" y="368"/>
      <point x="648" y="430" type="qcurve" name="sh02"/>
      <point x="648" y="506"/>
      <point x="615" y="615"/>
      <point x="559" y="685"/>
      <point x="484" y="717"/>
      <point x="442" y="717" type="qcurve"/>
    </contour>
    <contour>
      <point x="99" y="1434" type="line" name="dh01"/>
      <point x="398" y="1434" type="line"/>
      <point x="494" y="1434"/>
      <point x="651" y="1400"/>
      <point x="763" y="1320"/>
      <point x="824" y="1191"/>
      <point x="824" y="1095" type="qcurve" name="dh04"/>
      <point x="824" y="1039"/>
      <point x="794" y="949"/>
      <point x="749" y="880"/>
      <point x="692" y="831"/>
      <point x="666" y="816" type="qcurve" name="ih01"/>
      <point x="702" y="798"/>
      <point x="781" y="732"/>
      <point x="847" y="635"/>
      <point x="890" y="507"/>
      <point x="890" y="428" type="qcurve" name="sh03"/>
      <point x="890" y="329"/>
      <point x="826" y="171"/>
      <point x="703" y="60"/>
      <point x="524" y="0"/>
      <point x="408" y="0" type="qcurve" name="ab01"/>
      <point x="99" y="0" type="line"/>
    </contour>
  </outline>
</glyph>
<glyph name="D" format="2">
  <advance width="1128"/>
  <unicode hex="0044"/>
  <anchor x="400" y="0" name="AccentBelow"/>
  <anchor x="250" y="0" name="AccentCedilla"/>
  <anchor x="500" y="1600" name="AccentDefault"/>
  <anchor x="400" y="712" name="AccentMiddle"/>
  <outline>
    <contour>
      <point x="99" y="1434" type="line" name="sh01"/>
      <point x="455" y="1434" type="line"/>
      <point x="599" y="1434"/>
      <point x="826" y="1336"/>
      <point x="983" y="1151"/>
      <point x="1067" y="885"/>
      <point x="1067" y="717" type="qcurve" name="sh02"/>
      <point x="1067" y="619"/>
      <point x="1027" y="436"/>
      <point x="953" y="277"/>
      <point x="846" y="145"/>
      <point x="712" y="52"/>
      <point x="553" y="0"/>
      <point x="463" y="0" type="qcurve" name="ab01"/>
      <point x="99" y="0" type="line"/>
    </contour>
    <contour>
      <point x="333" y="1302" type="line" name="sh03"/>
      <point x="333" y="132" type="line" name="sv01"/>
      <point x="442" y="132" type="line"/>
      <point x="533" y="132"/>
      <point x="676" y="226"/>
      <point x="774" y="386"/>
      <point x="825" y="598"/>
      <point x="825" y="717" type="qcurve" name="ah01"/>
      <point x="825" y="859"/>
      <point x="771" y="1078"/>
      <point x="670" y="1226"/>
      <point x="527" y="1302"/>
      <point x="437" y="1302" type="qcurve"/>
    </contour>
  </outline>
</glyph>
<glyph name="F" format="2">
  <advance width="816"/>
  <unicode hex="0046"/>
  <outline>
    <contour>
      <point x="98" y="1434" type="line"/>
      <point x="782" y="1434" type="line"/>
      <point x="760" y="1272" type="line"/>
      <point x="332" y="1312" type="line"/>
      <point x="332" y="859" type="line"/>
      <point x="705" y="859" type="line"/>
      <point x="686" y="717" type="line"/>
      <point x="332" y="717" type="line"/>
      <point x="332" y="0" type="line"/>
      <point x="98" y="0" type="line"/>
    </contour>
  </outline>
</glyph>
<glyph name="I" format="2">
  <advance width="432"/>
  <unicode hex="0049"/>
  <guideline x="-50" y="0" angle="83"/>
  <anchor x="120" y="0" name="AccentBelow"/>
  <anchor x="220" y="1600" name="AccentDefault"/>
  <anchor x="120" y="712" name="AccentMiddle"/>
  <anchor x="-50" y="0" name="AccentOgonek"/>
  <outline>
    <contour>
      <point x="99" y="1434" type="line" name="dh01"/>
      <point x="333" y="1464" type="line" name="dh02"/>
      <point x="333" y="0" type="line" name="ab01"/>
      <point x="99" y="0" type="line"/>
    </contour>
  </outline>
</glyph>
<glyph name="N" format="2">
  <advance width="1128"/>
  <unicode hex="004E"/>
  <guideline x="1208" y="0" angle="132"/>
  <guideline x="912" y="0" angle="132"/>
  <anchor x="450" y="0" name="AccentBelow"/>
  <anchor x="550" y="1600" name="AccentDefault"/>
  <anchor x="450" y="712" name="AccentMiddle"/>
  <outline>
    <contour>
      <point x="98" y="1434" type="line" name="sh01"/>
      <point x="219" y="1464" type="line" name="sh02"/>
      <point x="912" y="436" type="line" name="sh03"/>
      <point x="912" y="1464" type="line" name="at01"/>
      <point x="1034" y="1434" type="line"/>
      <point x="1034" y="0" type="line" name="sh04"/>
      <point x="912" y="0" type="line" name="ah01"/>
      <point x="219" y="1026" type="line" name="sh05"/>
      <point x="219" y="0" type="line" name="ab01"/>
      <point x="98" y="0" type="line"/>
    </contour>
  </outline>
</glyph>
<glyph name="O" format="2">
  <advance width="1200"/>
  <unicode hex="004F"/>
  <anchor x="480" y="0" name="AccentBelow"/>
  <anchor x="600" y="1600" name="AccentDefault"/>
  <anchor x="480" y="712" name="AccentMiddle"/>
  <outline>
    <contour>
      <point x="286" y="717" type="qcurve"/>
      <point x="286" y="571"/>
      <point x="335" y="346"/>
      <point x="419" y="192"/>
      <point x="534" y="112"/>
      <point x="600" y="112" type="qcurve"/>
      <point x="666" y="112"/>
      <point x="781" y="192"/>
      <point x="866" y="346"/>
      <point x="914" y="571"/>
      <point x="914" y="717" type="qcurve"/>
      <point x="914" y="862"/>
      <point x="866" y="1088"/>
      <point x="781" y="1242"/>
      <point x="666" y="1322"/>
      <point x="600" y="1322" type="qcurve"/>
      <point x="534" y="1322"/>
      <point x="419" y="1242"/>
      <point x="335" y="1088"/>
      <point x="286" y="863"/>
    </contour>
    <contour>
      <point x="44" y="717" type="qcurve"/>
      <point x="44" y="832"/>
      <point x="89" y="1032"/>
      <point x="166" y="1198"/>
      <point x="272" y="1328"/>
      <point x="395" y="1417"/>
      <point x="531" y="1464"/>
      <point x="600" y="1464" type="qcurve"/>
      <point x="669" y="1464"/>
      <point x="805" y="1417"/>
      <point x="929" y="1328"/>
      <point x="1034" y="1198"/>
      <point x="1112" y="1032"/>
      <point x="1156" y="832"/>
      <point x="1156" y="717" type="qcurve"/>
      <point x="1156" y="602"/>
      <point x="1112" y="402"/>
      <point x="1034" y="236"/>
      <point x="929" y="106"/>
      <point x="805" y="17"/>
      <point x="669" y="-30"/>
      <point x="600" y="-30" type="qcurve"/>
      <point x="530" y="-30"/>
      <point x="395" y="17"/>
      <point x="271" y="106"/>
      <point x="165" y="236"/>
      <point x="88" y="402"/>
      <point x="44" y="602"/>
    </contour>
  </outline>
</glyph>
<glyph name="Q" format="2">
  <advance width="1200"/>
  <unicode hex="0051"/>
  <anchor x="480" y="0" name="AccentBelow"/>
  <anchor x="600" y="1600" name="AccentDefault"/>
  <anchor x="480" y="712" name="AccentMiddle"/>
  <outline>
    <contour>
      <point x="44" y="717" type="qcurve"/>
      <point x="44" y="832"/>
      <point x="89" y="1032"/>
      <point x="166" y="1198"/>
      <point x="272" y="1328"/>
      <point x="395" y="1417"/>
      <point x="531" y="1464"/>
      <point x="600" y="1464" type="qcurve"/>
      <point x="669" y="1464"/>
      <point x="805" y="1417"/>
      <point x="929" y="1328"/>
      <point x="1034" y="1198"/>
      <point x="1112" y="1032"/>
      <point x="1156" y="832"/>
      <point x="1156" y="717" type="qcurve"/>
      <point x="1156" y="602"/>
      <point x="1111" y="394"/>
      <point x="1025" y="217"/>
      <point x="896" y="76"/>
      <point x="813" y="28" type="qcurve"/>
      <point x="884" y="16"/>
      <point x="996" y="-50"/>
      <point x="1081" y="-135"/>
      <point x="1139" y="-230"/>
      <point x="1156" y="-271" type="qcurve"/>
      <point x="1015" y="-459" type="line"/>
      <point x="989" y="-385"/>
      <point x="944" y="-263"/>
      <point x="895" y="-168"/>
      <point x="837" y="-98"/>
      <point x="762" y="-52"/>
      <point x="665" y="-30"/>
      <point x="600" y="-30" type="qcurve"/>
      <point x="530" y="-30"/>
      <point x="395" y="17"/>
      <point x="271" y="106"/>
      <point x="165" y="236"/>
      <point x="88" y="402"/>
      <point x="44" y="602"/>
    </contour>
    <contour>
      <point x="286" y="717" type="qcurve"/>
      <point x="286" y="571"/>
      <point x="335" y="346"/>
      <point x="419" y="192"/>
      <point x="534" y="112"/>
      <point x="600" y="112" type="qcurve"/>
      <point x="666" y="112"/>
      <point x="781" y="192"/>
      <point x="866" y="346"/>
      <point x="914" y="571"/>
      <point x="914" y="717" type="qcurve"/>
      <point x="914" y="862"/>
      <point x="866" y="1088"/>
      <point x="781" y="1242"/>
      <point x="666" y="1322"/>
      <point x="600" y="1322" type="qcurve"/>
      <point x="534" y="1322"/>
      <point x="419" y="1242"/>
      <point x="335" y="1088"/>
      <point x="286" y="863"/>
    </contour>
  </outline>
</glyph>
<glyph name="S" format="2">
  <advance width="864"/>
  <unicode hex="0053"/>
  <anchor x="320" y="0" name="AccentBelow"/>
  <anchor x="300" y="0" name="AccentCedilla"/>
  <anchor x="400" y="1600" name="AccentDefault"/>
  <anchor x="350" y="712" name="AccentMiddle"/>
  <outline>
    <contour>
      <point x="768" y="1235" type="qcurve"/>
      <point x="677" y="1113" type="line"/>
      <point x="661" y="1153"/>
      <point x="617" y="1229"/>
      <point x="563" y="1287"/>
      <point x="499" y="1322"/>
      <point x="462" y="1322" type="qcurve"/>
      <point x="437" y="1322"/>
      <point x="386" y="1296"/>
      <point x="345" y="1247"/>
      <point x="320" y="1177"/>
      <point x="320" y="1134" type="qcurve"/>
      <point x="320" y="1084"/>
      <point x="339" y="1004"/>
      <point x="386" y="938"/>
      <point x="464" y="880"/>
      <point x="523" y="852" type="qcurve"/>
      <point x="655" y="788"/>
      <point x="791" y="569"/>
      <point x="791" y="409" type="qcurve"/>
      <point x="791" y="320"/>
      <point x="737" y="160"/>
      <point x="638" y="40"/>
      <point x="497" y="-30"/>
      <point x="410" y="-30" type="qcurve"/>
      <point x="352" y="-30"/>
      <point x="248" y="11"/>
      <point x="161" y="77"/>
      <point x="91" y="159"/>
      <point x="66" y="199" type="qcurve"/>
      <point x="158" y="321" type="line"/>
      <point x="179" y="278"/>
      <point x="233" y="202"/>
      <point x="296" y="145"/>
      <point x="370" y="112"/>
      <point x="410" y="112" type="qcurve"/>
      <point x="452" y="112"/>
      <point x="518" y="147"/>
      <point x="563" y="208"/>
      <point x="587" y="290"/>
      <point x="587" y="336" type="qcurve"/>
      <point x="587" y="384"/>
      <point x="561" y="468"/>
      <point x="506" y="542"/>
      <point x="420" y="608"/>
      <point x="359" y="637" type="qcurve"/>
      <point x="308" y="662"/>
      <point x="221" y="738"/>
      <point x="158" y="841"/>
      <point x="123" y="971"/>
      <point x="123" y="1051" type="qcurve"/>
      <point x="123" y="1138"/>
      <point x="174" y="1289"/>
      <point x="266" y="1400"/>
      <point x="389" y="1464"/>
      <point x="463" y="1464" type="qcurve"/>
      <point x="519" y="1464"/>
      <point x="612" y="1425"/>
      <point x="687" y="1361"/>
      <point x="746" y="1278"/>
    </contour>
  </outline>
</glyph>
<glyph name="T" format="2">
  <advance width="864"/>
  <unicode hex="0054"/>
  <guideline x="0" y="1100" angle="0"/>
  <guideline x="673" y="0" angle="80"/>
  <guideline x="-167" y="0" angle="80"/>
  <guideline x="432" y="0" angle="90"/>
  <guideline x="43" y="0" angle="90"/>
  <guideline x="59" y="0" angle="90"/>
  <anchor x="320" y="0" name="AccentBelow"/>
  <anchor x="280" y="0" name="AccentCedilla"/>
  <anchor x="400" y="1600" name="AccentDefault"/>
  <anchor x="320" y="712" name="AccentMiddle"/>
  <outline>
    <contour>
      <point x="23" y="1434" type="line" name="at01"/>
      <point x="863" y="1434" type="line"/>
      <point x="841" y="1272" type="line"/>
      <point x="549" y="1312" type="line"/>
      <point x="549" y="0" type="line" name="dh02"/>
      <point x="315" y="0" type="line" name="dh01"/>
      <point x="315" y="1313" type="line"/>
      <point x="2" y="1272" type="line" name="iv01"/>
    </contour>
  </outline>
</glyph>
<glyph name="U" format="2">
  <advance width="1128"/>
  <unicode hex="0055"/>
  <anchor x="480" y="0" name="AccentBelow"/>
  <anchor x="550" y="1600" name="AccentDefault"/>
  <anchor x="500" y="712" name="AccentMiddle"/>
  <anchor x="350" y="0" name="AccentOgonek"/>
  <outline>
    <contour>
      <point x="336" y="1464" type="line"/>
      <point x="336" y="500" type="line"/>
      <point x="336" y="404"/>
      <point x="387" y="259"/>
      <point x="470" y="162"/>
      <point x="573" y="112"/>
      <point x="626" y="112" type="qcurve"/>
      <point x="692" y="112"/>
      <point x="796" y="171"/>
      <point x="867" y="280"/>
      <point x="905" y="435"/>
      <point x="905" y="530" type="qcurve"/>
      <point x="905" y="1464" type="line"/>
      <point x="1026" y="1434" type="line"/>
      <point x="1026" y="568" type="line"/>
      <point x="1026" y="437"/>
      <point x="970" y="218"/>
      <point x="862" y="59"/>
      <point x="704" y="-30"/>
      <point x="602" y="-30" type="qcurve"/>
      <point x="491" y="-30"/>
      <point x="308" y="47"/>
      <point x="176" y="200"/>
      <point x="102" y="428"/>
      <point x="102" y="578" type="qcurve"/>
      <point x="102" y="1434" type="line"/>
    </contour>
  </outline>
</glyph>
<glyph name="V" format="2">
  <advance width="936"/>
  <unicode hex="0056"/>
  <anchor x="350" y="0" name="AccentBelow"/>
  <anchor x="500" y="1600" name="AccentDefault"/>
  <anchor x="350" y="712" name="AccentMiddle"/>
  <outline>
    <contour>
      <point x="254" y="1464" type="line"/>
      <point x="529" y="456" type="line"/>
      <point x="803" y="1464" type="line"/>
      <point x="924" y="1434" type="line"/>
      <point x="533" y="0" type="line"/>
      <point x="404" y="0" type="line"/>
      <point x="12" y="1434" type="line"/>
    </contour>
  </outline>
</glyph>
<glyph name="W" format="2">
  <advance width="1416"/>
  <unicode hex="0057"/>
  <outline>
    <contour>
      <point x="1058" y="528" type="line"/>
      <point x="1259" y="1464" type="line"/>
      <point x="1377" y="1434" type="line"/>
      <point x="1067" y="0" type="line"/>
      <point x="939" y="0" type="line"/>
      <point x="709" y="943" type="line"/>
      <point x="478" y="0" type="line"/>
      <point x="349" y="0" type="line"/>
      <point x="39" y="1434" type="line"/>
      <point x="283" y="1464" type="line"/>
      <point x="485" y="528" type="line"/>
      <point x="706" y="1434" type="line"/>
      <point x="837" y="1434" type="line"/>
    </contour>
  </outline>
</glyph>
<glyph name="bracketleft" format="2">
  <advance width="552"/>
  <unicode hex="005B"/>
  <outline>
    <contour>
      <point x="176" y="1464" type="line"/>
      <point x="506" y="1464" type="line"/>
      <point x="489" y="1342" type="line"/>
      <point x="365" y="1342" type="line"/>
      <point x="365" y="-156" type="line"/>
      <point x="489" y="-156" type="line"/>
      <point x="506" y="-278" type="line"/>
      <point x="176" y="-278" type="line"/>
    </contour>
  </outline>
</glyph>
<glyph name="asciicircum" format="2">
  <advance width="936"/>
  <unicode hex="005E"/>
  <outline>
    <contour>
      <point x="407" y="1434" type="line"/>
      <point x="529" y="1434" type="line"/>
      <point x="869" y="648" type="line"/>
      <point x="745" y="553" type="line"/>
      <point x="468" y="1181" type="line"/>
      <point x="191" y="553" type="line"/>
      <point x="68" y="648" type="line"/>
    </contour>
  </outline>
</glyph>
<glyph name="a" format="2">
  <advance width="840"/>
  <unicode hex="0061"/>
  <anchor x="300" y="0" name="AccentBelow"/>
  <anchor x="400" y="1100" name="AccentDefault"/>
  <anchor x="350" y="486" name="AccentMiddle"/>
  <anchor x="400" y="0" name="AccentOgonek"/>
  <outline>
    <contour>
      <point x="548" y="497" type="line"/>
      <point x="489" y="492"/>
      <point x="391" y="454"/>
      <point x="320" y="390"/>
      <point x="281" y="303"/>
      <point x="281" y="250" type="qcurve"/>
      <point x="281" y="200"/>
      <point x="303" y="135"/>
      <point x="337" y="97"/>
      <point x="377" y="82"/>
      <point x="395" y="82" type="qcurve"/>
      <point x="416" y="82"/>
      <point x="461" y="102"/>
      <point x="503" y="135"/>
      <point x="536" y="177"/>
      <point x="548" y="199" type="qcurve"/>
    </contour>
    <contour>
      <point x="96" y="852" type="line"/>
      <point x="130" y="888"/>
      <point x="206" y="944"/>
      <point x="288" y="983"/>
      <point x="374" y="1004"/>
      <point x="417" y="1004" type="qcurve"/>
      <point x="480" y="1004"/>
      <point x="602" y="952"/>
      <point x="699" y="851"/>
      <point x="759" y="704"/>
      <point x="759" y="609" type="qcurve"/>
      <point x="759" y="150" type="line"/>
      <point x="759" y="116"/>
      <point x="785" y="82"/>
      <point x="813" y="82" type="qcurve"/>
      <point x="798" y="-30" type="line"/>
      <point x="742" y="-30"/>
      <point x="665" y="-13"/>
      <point x="614" y="17"/>
      <point x="582" y="58"/>
      <point x="571" y="82" type="qcurve"/>
      <point x="551" y="60"/>
      <point x="504" y="20"/>
      <point x="446" y="-11"/>
      <point x="376" y="-30"/>
      <point x="335" y="-30" type="qcurve"/>
      <point x="281" y="-30"/>
      <point x="182" y="6"/>
      <point x="106" y="75"/>
      <point x="62" y="175"/>
      <point x="62" y="239" type="qcurve"/>
      <point x="62" y="323"/>
      <point x="131" y="455"/>
      <point x="259" y="546"/>
      <point x="438" y="596"/>
      <point x="548" y="599" type="qcurve"/>
      <point x="548" y="668" type="line"/>
      <point x="548" y="717"/>
      <point x="530" y="799"/>
      <point x="493" y="859"/>
      <point x="438" y="892"/>
      <point x="402" y="892" type="qcurve"/>
      <point x="382" y="892"/>
      <point x="326" y="875"/>
      <point x="267" y="838"/>
      <point x="206" y="780"/>
      <point x="180" y="740" type="qcurve"/>
    </contour>
  </outline>
</glyph>
<glyph name="b" format="2">
  <advance width="840"/>
  <unicode hex="0062"/>
  <outline>
    <contour>
      <point x="75" y="1464" type="line"/>
      <point x="242" y="1494" type="line"/>
      <point x="287" y="1494" type="line"/>
      <point x="287" y="962" type="line"/>
      <point x="319" y="982"/>
      <point x="397" y="1004"/>
      <point x="444" y="1004" type="qcurve"/>
      <point x="521" y="1004"/>
      <point x="651" y="929"/>
      <point x="746" y="793"/>
      <point x="798" y="602"/>
      <point x="798" y="487" type="qcurve"/>
      <point x="798" y="355"/>
      <point x="739" y="160"/>
      <point x="636" y="32"/>
      <point x="498" y="-30"/>
      <point x="419" y="-30" type="qcurve"/>
      <point x="382" y="-30"/>
      <point x="305" y="-16"/>
      <point x="220" y="18"/>
      <point x="127" y="77"/>
      <point x="75" y="122" type="qcurve"/>
    </contour>
    <contour>
      <point x="287" y="852" type="qcurve"/>
      <point x="287" y="122" type="line"/>
      <point x="306" y="99"/>
      <point x="369" y="82"/>
      <point x="404" y="82" type="qcurve"/>
      <point x="440" y="82"/>
      <point x="503" y="131"/>
      <point x="551" y="231"/>
      <point x="579" y="383"/>
      <point x="579" y="487" type="qcurve"/>
      <point x="579" y="574"/>
      <point x="556" y="723"/>
      <point x="512" y="831"/>
      <point x="448" y="892"/>
      <point x="407" y="892" type="qcurve"/>
      <point x="362" y="892"/>
      <point x="308" y="870"/>
    </contour>
  </outline>
</glyph>
<glyph name="c" format="2">
  <advance width="768"/>
  <unicode hex="0063"/>
  <anchor x="300" y="0" name="AccentBelow"/>
  <anchor x="300" y="0" name="AccentCedilla"/>
  <anchor x="400" y="1100" name="AccentDefault"/>
  <anchor x="300" y="486" name="AccentMiddle"/>
  <outline>
    <contour>
      <point x="621" y="740" type="line"/>
      <point x="608" y="767"/>
      <point x="577" y="821"/>
      <point x="536" y="865"/>
      <point x="483" y="892"/>
      <point x="450" y="892" type="qcurve"/>
      <point x="413" y="892"/>
      <point x="347" y="836"/>
      <point x="297" y="731"/>
      <point x="269" y="581"/>
      <point x="269" y="487" type="qcurve"/>
      <point x="269" y="393"/>
      <point x="297" y="243"/>
      <point x="347" y="138"/>
      <point x="413" y="82"/>
      <point x="450" y="82" type="qcurve"/>
      <point x="486" y="82"/>
      <point x="539" y="109"/>
      <point x="578" y="152"/>
      <point x="608" y="206"/>
      <point x="621" y="234" type="qcurve"/>
      <point x="706" y="122" type="line"/>
      <point x="684" y="90"/>
      <point x="633" y="34"/>
      <point x="566" y="-7"/>
      <point x="482" y="-30"/>
      <point x="428" y="-30" type="qcurve"/>
      <point x="341" y="-30"/>
      <point x="202" y="47"/>
      <point x="103" y="185"/>
      <point x="50" y="374"/>
      <point x="50" y="487" type="qcurve"/>
      <point x="50" y="599"/>
      <point x="103" y="789"/>
      <point x="202" y="927"/>
      <point x="341" y="1004"/>
      <point x="428" y="1004" type="qcurve"/>
      <point x="482" y="1004"/>
      <point x="566" y="980"/>
      <point x="633" y="939"/>
      <point x="685" y="883"/>
      <point x="706" y="852" type="qcurve"/>
    </contour>
  </outline>
</glyph>
<glyph name="f" format="2">
  <advance width="552"/>
  <unicode hex="0066"/>
  <guideline x="0" y="863" angle="357"/>
  <guideline x="0" y="1382" angle="0"/>
  <guideline x="-104" y="0" angle="80"/>
  <guideline x="353" y="0" angle="80"/>
  <anchor x="120" y="0" name="AccentBelow"/>
  <anchor x="250" y="1600" name="AccentDefault"/>
  <anchor x="200" y="486" name="AccentMiddle"/>
  <outline>
    <contour>
      <point x="54" y="1004" type="line" name="hr00"/>
      <point x="141" y="1004" type="line" name="dh01"/>
      <point x="141" y="1153"/>
      <point x="205" y="1344"/>
      <point x="315" y="1453"/>
      <point x="465" y="1494"/>
      <point x="551" y="1494" type="qcurve" name="dv02"/>
      <point x="536" y="1382" type="line" name="dv01"/>
      <point x="494" y="1382"/>
      <point x="427" y="1356"/>
      <point x="379" y="1293"/>
      <point x="353" y="1189"/>
      <point x="353" y="1111" type="qcurve"/>
      <point x="353" y="1004" type="line" name="dh02"/>
      <point x="485" y="1004" type="line"/>
      <point x="467" y="865" type="line"/>
      <point x="353" y="873" type="line" name="sh01"/>
      <point x="353" y="0" type="line" name="ab01"/>
      <point x="141" y="0" type="line" name="sh02"/>
      <point x="141" y="886" type="line"/>
      <point x="39" y="892" type="line"/>
    </contour>
  </outline>
</glyph>
<glyph name="g" format="2">
  <advance width="840"/>
  <unicode hex="0067"/>
  <anchor x="300" y="-420" name="AccentBelow"/>
  <anchor x="400" y="1100" name="AccentDefault"/>
  <anchor x="350" y="486" name="AccentMiddle"/>
  <outline>
    <contour>
      <point x="393" y="974" type="qcurve"/>
      <point x="416" y="974"/>
      <point x="464" y="958"/>
      <point x="509" y="936"/>
      <point x="545" y="911"/>
      <point x="554" y="901" type="qcurve"/>
      <point x="554" y="974" type="line"/>
      <point x="720" y="1004" type="line"/>
      <point x="765" y="1004" type="line"/>
      <point x="765" y="49" type="line"/>
      <point x="765" y="-80"/>
      <point x="705" y="-281"/>
      <point x="601" y="-418"/>
      <point x="458" y="-490"/>
      <point x="376" y="-490" type="qcurve"/>
      <point x="296" y="-490"/>
      <point x="148" y="-414"/>
      <point x="84" y="-338" type="qcurve"/>
      <point x="169" y="-226" type="line"/>
      <point x="188" y="-258"/>
      <point x="237" y="-308"/>
      <point x="290" y="-341"/>
      <point x="344" y="-358"/>
      <point x="368" y="-358" type="qcurve"/>
      <point x="404" y="-358"/>
      <point x="470" y="-329"/>
      <point x="522" y="-257"/>
      <point x="554" y="-134"/>
      <point x="554" y="-40" type="qcurve"/>
      <point x="554" y="80" type="line"/>
      <point x="522" y="42"/>
      <point x="437" y="0"/>
      <point x="392" y="0" type="qcurve"/>
      <point x="320" y="0"/>
      <point x="192" y="61"/>
      <point x="97" y="183"/>
      <point x="42" y="366"/>
      <point x="42" y="487" type="qcurve"/>
      <point x="42" y="602"/>
      <point x="95" y="783"/>
      <point x="190" y="908"/>
      <point x="318" y="974"/>
    </contour>
    <contour>
      <point x="554" y="791" type="line"/>
      <point x="534" y="822"/>
      <point x="474" y="862"/>
      <point x="429" y="862" type="qcurve"/>
      <point x="392" y="862"/>
      <point x="330" y="813"/>
      <point x="286" y="719"/>
      <point x="261" y="578"/>
      <point x="261" y="487" type="qcurve"/>
      <point x="261" y="386"/>
      <point x="290" y="244"/>
      <point x="338" y="154"/>
      <point x="398" y="112"/>
      <point x="429" y="112" type="qcurve"/>
      <point x="475" y="112"/>
      <point x="534" y="153"/>
      <point x="554" y="182" type="qcurve"/>
    </contour>
  </outline>
</glyph>
<glyph name="h" format="2">
  <advance width="840"/>
  <unicode hex="0068"/>
  <outline>
    <contour>
      <point x="75" y="1464" type="line"/>
      <point x="242" y="1494" type="line"/>
      <point x="287" y="1494" type="line"/>
      <point x="287" y="925" type="line"/>
      <point x="326" y="963"/>
      <point x="428" y="1004"/>
      <point x="487" y="1004" type="qcurve"/>
      <point x="548" y="1004"/>
      <point x="648" y="960"/>
      <point x="720" y="877"/>
      <point x="759" y="757"/>
      <point x="759" y="680" type="qcurve"/>
      <point x="759" y="172" type="line"/>
      <point x="759" y="124"/>
      <point x="780" y="82"/>
      <point x="813" y="82" type="qcurve"/>
      <point x="798" y="-30" type="line"/>
      <point x="727" y="-30"/>
      <point x="631" y="12"/>
      <point x="572" y="86"/>
      <point x="548" y="187"/>
      <point x="548" y="247" type="qcurve"/>
      <point x="548" y="724" type="line"/>
      <point x="548" y="763"/>
      <point x="527" y="825"/>
      <point x="493" y="868"/>
      <point x="452" y="892"/>
      <point x="433" y="892" type="qcurve"/>
      <point x="408" y="892"/>
      <point x="365" y="875"/>
      <point x="327" y="846"/>
      <point x="297" y="811"/>
      <point x="287" y="793" type="qcurve"/>
      <point x="287" y="0" type="line"/>
      <point x="75" y="0" type="line"/>
    </contour>
  </outline>
</glyph>
<glyph name="i" format="2">
  <advance width="432"/>
  <unicode hex="0069"/>
  <outline>
    <contour>
      <point x="110" y="974" type="line"/>
      <point x="277" y="1004" type="line"/>
      <point x="322" y="1004" type="line"/>
      <point x="322" y="0" type="line"/>
      <point x="110" y="0" type="line"/>
    </contour>
    <contour>
      <point x="107" y="1288" type="qcurve"/>
      <point x="107" y="1318"/>
      <point x="124" y="1372"/>
      <point x="153" y="1411"/>
      <point x="194" y="1434"/>
      <point x="216" y="1434" type="qcurve"/>
      <point x="239" y="1434"/>
      <point x="279" y="1411"/>
      <point x="308" y="1372"/>
      <point x="326" y="1318"/>
      <point x="326" y="1288" type="qcurve"/>
      <point x="326" y="1258"/>
      <point x="308" y="1204"/>
      <point x="279" y="1165"/>
      <point x="239" y="1142"/>
      <point x="216" y="1142" type="qcurve"/>
      <point x="194" y="1142"/>
      <point x="153" y="1165"/>
      <point x="124" y="1204"/>
      <point x="107" y="1258"/>
    </contour>
  </outline>
</glyph>
<glyph name="k" format="2">
  <advance width="768"/>
  <unicode hex="006B"/>
  <guideline x="0" y="13" angle="45"/>
  <guideline x="0" y="202" angle="45"/>
  <guideline x="0" y="617" angle="0"/>
  <guideline x="768" y="0" angle="120"/>
  <guideline x="536" y="0" angle="120"/>
  <guideline x="1268" y="0" angle="90"/>
  <anchor x="300" y="0" name="AccentBelow"/>
  <anchor x="400" y="1600" name="AccentDefault"/>
  <anchor x="200" y="1200" name="AccentMiddle"/>
  <outline>
    <contour>
      <point x="768" y="0" type="line" name="ab02"/>
      <point x="551" y="-30" type="line" name="ab01"/>
      <point x="337" y="463" type="line" name="iv01"/>
      <point x="287" y="396" type="line"/>
      <point x="287" y="0" type="line" name="dh02"/>
      <point x="75" y="0" type="line" name="dh01"/>
      <point x="75" y="1464" type="line"/>
      <point x="242" y="1494" type="line" name="av01"/>
      <point x="287" y="1494" type="line" name="sh01"/>
      <point x="287" y="582" type="line" name="iv02"/>
      <point x="602" y="1004" type="line"/>
      <point x="721" y="973" type="line" name="iv03"/>
      <point x="484" y="658" type="line"/>
    </contour>
  </outline>
</glyph>
<glyph name="l" format="2">
  <advance width="432"/>
  <unicode hex="006C"/>
  <outline>
    <contour>
      <point x="313" y="1494" type="line"/>
      <point x="313" y="269" type="line"/>
      <point x="313" y="221"/>
      <point x="326" y="151"/>
      <point x="358" y="104"/>
      <point x="409" y="82"/>
      <point x="447" y="82" type="qcurve"/>
      <point x="432" y="-30" type="line"/>
      <point x="326" y="-30"/>
      <point x="196" y="13"/>
      <point x="125" y="103"/>
      <point x="101" y="244"/>
      <point x="101" y="342" type="qcurve"/>
      <point x="101" y="1464" type="line"/>
      <point x="268" y="1494" type="line"/>
    </contour>
  </outline>
</glyph>
<glyph name="m" format="2">
  <advance width="1248"/>
  <unicode hex="006D"/>
  <outline>
    <contour>
      <point x="75" y="944" type="line"/>
      <point x="242" y="974" type="line"/>
      <point x="287" y="974" type="line"/>
      <point x="287" y="893" type="line"/>
      <point x="304" y="915"/>
      <point x="347" y="956"/>
      <point x="396" y="986"/>
      <point x="449" y="1004"/>
      <point x="477" y="1004" type="qcurve"/>
      <point x="552" y="1004"/>
      <point x="662" y="924"/>
      <point x="692" y="852" type="qcurve"/>
      <point x="713" y="882"/>
      <point x="761" y="937"/>
      <point x="815" y="979"/>
      <point x="878" y="1004"/>
      <point x="914" y="1004" type="qcurve"/>
      <point x="962" y="1004"/>
      <point x="1051" y="967"/>
      <point x="1119" y="891"/>
      <point x="1161" y="777"/>
      <point x="1161" y="699" type="qcurve"/>
      <point x="1161" y="173" type="line"/>
      <point x="1161" y="125"/>
      <point x="1182" y="82"/>
      <point x="1215" y="82" type="qcurve"/>
      <point x="1200" y="-30" type="line"/>
      <point x="1071" y="-30"/>
      <point x="950" y="110"/>
      <point x="950" y="247" type="qcurve"/>
      <point x="950" y="740" type="line"/>
      <point x="950" y="782"/>
      <point x="934" y="840"/>
      <point x="908" y="876"/>
      <point x="877" y="892"/>
      <point x="862" y="892" type="qcurve"/>
      <point x="842" y="892"/>
      <point x="804" y="871"/>
      <point x="769" y="836"/>
      <point x="737" y="792"/>
      <point x="724" y="769" type="qcurve"/>
      <point x="724" y="0" type="line"/>
      <point x="512" y="0" type="line"/>
      <point x="512" y="741" type="line"/>
      <point x="512" y="783"/>
      <point x="496" y="840"/>
      <point x="471" y="876"/>
      <point x="440" y="892"/>
      <point x="425" y="892" type="qcurve"/>
      <point x="407" y="892"/>
      <point x="368" y="872"/>
      <point x="332" y="838"/>
      <point x="299" y="794"/>
      <point x="287" y="770" type="qcurve"/>
      <point x="287" y="0" type="line"/>
      <point x="75" y="0" type="line"/>
    </contour>
  </outline>
</glyph>
<glyph name="n" format="2">
  <advance width="840"/>
  <unicode hex="006E"/>
  <anchor x="320" y="0" name="AccentBelow"/>
  <anchor x="400" y="1100" name="AccentDefault"/>
  <anchor x="320" y="486" name="AccentMiddle"/>
  <outline>
    <contour>
      <point x="75" y="944" type="line"/>
      <point x="242" y="974" type="line"/>
      <point x="287" y="974" type="line"/>
      <point x="287" y="892" type="line"/>
      <point x="306" y="914"/>
      <point x="354" y="955"/>
      <point x="408" y="986"/>
      <point x="465" y="1004"/>
      <point x="494" y="1004" type="qcurve"/>
      <point x="555" y="1004"/>
      <point x="653" y="960"/>
      <point x="722" y="877"/>
      <point x="759" y="757"/>
      <point x="759" y="680" type="qcurve"/>
      <point x="759" y="172" type="line"/>
      <point x="759" y="124"/>
      <point x="780" y="82"/>
      <point x="813" y="82" type="qcurve"/>
      <point x="798" y="-30" type="line"/>
      <point x="727" y="-30"/>
      <point x="631" y="12"/>
      <point x="572" y="86"/>
      <point x="548" y="187"/>
      <point x="548" y="247" type="qcurve"/>
      <point x="548" y="724" type="line"/>
      <point x="548" y="802"/>
      <point x="498" y="892"/>
      <point x="448" y="892" type="qcurve"/>
      <point x="423" y="892"/>
      <point x="374" y="868"/>
      <point x="331" y="832"/>
      <point x="296" y="789"/>
      <point x="287" y="770" type="qcurve"/>
      <point x="287" y="0" type="line"/>
      <point x="75" y="0" type="line"/>
    </contour>
  </outline>
</glyph>
<glyph name="r" format="2">
  <advance width="552"/>
  <unicode hex="0072"/>
  <outline>
    <contour>
      <point x="287" y="974" type="line"/>
      <point x="287" y="826" type="line"/>
      <point x="298" y="859"/>
      <point x="330" y="923"/>
      <point x="370" y="973"/>
      <point x="418" y="1004"/>
      <point x="445" y="1004" type="qcurve"/>
      <point x="464" y="1004"/>
      <point x="495" y="993"/>
      <point x="521" y="975"/>
      <point x="540" y="954"/>
      <point x="548" y="944" type="qcurve"/>
      <point x="521" y="740" type="line"/>
      <point x="512" y="751"/>
      <point x="488" y="767"/>
      <point x="461" y="777"/>
      <point x="436" y="782"/>
      <point x="426" y="782" type="qcurve"/>
      <point x="389" y="782"/>
      <point x="335" y="745"/>
      <point x="302" y="689"/>
      <point x="287" y="623"/>
      <point x="287" y="595" type="qcurve"/>
      <point x="287" y="0" type="line"/>
      <point x="75" y="0" type="line"/>
      <point x="75" y="944" type="line"/>
      <point x="242" y="974" type="line"/>
    </contour>
  </outline>
</glyph>
<glyph name="t" format="2">
  <advance width="552"/>
  <unicode hex="0074"/>
  <anchor x="200" y="0" name="AccentBelow"/>
  <anchor x="200" y="0" name="AccentCedilla"/>
  <anchor x="220" y="1600" name="AccentDefault"/>
  <anchor x="150" y="486" name="AccentMiddle"/>
  <outline>
    <contour>
      <point x="353" y="1322" type="line"/>
      <point x="353" y="1004" type="line"/>
      <point x="506" y="1004" type="line"/>
      <point x="487" y="865" type="line"/>
      <point x="353" y="873" type="line"/>
      <point x="353" y="269" type="line"/>
      <point x="353" y="221"/>
      <point x="366" y="151"/>
      <point x="398" y="104"/>
      <point x="449" y="82"/>
      <point x="487" y="82" type="qcurve"/>
      <point x="472" y="-30" type="line"/>
      <point x="366" y="-30"/>
      <point x="236" y="13"/>
      <point x="165" y="103"/>
      <point x="141" y="244"/>
      <point x="141" y="342" type="qcurve"/>
      <point x="141" y="885" type="line"/>
      <point x="39" y="892" type="line"/>
      <point x="54" y="1004" type="line"/>
      <point x="141" y="1004" type="line"/>
      <point x="141" y="1292" type="line"/>
      <point x="308" y="1322" type="line"/>
    </contour>
  </outline>
</glyph>
<glyph name="v" format="2">
  <advance width="768"/>
  <unicode hex="0076"/>
  <outline>
    <contour>
      <point x="249" y="1004" type="line"/>
      <point x="440" y="308" type="line"/>
      <point x="629" y="1004" type="line"/>
      <point x="736" y="974" type="line"/>
      <point x="470" y="0" type="line"/>
      <point x="298" y="0" type="line"/>
      <point x="32" y="974" type="line"/>
    </contour>
  </outline>
</glyph>
<glyph name="w" format="2">
  <advance width="1080"/>
  <unicode hex="0077"/>
  <outline>
    <contour>
      <point x="681" y="1004" type="line"/>
      <point x="815" y="368" type="line"/>
      <point x="950" y="1004" type="line"/>
      <point x="1057" y="974" type="line"/>
      <point x="846" y="0" type="line"/>
      <point x="674" y="0" type="line"/>
      <point x="539" y="621" type="line"/>
      <point x="405" y="0" type="line"/>
      <point x="233" y="0" type="line"/>
      <point x="23" y="974" type="line"/>
      <point x="240" y="1004" type="line"/>
      <point x="374" y="368" type="line"/>
      <point x="509" y="1004" type="line"/>
    </contour>
  </outline>
</glyph>
<glyph name="asciitilde" format="2">
  <advance width="936"/>
  <unicode hex="007E"/>
  <guideline x="407" y="0" angle="135"/>
  <guideline x="494" y="0" angle="90"/>
  <outline>
    <contour>
      <point x="47" y="386" type="line" name="hr00"/>
      <point x="47" y="427"/>
      <point x="79" y="526"/>
      <point x="141" y="611"/>
      <point x="233" y="669"/>
      <point x="291" y="669" type="qcurve" name="sv02"/>
      <point x="335" y="669"/>
      <point x="404" y="642"/>
      <point x="462" y="602" name="hr01"/>
      <point x="512" y="554"/>
      <point x="561" y="514"/>
      <point x="614" y="487"/>
      <point x="644" y="487" type="qcurve" name="dv02"/>
      <point x="677" y="487"/>
      <point x="729" y="518"/>
      <point x="764" y="569"/>
      <point x="783" y="634"/>
      <point x="783" y="669" type="qcurve" name="sv01"/>
      <point x="830" y="669" type="line"/>
      <point x="890" y="589" type="line"/>
      <point x="890" y="548"/>
      <point x="857" y="449"/>
      <point x="794" y="363"/>
      <point x="703" y="305"/>
      <point x="644" y="305" type="qcurve" name="dv01"/>
      <point x="597" y="305"/>
      <point x="527" y="332"/>
      <point x="470" y="372"/>
      <point x="423" y="420"/>
      <point x="376" y="460"/>
      <point x="323" y="487"/>
      <point x="290" y="487" type="qcurve" name="sv03"/>
      <point x="257" y="487"/>
      <point x="206" y="456"/>
      <point x="172" y="405"/>
      <point x="153" y="340"/>
      <point x="153" y="305" type="qcurve" name="sv04"/>
      <point x="107" y="305" type="line"/>
    </contour>
  </outline>
</glyph>
<glyph name="sterling" format="2">
  <advance width="840"/>
  <unicode hex="00A3"/>
  <outline>
    <contour>
      <point x="83" y="803" type="line"/>
      <point x="230" y="803" type="line"/>
      <point x="230" y="830"/>
      <point x="216" y="906"/>
      <point x="200" y="993"/>
      <point x="186" y="1086"/>
      <point x="186" y="1130" type="qcurve"/>
      <point x="186" y="1203"/>
      <point x="235" y="1325"/>
      <point x="318" y="1414"/>
      <point x="428" y="1464"/>
      <point x="488" y="1464" type="qcurve"/>
      <point x="579" y="1464"/>
      <point x="716" y="1383"/>
      <point x="767" y="1311" type="qcurve"/>
      <point x="683" y="1201" type="line"/>
      <point x="674" y="1225"/>
      <point x="650" y="1278"/>
      <point x="614" y="1323"/>
      <point x="563" y="1352"/>
      <point x="527" y="1352" type="qcurve"/>
      <point x="467" y="1352"/>
      <point x="405" y="1228"/>
      <point x="405" y="1122" type="qcurve"/>
      <point x="405" y="1090"/>
      <point x="414" y="1003"/>
      <point x="425" y="913"/>
      <point x="434" y="830"/>
      <point x="434" y="803" type="qcurve"/>
      <point x="630" y="803" type="line"/>
      <point x="614" y="678" type="line"/>
      <point x="434" y="694" type="line"/>
      <point x="434" y="603"/>
      <point x="406" y="435"/>
      <point x="362" y="286"/>
      <point x="308" y="161"/>
      <point x="284" y="112" type="qcurve"/>
      <point x="360" y="104"/>
      <point x="482" y="82"/>
      <point x="525" y="82" type="qcurve"/>
      <point x="554" y="82"/>
      <point x="603" y="110"/>
      <point x="643" y="153"/>
      <point x="673" y="207"/>
      <point x="683" y="234" type="qcurve"/>
      <point x="768" y="122" type="line"/>
      <point x="755" y="103"/>
      <point x="718" y="51"/>
      <point x="659" y="3"/>
      <point x="574" y="-30"/>
      <point x="515" y="-30" type="qcurve"/>
      <point x="473" y="-30"/>
      <point x="407" y="-26"/>
      <point x="346" y="-19"/>
      <point x="287" y="-11"/>
      <point x="218" y="-4"/>
      <point x="137" y="0"/>
      <point x="86" y="0" type="qcurve"/>
      <point x="72" y="112" type="line"/>
      <point x="99" y="157"/>
      <point x="155" y="261"/>
      <point x="201" y="399"/>
      <point x="230" y="582"/>
      <point x="230" y="707" type="qcurve"/>
      <point x="72" y="718" type="line"/>
    </contour>
  </outline>
</glyph>
<glyph name="ordfeminine" format="2">
  <advance width="648"/>
  <unicode hex="00AA"/>
  <outline>
    <contour>
      <point x="392" y="1071" type="line" name="sh01"/>
      <point x="344" y="1067"/>
      <point x="277" y="1030"/>
      <point x="233" y="973"/>
      <point x="213" y="900"/>
      <point x="213" y="861" type="qcurve" name="sh03"/>
      <point x="213" y="798"/>
      <point x="254" y="739"/>
      <point x="282" y="739" type="qcurve" name="sv01"/>
      <point x="304" y="739"/>
      <point x="338" y="755"/>
      <point x="365" y="780"/>
      <point x="385" y="813"/>
      <point x="392" y="831" type="qcurve"/>
    </contour>
    <contour>
      <point x="81" y="1342" type="line"/>
      <point x="108" y="1370"/>
      <point x="159" y="1416"/>
      <point x="213" y="1447"/>
      <point x="272" y="1464"/>
      <point x="305" y="1464" type="qcurve" name="at01"/>
      <point x="356" y="1464"/>
      <point x="445" y="1427"/>
      <point x="512" y="1352"/>
      <point x="551" y="1240"/>
      <point x="551" y="1164" type="qcurve" name="sh04"/>
      <point x="551" y="793" type="line"/>
      <point x="551" y="766"/>
      <point x="571" y="739"/>
      <point x="594" y="739" type="qcurve" name="dv02"/>
      <point x="582" y="637" type="line" name="dv01"/>
      <point x="540" y="637"/>
      <point x="482" y="659"/>
      <point x="443" y="692"/>
      <point x="419" y="730"/>
      <point x="410" y="747" type="qcurve" name="ih01"/>
      <point x="398" y="726"/>
      <point x="365" y="687"/>
      <point x="321" y="656"/>
      <point x="266" y="637"/>
      <point x="233" y="637" type="qcurve" name="sv02"/>
      <point x="189" y="637"/>
      <point x="122" y="671"/>
      <point x="77" y="732"/>
      <point x="54" y="817"/>
      <point x="54" y="868" type="qcurve" name="sh02"/>
      <point x="54" y="1002"/>
      <point x="217" y="1148"/>
      <point x="392" y="1153" type="qcurve" name="ah01"/>
      <point x="392" y="1235" type="line"/>
      <point x="392" y="1274"/>
      <point x="371" y="1324"/>
      <point x="340" y="1352"/>
      <point x="303" y="1362"/>
      <point x="287" y="1362" type="qcurve" name="sv03"/>
      <point x="271" y="1362"/>
      <point x="239" y="1354"/>
      <point x="206" y="1331"/>
      <point x="170" y="1288"/>
      <point x="149" y="1253" type="qcurve" name="ih02"/>
    </contour>
  </outline>
</glyph>
<glyph name="guillemotleft" format="2">
  <advance width="768"/>
  <unicode hex="00AB"/>
  <outline>
    <contour>
      <point x="279" y="906" type="line"/>
      <point x="440" y="868" type="line"/>
      <point x="245" y="487" type="line"/>
      <point x="440" y="106" type="line"/>
      <point x="278" y="68" type="line"/>
      <point x="32" y="487" type="line"/>
    </contour>
    <contour>
      <point x="575" y="906" type="line"/>
      <point x="737" y="868" type="line"/>
      <point x="541" y="487" type="line"/>
      <point x="737" y="106" type="line"/>
      <point x="574" y="68" type="line"/>
      <point x="328" y="487" type="line"/>
    </contour>
  </outline>
</glyph>
<glyph name="logicalnot" format="2">
  <advance width="864"/>
  <unicode hex="00AC"/>
  <outline>
    <contour>
      <point x="809" y="805" type="line"/>
      <point x="809" y="256" type="line"/>
      <point x="620" y="256" type="line"/>
      <point x="620" y="593" type="line"/>
      <point x="54" y="593" type="line"/>
      <point x="54" y="805" type="line"/>
    </contour>
  </outline>
</glyph>
<glyph name="macron" format="2">
  <advance width="576"/>
  <unicode hex="00AF"/>
  <outline>
    <contour>
      <point x="78" y="1354" type="line"/>
      <point x="522" y="1354" type="line"/>
      <point x="498" y="1172" type="line"/>
      <point x="54" y="1172" type="line"/>
    </contour>
  </outline>
</glyph>
<glyph name="acute" format="2">
  <advance width="576"/>
  <unicode hex="00B4"/>
  <outline>
    <contour>
      <point x="175" y="1219" type="line"/>
      <point x="386" y="1588" type="line"/>
      <point x="419" y="1588" type="line"/>
      <point x="507" y="1470" type="line"/>
      <point x="507" y="1426" type="line"/>
      <point x="233" y="1138" type="line"/>
    </contour>
  </outline>
</glyph>
<glyph name="AE" format="2">
  <advance width="1320"/>
  <unicode hex="00C6"/>
  <guideline x="11" y="0" angle="60"/>
  <guideline x="146" y="0" angle="60"/>
  <outline>
    <contour>
      <point x="631" y="1434" type="line" name="at01"/>
      <point x="1241" y="1434" type="line"/>
      <point x="1220" y="1272" type="line"/>
      <point x="834" y="1312" type="line" name="sh01"/>
      <point x="834" y="859" type="line"/>
      <point x="1164" y="859" type="line" name="dv03"/>
      <point x="1145" y="717" type="line" name="dv02"/>
      <point x="834" y="717" type="line"/>
      <point x="834" y="122" type="line" name="dh02"/>
      <point x="1262" y="162" type="line"/>
      <point x="1241" y="0" type="line" name="ab02"/>
      <point x="600" y="0" type="line" name="dh01"/>
      <point x="600" y="345" type="line" name="dv01"/>
      <point x="296" y="345" type="line"/>
      <point x="133" y="-30" type="line" name="ab01"/>
      <point x="11" y="0" type="line" name="ab03"/>
    </contour>
    <contour>
      <point x="357" y="487" type="line"/>
      <point x="600" y="487" type="line" name="sh02"/>
      <point x="600" y="1047" type="line"/>
    </contour>
  </outline>
</glyph>
<glyph name="Ccedilla" format="2">
  <advance width="1008"/>
  <unicode hex="00C7"/>
  <outline>
    <contour>
      <point x="986" y="1235" type="qcurve"/>
      <point x="894" y="1113" type="line"/>
      <point x="838" y="1228"/>
      <point x="689" y="1342"/>
      <point x="597" y="1342" type="qcurve"/>
      <point x="526" y="1342"/>
      <point x="410" y="1256"/>
      <point x="329" y="1094"/>
      <point x="285" y="862"/>
      <point x="285" y="717" type="qcurve"/>
      <point x="285" y="571"/>
      <point x="329" y="340"/>
      <point x="410" y="178"/>
      <point x="526" y="92"/>
      <point x="597" y="92" type="qcurve"/>
      <point x="689" y="92"/>
      <point x="838" y="204"/>
      <point x="894" y="321" type="qcurve"/>
      <point x="986" y="199" type="line"/>
      <point x="955" y="157"/>
      <point x="886" y="84"/>
      <point x="807" y="25"/>
      <point x="718" y="-15"/>
      <point x="667" y="-24" type="qcurve"/>
      <point x="653" y="-72" type="line"/>
      <point x="671" y="-75"/>
      <point x="717" y="-102"/>
      <point x="759" y="-149"/>
      <point x="788" y="-217"/>
      <point x="788" y="-262" type="qcurve"/>
      <point x="788" y="-318"/>
      <point x="756" y="-403"/>
      <point x="700" y="-461"/>
      <point x="626" y="-490"/>
      <point x="584" y="-490" type="qcurve"/>
      <point x="547" y="-490"/>
      <point x="488" y="-467"/>
      <point x="443" y="-433"/>
      <point x="412" y="-393"/>
      <point x="402" y="-375" type="qcurve"/>
      <point x="464" y="-266" type="line"/>
      <point x="476" y="-310"/>
      <point x="518" y="-369"/>
      <point x="553" y="-369" type="qcurve"/>
      <point x="570" y="-369"/>
      <point x="601" y="-348"/>
      <point x="623" y="-313"/>
      <point x="637" y="-267"/>
      <point x="637" y="-243" type="qcurve"/>
      <point x="637" y="-204"/>
      <point x="616" y="-153"/>
      <point x="580" y="-124"/>
      <point x="533" y="-113"/>
      <point x="506" y="-113" type="qcurve"/>
      <point x="530" y="-24" type="line"/>
      <point x="435" y="-9"/>
      <point x="260" y="108"/>
      <point x="125" y="299"/>
      <point x="44" y="559"/>
      <point x="44" y="717" type="qcurve"/>
      <point x="44" y="832"/>
      <point x="87" y="1032"/>
      <point x="164" y="1198"/>
      <point x="269" y="1328"/>
      <point x="392" y="1417"/>
      <point x="528" y="1464"/>
      <point x="597" y="1464" type="qcurve"/>
      <point x="662" y="1464"/>
      <point x="773" y="1430"/>
      <point x="869" y="1369"/>
      <point x="950" y="1285"/>
    </contour>
  </outline>
</glyph>
<glyph name="Thorn" format="2">
  <advance width="864"/>
  <unicode hex="00DE"/>
  <outline>
    <contour>
      <point x="99" y="1434" type="line"/>
      <point x="333" y="1464" type="line"/>
      <point x="333" y="1156" type="line"/>
      <point x="420" y="1156" type="line"/>
      <point x="527" y="1156"/>
      <point x="681" y="1083"/>
      <point x="779" y="961"/>
      <point x="826" y="802"/>
      <point x="826" y="717" type="qcurve"/>
      <point x="826" y="632"/>
      <point x="779" y="473"/>
      <point x="681" y="351"/>
      <point x="527" y="278"/>
      <point x="420" y="278" type="qcurve"/>
      <point x="333" y="278" type="line"/>
      <point x="333" y="0" type="line"/>
      <point x="99" y="0" type="line"/>
    </contour>
    <contour>
      <point x="333" y="1024" type="line"/>
      <point x="333" y="410" type="line"/>
      <point x="401" y="410" type="line"/>
      <point x="448" y="410"/>
      <point x="517" y="455"/>
      <point x="563" y="536"/>
      <point x="584" y="649"/>
      <point x="584" y="717" type="qcurve"/>
      <point x="584" y="785"/>
      <point x="563" y="898"/>
      <point x="517" y="979"/>
      <point x="448" y="1024"/>
      <point x="401" y="1024" type="qcurve"/>
    </contour>
  </outline>
</glyph>
<glyph name="ae" format="2">
  <advance width="1200"/>
  <unicode hex="00E6"/>
  <outline>
    <contour>
      <point x="864" y="82" type="qcurve"/>
      <point x="894" y="82"/>
      <point x="945" y="109"/>
      <point x="987" y="152"/>
      <point x="1021" y="206"/>
      <point x="1034" y="234" type="qcurve"/>
      <point x="1118" y="122" type="line"/>
      <point x="1097" y="90"/>
      <point x="1042" y="34"/>
      <point x="973" y="-7"/>
      <point x="890" y="-30"/>
      <point x="842" y="-30" type="qcurve"/>
      <point x="740" y="-30"/>
      <point x="594" y="75"/>
      <point x="547" y="167" type="qcurve"/>
      <point x="518" y="111"/>
      <point x="461" y="35"/>
      <point x="398" y="-11"/>
      <point x="328" y="-30"/>
      <point x="287" y="-30" type="qcurve"/>
      <point x="233" y="-30"/>
      <point x="144" y="12"/>
      <point x="81" y="89"/>
      <point x="47" y="195"/>
      <point x="47" y="259" type="qcurve"/>
      <point x="47" y="427"/>
      <point x="260" y="594"/>
      <point x="479" y="599" type="qcurve"/>
      <point x="479" y="718" type="line"/>
      <point x="479" y="767"/>
      <point x="455" y="834"/>
      <point x="419" y="874"/>
      <point x="375" y="892"/>
      <point x="356" y="892" type="qcurve"/>
      <point x="335" y="892"/>
      <point x="290" y="877"/>
      <point x="242" y="842"/>
      <point x="191" y="784"/>
      <point x="165" y="740" type="qcurve"/>
      <point x="81" y="852" type="line"/>
      <point x="148" y="922"/>
      <point x="293" y="1004"/>
      <point x="378" y="1004" type="qcurve"/>
      <point x="447" y="1004"/>
      <point x="564" y="949"/>
      <point x="609" y="893" type="qcurve"/>
      <point x="657" y="946"/>
      <point x="774" y="1004"/>
      <point x="849" y="1004" type="qcurve"/>
      <point x="903" y="1004"/>
      <point x="1012" y="949"/>
      <point x="1099" y="827"/>
      <point x="1154" y="629"/>
      <point x="1154" y="487" type="qcurve"/>
      <point x="690" y="487" type="line"/>
      <point x="692" y="369"/>
      <point x="724" y="213"/>
      <point x="773" y="120"/>
      <point x="833" y="82"/>
    </contour>
    <contour>
      <point x="479" y="507" type="line"/>
      <point x="420" y="502"/>
      <point x="338" y="457"/>
      <point x="288" y="388"/>
      <point x="266" y="299"/>
      <point x="266" y="250" type="qcurve"/>
      <point x="266" y="172"/>
      <point x="313" y="82"/>
      <point x="349" y="82" type="qcurve"/>
      <point x="376" y="82"/>
      <point x="417" y="102"/>
      <point x="448" y="134"/>
      <point x="470" y="175"/>
      <point x="479" y="197" type="qcurve"/>
    </contour>
    <contour>
      <point x="842" y="892" type="qcurve"/>
      <point x="812" y="892"/>
      <point x="757" y="855"/>
      <point x="715" y="781"/>
      <point x="690" y="671"/>
      <point x="690" y="599" type="qcurve"/>
      <point x="972" y="599" type="line"/>
      <point x="972" y="677"/>
      <point x="952" y="789"/>
      <point x="917" y="859"/>
      <point x="869" y="892"/>
    </contour>
  </outline>
</glyph>
<glyph name="divide" format="2">
  <advance width="864"/>
  <unicode hex="00F7"/>
  <outline>
    <contour>
      <point x="86" y="593" type="line"/>
      <point x="779" y="593" type="line"/>
      <point x="779" y="381" type="line"/>
      <point x="86" y="381" type="line"/>
    </contour>
    <contour>
      <point x="542" y="116" type="qcurve"/>
      <point x="542" y="86"/>
      <point x="524" y="32"/>
      <point x="495" y="-7"/>
      <point x="455" y="-30"/>
      <point x="432" y="-30" type="qcurve"/>
      <point x="410" y="-30"/>
      <point x="369" y="-7"/>
      <point x="340" y="32"/>
      <point x="323" y="86"/>
      <point x="323" y="116" type="qcurve"/>
      <point x="323" y="146"/>
      <point x="340" y="200"/>
      <point x="369" y="239"/>
      <point x="410" y="262"/>
      <point x="432" y="262" type="qcurve"/>
      <point x="455" y="262"/>
      <point x="495" y="239"/>
      <point x="524" y="200"/>
      <point x="542" y="146"/>
    </contour>
    <contour>
      <point x="542" y="858" type="qcurve"/>
      <point x="542" y="828"/>
      <point x="524" y="774"/>
      <point x="495" y="735"/>
      <point x="455" y="712"/>
      <point x="432" y="712" type="qcurve"/>
      <point x="410" y="712"/>
      <point x="369" y="735"/>
      <point x="340" y="774"/>
      <point x="323" y="828"/>
      <point x="323" y="858" type="qcurve"/>
      <point x="323" y="888"/>
      <point x="340" y="942"/>
      <point x="369" y="981"/>
      <point x="410" y="1004"/>
      <point x="432" y="1004" type="qcurve"/>
      <point x="455" y="1004"/>
      <point x="495" y="981"/>
      <point x="524" y="942"/>
      <point x="542" y="888"/>
    </contour>
  </outline>
</glyph>
<glyph name="thorn" format="2">
  <advance width="840"/>
  <unicode hex="00FE"/>
  <outline>
    <contour>
      <point x="75" y="1464" type="line"/>
      <point x="242" y="1494" type="line"/>
      <point x="287" y="1494" type="line"/>
      <point x="287" y="914" type="line"/>
      <point x="301" y="935"/>
      <point x="341" y="968"/>
      <point x="387" y="992"/>
      <point x="436" y="1004"/>
      <point x="459" y="1004" type="qcurve"/>
      <point x="531" y="1004"/>
      <point x="655" y="929"/>
      <point x="746" y="793"/>
      <point x="798" y="602"/>
      <point x="798" y="487" type="qcurve"/>
      <point x="798" y="358"/>
      <point x="742" y="165"/>
      <point x="648" y="35"/>
      <point x="524" y="-30"/>
      <point x="457" y="-30" type="qcurve"/>
      <point x="414" y="-30"/>
      <point x="322" y="9"/>
      <point x="287" y="51" type="qcurve"/>
      <point x="287" y="-460" type="line"/>
      <point x="120" y="-490" type="line"/>
      <point x="75" y="-490" type="line"/>
    </contour>
    <contour>
      <point x="287" y="802" type="qcurve"/>
      <point x="287" y="162" type="line"/>
      <point x="315" y="119"/>
      <point x="377" y="82"/>
      <point x="412" y="82" type="qcurve"/>
      <point x="441" y="82"/>
      <point x="501" y="128"/>
      <point x="549" y="226"/>
      <point x="579" y="379"/>
      <point x="579" y="487" type="qcurve"/>
      <point x="579" y="574"/>
      <point x="554" y="723"/>
      <point x="510" y="831"/>
      <point x="450" y="892"/>
      <point x="414" y="892" type="qcurve"/>
      <point x="389" y="892"/>
      <point x="349" y="873"/>
      <point x="317" y="846"/>
      <point x="294" y="815"/>
    </contour>
  </outline>
</glyph>
<glyph name="Aogonek" format="2">
  <advance width="1008"/>
  <unicode hex="0104"/>
  <anchor x="500" y="1600" name="AccentDefault"/>
  <outline>
    <contour>
      <point x="1016" y="-418" type="line"/>
      <point x="996" y="-431"/>
      <point x="946" y="-450"/>
      <point x="912" y="-450" type="qcurve"/>
      <point x="867" y="-450"/>
      <point x="801" y="-415"/>
      <point x="758" y="-356"/>
      <point x="738" y="-280"/>
      <point x="738" y="-239" type="qcurve"/>
      <point x="738" y="-213"/>
      <point x="746" y="-160"/>
      <point x="767" y="-106"/>
      <point x="807" y="-49"/>
      <point x="839" y="-19" type="qcurve"/>
      <point x="752" y="-30" type="line"/>
      <point x="639" y="345" type="line"/>
      <point x="247" y="345" type="line"/>
      <point x="133" y="-30" type="line"/>
      <point x="11" y="0" type="line"/>
      <point x="446" y="1434" type="line"/>
      <point x="554" y="1464" type="line"/>
      <point x="996" y="0" type="line"/>
      <point x="956" y="-25"/>
      <point x="901" y="-77"/>
      <point x="867" y="-129"/>
      <point x="852" y="-182"/>
      <point x="852" y="-209" type="qcurve"/>
      <point x="852" y="-232"/>
      <point x="865" y="-269"/>
      <point x="887" y="-294"/>
      <point x="913" y="-308"/>
      <point x="926" y="-308" type="qcurve"/>
      <point x="950" y="-308"/>
      <point x="983" y="-284"/>
      <point x="996" y="-270" type="qcurve"/>
    </contour>
    <contour>
      <point x="596" y="487" type="line"/>
      <point x="443" y="992" type="line"/>
      <point x="290" y="487" type="line"/>
    </contour>
  </outline>
</glyph>
<glyph name="aogonek" format="2">
  <advance width="840"/>
  <unicode hex="0105"/>
  <anchor x="420" y="1100" name="AccentDefault"/>
  <outline>
    <contour>
      <point x="96" y="852" type="line"/>
      <point x="164" y="924"/>
      <point x="331" y="1004"/>
      <point x="417" y="1004" type="qcurve"/>
      <point x="480" y="1004"/>
      <point x="602" y="952"/>
      <point x="699" y="851"/>
      <point x="759" y="704"/>
      <point x="759" y="609" type="qcurve"/>
      <point x="759" y="150" type="line"/>
      <point x="759" y="116"/>
      <point x="785" y="82"/>
      <point x="813" y="82" type="qcurve"/>
      <point x="798" y="-30" type="line"/>
      <point x="787" y="-30"/>
      <point x="767" y="-30"/>
      <point x="757" y="-29" type="qcurve"/>
      <point x="701" y="-74"/>
      <point x="654" y="-163"/>
      <point x="654" y="-209" type="qcurve"/>
      <point x="654" y="-232"/>
      <point x="667" y="-269"/>
      <point x="689" y="-294"/>
      <point x="715" y="-308"/>
      <point x="728" y="-308" type="qcurve"/>
      <point x="752" y="-308"/>
      <point x="785" y="-284"/>
      <point x="798" y="-270" type="qcurve"/>
      <point x="818" y="-418" type="line"/>
      <point x="798" y="-431"/>
      <point x="748" y="-450"/>
      <point x="714" y="-450" type="qcurve"/>
      <point x="669" y="-450"/>
      <point x="603" y="-415"/>
      <point x="560" y="-356"/>
      <point x="540" y="-280"/>
      <point x="540" y="-239" type="qcurve"/>
      <point x="540" y="-212"/>
      <point x="549" y="-156"/>
      <point x="574" y="-98"/>
      <point x="619" y="-38"/>
      <point x="655" y="-6" type="qcurve"/>
      <point x="618" y="10"/>
      <point x="582" y="58"/>
      <point x="571" y="82" type="qcurve"/>
      <point x="551" y="60"/>
      <point x="504" y="20"/>
      <point x="446" y="-11"/>
      <point x="376" y="-30"/>
      <point x="335" y="-30" type="qcurve"/>
      <point x="281" y="-30"/>
      <point x="182" y="6"/>
      <point x="106" y="75"/>
      <point x="62" y="175"/>
      <point x="62" y="239" type="qcurve"/>
      <point x="62" y="323"/>
      <point x="131" y="455"/>
      <point x="259" y="546"/>
      <point x="438" y="596"/>
      <point x="548" y="599" type="qcurve"/>
      <point x="548" y="668" type="line"/>
      <point x="548" y="717"/>
      <point x="530" y="799"/>
      <point x="493" y="859"/>
      <point x="438" y="892"/>
      <point x="402" y="892" type="qcurve"/>
      <point x="381" y="892"/>
      <point x="326" y="875"/>
      <point x="267" y="838"/>
      <point x="206" y="780"/>
      <point x="180" y="740" type="qcurve"/>
    </contour>
    <contour>
      <point x="548" y="497" type="line"/>
      <point x="489" y="492"/>
      <point x="391" y="454"/>
      <point x="320" y="390"/>
      <point x="281" y="303"/>
      <point x="281" y="250" type="qcurve"/>
      <point x="281" y="200"/>
      <point x="303" y="135"/>
      <point x="337" y="97"/>
      <point x="377" y="82"/>
      <point x="395" y="82" type="qcurve"/>
      <point x="416" y="82"/>
      <point x="461" y="102"/>
      <point x="502" y="135"/>
      <point x="536" y="177"/>
      <point x="548" y="199" type="qcurve"/>
    </contour>
  </outline>
</glyph>
<glyph name="Dcroat" format="2">
  <advance width="1128"/>
  <unicode hex="0110"/>
  <outline>
    <contour>
      <point x="99" y="1434" type="line"/>
      <point x="455" y="1434" type="line"/>
      <point x="599" y="1434"/>
      <point x="826" y="1336"/>
      <point x="983" y="1151"/>
      <point x="1067" y="885"/>
      <point x="1067" y="717" type="qcurve"/>
      <point x="1067" y="619"/>
      <point x="1027" y="436"/>
      <point x="953" y="277"/>
      <point x="846" y="145"/>
      <point x="712" y="52"/>
      <point x="553" y="0"/>
      <point x="463" y="0" type="qcurve"/>
      <point x="99" y="0" type="line"/>
      <point x="99" y="717" type="line"/>
      <point x="23" y="717" type="line"/>
      <point x="41" y="859" type="line"/>
      <point x="99" y="859" type="line"/>
    </contour>
    <contour>
      <point x="333" y="1302" type="line"/>
      <point x="333" y="859" type="line"/>
      <point x="659" y="859" type="line"/>
      <point x="641" y="717" type="line"/>
      <point x="333" y="717" type="line"/>
      <point x="333" y="132" type="line"/>
      <point x="442" y="132" type="line"/>
      <point x="533" y="132"/>
      <point x="676" y="226"/>
      <point x="774" y="386"/>
      <point x="825" y="598"/>
      <point x="825" y="717" type="qcurve"/>
      <point x="825" y="859"/>
      <point x="771" y="1078"/>
      <point x="670" y="1226"/>
      <point x="527" y="1302"/>
      <point x="437" y="1302" type="qcurve"/>
    </contour>
  </outline>
</glyph>
<glyph name="Eogonek" format="2">
  <advance width="816"/>
  <unicode hex="0118"/>
  <anchor x="400" y="1600" name="AccentDefault"/>
  <outline>
    <contour>
      <point x="722" y="-418" type="line"/>
      <point x="702" y="-431"/>
      <point x="652" y="-450"/>
      <point x="618" y="-450" type="qcurve"/>
      <point x="573" y="-450"/>
      <point x="507" y="-415"/>
      <point x="464" y="-356"/>
      <point x="444" y="-280"/>
      <point x="444" y="-239" type="qcurve"/>
      <point x="444" y="-211"/>
      <point x="453" y="-154"/>
      <point x="479" y="-94"/>
      <point x="527" y="-33"/>
      <point x="566" y="0" type="qcurve"/>
      <point x="98" y="0" type="line"/>
      <point x="98" y="1434" type="line"/>
      <point x="738" y="1434" type="line"/>
      <point x="717" y="1272" type="line"/>
      <point x="332" y="1312" type="line"/>
      <point x="332" y="859" type="line"/>
      <point x="662" y="859" type="line"/>
      <point x="643" y="717" type="line"/>
      <point x="332" y="717" type="line"/>
      <point x="332" y="122" type="line"/>
      <point x="760" y="162" type="line"/>
      <point x="738" y="0" type="line"/>
      <point x="702" y="0" type="line"/>
      <point x="662" y="-25"/>
      <point x="607" y="-77"/>
      <point x="573" y="-129"/>
      <point x="558" y="-182"/>
      <point x="558" y="-209" type="qcurve"/>
      <point x="558" y="-232"/>
      <point x="571" y="-269"/>
      <point x="593" y="-294"/>
      <point x="619" y="-308"/>
      <point x="632" y="-308" type="qcurve"/>
      <point x="656" y="-308"/>
      <point x="689" y="-284"/>
      <point x="702" y="-270" type="qcurve"/>
    </contour>
  </outline>
</glyph>
<glyph name="iogonek" format="2">
  <advance width="432"/>
  <unicode hex="012F"/>
  <anchor x="220" y="1450" name="AccentDefault"/>
  <outline>
    <contour>
      <point x="380" y="-418" type="line"/>
      <point x="361" y="-431"/>
      <point x="314" y="-440"/>
      <point x="292" y="-440" type="qcurve"/>
      <point x="247" y="-440"/>
      <point x="176" y="-408"/>
      <point x="128" y="-353"/>
      <point x="103" y="-280"/>
      <point x="103" y="-239" type="qcurve"/>
      <point x="103" y="-211"/>
      <point x="112" y="-155"/>
      <point x="137" y="-96"/>
      <point x="183" y="-35"/>
      <point x="221" y="-3" type="qcurve"/>
      <point x="163" y="25"/>
      <point x="110" y="147"/>
      <point x="110" y="245" type="qcurve"/>
      <point x="110" y="974" type="line"/>
      <point x="277" y="1004" type="line"/>
      <point x="322" y="1004" type="line"/>
      <point x="322" y="164" type="line"/>
      <point x="322" y="148"/>
      <point x="324" y="118"/>
      <point x="335" y="96"/>
      <point x="356" y="82"/>
      <point x="376" y="82" type="qcurve"/>
      <point x="361" y="-30" type="line"/>
      <point x="350" y="-30"/>
      <point x="330" y="-29"/>
      <point x="320" y="-28" type="qcurve"/>
      <point x="266" y="-70"/>
      <point x="224" y="-149"/>
      <point x="224" y="-189" type="qcurve"/>
      <point x="224" y="-212"/>
      <point x="238" y="-252"/>
      <point x="260" y="-281"/>
      <point x="290" y="-298"/>
      <point x="306" y="-298" type="qcurve"/>
      <point x="323" y="-298"/>
      <point x="348" y="-284"/>
      <point x="361" y="-270" type="qcurve"/>
    </contour>
    <contour>
      <point x="107" y="1288" type="qcurve"/>
      <point x="107" y="1318"/>
      <point x="124" y="1372"/>
      <point x="153" y="1411"/>
      <point x="194" y="1434"/>
      <point x="216" y="1434" type="qcurve"/>
      <point x="239" y="1434"/>
      <point x="279" y="1411"/>
      <point x="308" y="1372"/>
      <point x="326" y="1318"/>
      <point x="326" y="1288" type="qcurve"/>
      <point x="326" y="1258"/>
      <point x="308" y="1204"/>
      <point x="279" y="1165"/>
      <point x="239" y="1142"/>
      <point x="216" y="1142" type="qcurve"/>
      <point x="194" y="1142"/>
      <point x="153" y="1165"/>
      <point x="124" y="1204"/>
      <point x="107" y="1258"/>
    </contour>
  </outline>
</glyph>
<glyph name="Eng" format="2">
  <advance width="1128"/>
  <unicode hex="014A"/>
  <outline>
    <contour>
      <point x="96" y="1434" type="line"/>
      <point x="218" y="1464" type="line"/>
      <point x="911" y="437" type="line"/>
      <point x="911" y="1464" type="line"/>
      <point x="1034" y="1434" type="line"/>
      <point x="1034" y="-76" type="line"/>
      <point x="1034" y="-198"/>
      <point x="1010" y="-358"/>
      <point x="959" y="-452"/>
      <point x="880" y="-490"/>
      <point x="809" y="-490" type="qcurve"/>
      <point x="824" y="-378" type="line"/>
      <point x="863" y="-378"/>
      <point x="911" y="-285"/>
      <point x="911" y="-191" type="qcurve"/>
      <point x="911" y="0" type="line"/>
      <point x="218" y="1026" type="line"/>
      <point x="218" y="0" type="line"/>
      <point x="96" y="0" type="line"/>
    </contour>
  </outline>
</glyph>
<glyph name="eng" format="2">
  <advance width="840"/>
  <unicode hex="014B"/>
  <outline>
    <contour>
      <point x="75" y="944" type="line"/>
      <point x="242" y="974" type="line"/>
      <point x="287" y="974" type="line"/>
      <point x="287" y="892" type="line"/>
      <point x="306" y="914"/>
      <point x="354" y="955"/>
      <point x="408" y="986"/>
      <point x="465" y="1004"/>
      <point x="494" y="1004" type="qcurve"/>
      <point x="555" y="1004"/>
      <point x="653" y="960"/>
      <point x="722" y="877"/>
      <point x="759" y="756"/>
      <point x="759" y="680" type="qcurve"/>
      <point x="759" y="-76" type="line"/>
      <point x="759" y="-198"/>
      <point x="725" y="-358"/>
      <point x="652" y="-452"/>
      <point x="538" y="-490"/>
      <point x="446" y="-490" type="qcurve"/>
      <point x="461" y="-378" type="line"/>
      <point x="486" y="-378"/>
      <point x="520" y="-363"/>
      <point x="540" y="-322"/>
      <point x="548" y="-249"/>
      <point x="548" y="-191" type="qcurve"/>
      <point x="548" y="724" type="line"/>
      <point x="548" y="802"/>
      <point x="498" y="892"/>
      <point x="448" y="892" type="qcurve"/>
      <point x="423" y="892"/>
      <point x="374" y="868"/>
      <point x="331" y="832"/>
      <point x="296" y="789"/>
      <point x="287" y="770" type="qcurve"/>
      <point x="287" y="0" type="line"/>
      <point x="75" y="0" type="line"/>
    </contour>
  </outline>
</glyph>
<glyph name="OE" format="2">
  <advance width="1416"/>
  <unicode hex="0152"/>
  <outline>
    <contour>
      <point x="602" y="-30" type="qcurve"/>
      <point x="533" y="-30"/>
      <point x="398" y="17"/>
      <point x="276" y="106"/>
      <point x="173" y="236"/>
      <point x="97" y="402"/>
      <point x="54" y="602"/>
      <point x="54" y="717" type="qcurve"/>
      <point x="54" y="832"/>
      <point x="97" y="1032"/>
      <point x="173" y="1198"/>
      <point x="276" y="1328"/>
      <point x="398" y="1417"/>
      <point x="533" y="1464"/>
      <point x="602" y="1464" type="qcurve"/>
      <point x="641" y="1464"/>
      <point x="719" y="1448"/>
      <point x="757" y="1434" type="qcurve"/>
      <point x="1340" y="1434" type="line"/>
      <point x="1319" y="1272" type="line"/>
      <point x="934" y="1312" type="line"/>
      <point x="934" y="839" type="line"/>
      <point x="1260" y="839" type="line"/>
      <point x="1244" y="717" type="line"/>
      <point x="934" y="717" type="line"/>
      <point x="934" y="122" type="line"/>
      <point x="1362" y="162" type="line"/>
      <point x="1340" y="0" type="line"/>
      <point x="758" y="0" type="line"/>
      <point x="682" y="-30"/>
    </contour>
    <contour>
      <point x="602" y="1342" type="qcurve"/>
      <point x="536" y="1342"/>
      <point x="424" y="1256"/>
      <point x="342" y="1095"/>
      <point x="296" y="863"/>
      <point x="296" y="717" type="qcurve"/>
      <point x="296" y="571"/>
      <point x="342" y="339"/>
      <point x="424" y="178"/>
      <point x="536" y="92"/>
      <point x="602" y="92" type="qcurve"/>
      <point x="655" y="92"/>
      <point x="700" y="117" type="qcurve"/>
      <point x="700" y="1316" type="line"/>
      <point x="653" y="1342"/>
    </contour>
  </outline>
</glyph>
<glyph name="Tcommaaccent" format="2">
  <advance width="864"/>
  <unicode hex="0162"/>
  <outline>
    <contour>
      <point x="23" y="1434" type="line"/>
      <point x="863" y="1434" type="line"/>
      <point x="842" y="1272" type="line"/>
      <point x="549" y="1312" type="line"/>
      <point x="549" y="0" type="line"/>
      <point x="452" y="0" type="line"/>
      <point x="431" y="-72" type="line"/>
      <point x="449" y="-75"/>
      <point x="495" y="-102"/>
      <point x="537" y="-149"/>
      <point x="566" y="-217"/>
      <point x="566" y="-262" type="qcurve"/>
      <point x="566" y="-318"/>
      <point x="534" y="-403"/>
      <point x="478" y="-461"/>
      <point x="404" y="-490"/>
      <point x="362" y="-490" type="qcurve"/>
      <point x="325" y="-490"/>
      <point x="266" y="-467"/>
      <point x="221" y="-433"/>
      <point x="190" y="-393"/>
      <point x="180" y="-375" type="qcurve"/>
      <point x="242" y="-266" type="line"/>
      <point x="254" y="-310"/>
      <point x="296" y="-369"/>
      <point x="331" y="-369" type="qcurve"/>
      <point x="348" y="-369"/>
      <point x="379" y="-348"/>
      <point x="401" y="-313"/>
      <point x="415" y="-267"/>
      <point x="415" y="-243" type="qcurve"/>
      <point x="415" y="-204"/>
      <point x="394" y="-153"/>
      <point x="358" y="-124"/>
      <point x="311" y="-113"/>
      <point x="284" y="-113" type="qcurve"/>
      <point x="315" y="0" type="line"/>
      <point x="315" y="1313" type="line"/>
      <point x="2" y="1271" type="line"/>
    </contour>
  </outline>
</glyph>
<glyph name="Tbar" format="2">
  <advance width="864"/>
  <unicode hex="0166"/>
  <guideline x="231" y="0" angle="90"/>
  <guideline x="648" y="0" angle="90"/>
  <outline>
    <contour>
      <point x="23" y="1434" type="line" name="at01"/>
      <point x="863" y="1434" type="line"/>
      <point x="842" y="1272" type="line"/>
      <point x="549" y="1312" type="line" name="sh01"/>
      <point x="549" y="839" type="line"/>
      <point x="746" y="839" type="line" name="dv02"/>
      <point x="728" y="697" type="line" name="dv01"/>
      <point x="549" y="697" type="line"/>
      <point x="549" y="0" type="line" name="dh02"/>
      <point x="315" y="0" type="line" name="dh01"/>
      <point x="315" y="697" type="line" name="sv01"/>
      <point x="122" y="697" type="line"/>
      <point x="140" y="839" type="line" name="sv02"/>
      <point x="315" y="839" type="line" name="sh02"/>
      <point x="315" y="1313" type="line"/>
      <point x="2" y="1271" type="line" name="iv01"/>
    </contour>
  </outline>
</glyph>
<glyph name="tbar" format="2">
  <advance width="552"/>
  <unicode hex="0167"/>
  <outline>
    <contour>
      <point x="56" y="609" type="line"/>
      <point x="141" y="609" type="line"/>
      <point x="141" y="885" type="line"/>
      <point x="39" y="892" type="line"/>
      <point x="54" y="1004" type="line"/>
      <point x="141" y="1004" type="line"/>
      <point x="141" y="1292" type="line"/>
      <point x="308" y="1322" type="line"/>
      <point x="353" y="1322" type="line"/>
      <point x="353" y="1004" type="line"/>
      <point x="506" y="1004" type="line"/>
      <point x="487" y="865" type="line"/>
      <point x="353" y="873" type="line"/>
      <point x="353" y="609" type="line"/>
      <point x="506" y="609" type="line"/>
      <point x="489" y="487" type="line"/>
      <point x="353" y="487" type="line"/>
      <point x="353" y="269" type="line"/>
      <point x="353" y="221"/>
      <point x="366" y="151"/>
      <point x="398" y="104"/>
      <point x="449" y="82"/>
      <point x="487" y="82" type="qcurve"/>
      <point x="472" y="-30" type="line"/>
      <point x="366" y="-30"/>
      <point x="236" y="13"/>
      <point x="165" y="103"/>
      <point x="141" y="244"/>
      <point x="141" y="342" type="qcurve"/>
      <point x="141" y="487" type="line"/>
      <point x="39" y="487" type="line"/>
    </contour>
  </outline>
</glyph>
<glyph name="uogonek" format="2">
  <advance width="840"/>
  <unicode hex="0173"/>
  <anchor x="450" y="1100" name="AccentDefault"/>
  <outline>
    <contour>
      <point x="818" y="-418" type="line"/>
      <point x="798" y="-431"/>
      <point x="751" y="-440"/>
      <point x="729" y="-440" type="qcurve"/>
      <point x="684" y="-440"/>
      <point x="614" y="-408"/>
      <point x="566" y="-353"/>
      <point x="540" y="-280"/>
      <point x="540" y="-239" type="qcurve"/>
      <point x="540" y="-211"/>
      <point x="550" y="-154"/>
      <point x="576" y="-95"/>
      <point x="623" y="-33"/>
      <point x="662" y="0" type="qcurve"/>
      <point x="630" y="16"/>
      <point x="591" y="59"/>
      <point x="580" y="82" type="qcurve"/>
      <point x="562" y="62"/>
      <point x="512" y="22"/>
      <point x="452" y="-10"/>
      <point x="383" y="-30"/>
      <point x="347" y="-30" type="qcurve"/>
      <point x="293" y="-30"/>
      <point x="194" y="6"/>
      <point x="119" y="85"/>
      <point x="75" y="209"/>
      <point x="75" y="298" type="qcurve"/>
      <point x="75" y="974" type="line"/>
      <point x="242" y="1004" type="line"/>
      <point x="287" y="1004" type="line"/>
      <point x="287" y="258" type="line"/>
      <point x="287" y="204"/>
      <point x="305" y="135"/>
      <point x="332" y="96"/>
      <point x="364" y="82"/>
      <point x="378" y="82" type="qcurve"/>
      <point x="405" y="82"/>
      <point x="455" y="103"/>
      <point x="499" y="137"/>
      <point x="535" y="183"/>
      <point x="548" y="208" type="qcurve"/>
      <point x="548" y="974" type="line"/>
      <point x="714" y="1004" type="line"/>
      <point x="759" y="1004" type="line"/>
      <point x="759" y="165" type="line"/>
      <point x="759" y="117"/>
      <point x="782" y="82"/>
      <point x="813" y="82" type="qcurve"/>
      <point x="798" y="-30" type="line"/>
      <point x="790" y="-30"/>
      <point x="765" y="-28"/>
      <point x="759" y="-26" type="qcurve"/>
      <point x="705" y="-68"/>
      <point x="662" y="-149"/>
      <point x="662" y="-189" type="qcurve"/>
      <point x="662" y="-212"/>
      <point x="675" y="-252"/>
      <point x="698" y="-281"/>
      <point x="727" y="-298"/>
      <point x="743" y="-298" type="qcurve"/>
      <point x="761" y="-298"/>
      <point x="785" y="-284"/>
      <point x="798" y="-270" type="qcurve"/>
    </contour>
  </outline>
</glyph>
<glyph name="uni0250" format="2">
  <advance width="768"/>
  <unicode hex="0250"/>
  <outline>
    <contour>
      <point x="54" y="1004" type="line"/>
      <point x="113" y="1004"/>
      <point x="191" y="981"/>
      <point x="242" y="946"/>
      <point x="272" y="903"/>
      <point x="282" y="882" type="qcurve"/>
      <point x="311" y="933"/>
      <point x="421" y="1004"/>
      <point x="504" y="1004" type="qcurve"/>
      <point x="558" y="1004"/>
      <point x="648" y="962"/>
      <point x="712" y="885"/>
      <point x="747" y="779"/>
      <point x="747" y="715" type="qcurve"/>
      <point x="747" y="547"/>
      <point x="523" y="359"/>
      <point x="305" y="359" type="qcurve"/>
      <point x="305" y="256" type="line"/>
      <point x="305" y="207"/>
      <point x="331" y="140"/>
      <point x="370" y="100"/>
      <point x="416" y="82"/>
      <point x="435" y="82" type="qcurve"/>
      <point x="455" y="82"/>
      <point x="502" y="97"/>
      <point x="551" y="132"/>
      <point x="602" y="190"/>
      <point x="629" y="234" type="qcurve"/>
      <point x="713" y="122" type="line"/>
      <point x="645" y="51"/>
      <point x="499" y="-30"/>
      <point x="413" y="-30" type="qcurve"/>
      <point x="350" y="-30"/>
      <point x="234" y="16"/>
      <point x="146" y="109"/>
      <point x="93" y="250"/>
      <point x="93" y="345" type="qcurve"/>
      <point x="93" y="824" type="line"/>
      <point x="93" y="858"/>
      <point x="68" y="892"/>
      <point x="39" y="892" type="qcurve"/>
    </contour>
    <contour>
      <point x="305" y="777" type="qcurve"/>
      <point x="305" y="461" type="line"/>
      <point x="363" y="466"/>
      <point x="448" y="512"/>
      <point x="503" y="584"/>
      <point x="528" y="675"/>
      <point x="528" y="724" type="qcurve"/>
      <point x="528" y="802"/>
      <point x="478" y="892"/>
      <point x="442" y="892" type="qcurve"/>
      <point x="415" y="892"/>
      <point x="371" y="872"/>
      <point x="338" y="840"/>
      <point x="313" y="799"/>
    </contour>
  </outline>
</glyph>
<glyph name="uni0253" format="2">
  <advance width="840"/>
  <unicode hex="0253"/>
  <outline>
    <contour>
      <point x="388" y="1464" type="qcurve" name="at01"/>
      <point x="373" y="1352" type="line"/>
      <point x="348" y="1352"/>
      <point x="314" y="1337"/>
      <point x="295" y="1297"/>
      <point x="287" y="1223"/>
      <point x="287" y="1165" type="qcurve" name="sh03"/>
      <point x="287" y="962" type="line" name="ih01"/>
      <point x="319" y="982"/>
      <point x="397" y="1004"/>
      <point x="444" y="1004" type="qcurve" name="at02"/>
      <point x="521" y="1004"/>
      <point x="651" y="929"/>
      <point x="746" y="793"/>
      <point x="798" y="602"/>
      <point x="798" y="487" type="qcurve" name="sh04"/>
      <point x="798" y="355"/>
      <point x="739" y="160"/>
      <point x="636" y="32"/>
      <point x="498" y="-30"/>
      <point x="419" y="-30" type="qcurve" name="ab01"/>
      <point x="382" y="-30"/>
      <point x="304" y="-16"/>
      <point x="220" y="18"/>
      <point x="127" y="77"/>
      <point x="75" y="122" type="qcurve" name="sh01"/>
      <point x="75" y="1050" type="line"/>
      <point x="75" y="1176"/>
      <point x="110" y="1336"/>
      <point x="185" y="1429"/>
      <point x="305" y="1464"/>
    </contour>
    <contour>
      <point x="287" y="852" type="qcurve"/>
      <point x="287" y="122" type="line" name="sh02"/>
      <point x="306" y="99"/>
      <point x="368" y="82"/>
      <point x="404" y="82" type="qcurve" name="sv02"/>
      <point x="439" y="82"/>
      <point x="503" y="131"/>
      <point x="551" y="231"/>
      <point x="579" y="383"/>
      <point x="579" y="487" type="qcurve" name="ah01"/>
      <point x="579" y="574"/>
      <point x="556" y="723"/>
      <point x="512" y="831"/>
      <point x="448" y="892"/>
      <point x="407" y="892" type="qcurve" name="sv01"/>
      <point x="362" y="892"/>
      <point x="308" y="870"/>
    </contour>
  </outline>
</glyph>
<glyph name="uni0259" format="2">
  <advance width="768"/>
  <unicode hex="0259"/>
  <outline>
    <contour>
      <point x="333" y="892" type="qcurve"/>
      <point x="303" y="892"/>
      <point x="251" y="865"/>
      <point x="209" y="822"/>
      <point x="175" y="768"/>
      <point x="162" y="740" type="qcurve"/>
      <point x="77" y="852" type="line"/>
      <point x="99" y="884"/>
      <point x="155" y="940"/>
      <point x="224" y="981"/>
      <point x="307" y="1004"/>
      <point x="356" y="1004" type="qcurve"/>
      <point x="442" y="1004"/>
      <point x="579" y="927"/>
      <point x="675" y="789"/>
      <point x="726" y="600"/>
      <point x="726" y="487" type="qcurve"/>
      <point x="726" y="375"/>
      <point x="673" y="185"/>
      <point x="574" y="47"/>
      <point x="434" y="-30"/>
      <point x="348" y="-30" type="qcurve"/>
      <point x="294" y="-30"/>
      <point x="185" y="25"/>
      <point x="98" y="147"/>
      <point x="42" y="345"/>
      <point x="42" y="487" type="qcurve"/>
      <point x="515" y="487" type="line"/>
      <point x="515" y="603"/>
      <point x="482" y="759"/>
      <point x="429" y="853"/>
      <point x="365" y="892"/>
    </contour>
    <contour>
      <point x="356" y="82" type="qcurve"/>
      <point x="386" y="82"/>
      <point x="443" y="119"/>
      <point x="488" y="193"/>
      <point x="515" y="303"/>
      <point x="515" y="375" type="qcurve"/>
      <point x="224" y="375" type="line"/>
      <point x="224" y="297"/>
      <point x="245" y="185"/>
      <point x="281" y="115"/>
      <point x="329" y="82"/>
    </contour>
  </outline>
</glyph>
<glyph name="uni025D" format="2">
  <advance width="936"/>
  <unicode hex="025D"/>
  <outline>
    <contour>
      <point x="609" y="279" type="qcurve"/>
      <point x="609" y="214"/>
      <point x="558" y="101"/>
      <point x="469" y="18"/>
      <point x="347" y="-30"/>
      <point x="275" y="-30" type="qcurve"/>
      <point x="235" y="-30"/>
      <point x="161" y="-5"/>
      <point x="97" y="37"/>
      <point x="43" y="92"/>
      <point x="23" y="122" type="qcurve"/>
      <point x="107" y="234" type="line"/>
      <point x="121" y="205"/>
      <point x="155" y="150"/>
      <point x="196" y="108"/>
      <point x="244" y="82"/>
      <point x="272" y="82" type="qcurve"/>
      <point x="296" y="82"/>
      <point x="344" y="107"/>
      <point x="382" y="156"/>
      <point x="405" y="226"/>
      <point x="405" y="271" type="qcurve"/>
      <point x="405" y="318"/>
      <point x="384" y="397"/>
      <point x="343" y="455"/>
      <point x="283" y="487"/>
      <point x="245" y="487" type="qcurve"/>
      <point x="209" y="487" type="line"/>
      <point x="224" y="599" type="line"/>
      <point x="264" y="599"/>
      <point x="320" y="629"/>
      <point x="356" y="676"/>
      <point x="373" y="733"/>
      <point x="373" y="761" type="qcurve"/>
      <point x="373" y="818"/>
      <point x="328" y="892"/>
      <point x="283" y="892" type="qcurve"/>
      <point x="262" y="892"/>
      <point x="221" y="869"/>
      <point x="184" y="828"/>
      <point x="151" y="773"/>
      <point x="137" y="740" type="qcurve"/>
      <point x="53" y="852" type="line"/>
      <point x="71" y="878"/>
      <point x="122" y="932"/>
      <point x="188" y="976"/>
      <point x="268" y="1004"/>
      <point x="315" y="1004" type="qcurve"/>
      <point x="397" y="1004"/>
      <point x="511" y="936"/>
      <point x="538" y="878" type="qcurve"/>
      <point x="710" y="1038" type="line"/>
      <point x="735" y="974" type="line"/>
      <point x="713" y="935"/>
      <point x="688" y="872"/>
      <point x="674" y="821"/>
      <point x="670" y="780"/>
      <point x="670" y="762" type="qcurve"/>
      <point x="670" y="739"/>
      <point x="677" y="695"/>
      <point x="695" y="660"/>
      <point x="722" y="639"/>
      <point x="743" y="639" type="qcurve"/>
      <point x="761" y="639"/>
      <point x="791" y="654"/>
      <point x="814" y="680"/>
      <point x="827" y="717"/>
      <point x="827" y="740" type="qcurve"/>
      <point x="908" y="788" type="line"/>
      <point x="910" y="777"/>
      <point x="914" y="743"/>
      <point x="914" y="726" type="qcurve"/>
      <point x="914" y="678"/>
      <point x="888" y="595"/>
      <point x="844" y="533"/>
      <point x="785" y="498"/>
      <point x="751" y="498" type="qcurve"/>
      <point x="717" y="498"/>
      <point x="657" y="532"/>
      <point x="612" y="591"/>
      <point x="586" y="670"/>
      <point x="586" y="716" type="qcurve"/>
      <point x="586" y="730"/>
      <point x="590" y="747" type="qcurve"/>
      <point x="557" y="717" type="line"/>
      <point x="551" y="687"/>
      <point x="530" y="635"/>
      <point x="502" y="593"/>
      <point x="473" y="561"/>
      <point x="459" y="551" type="qcurve"/>
      <point x="489" y="536"/>
      <point x="543" y="495"/>
      <point x="584" y="432"/>
      <point x="609" y="342"/>
    </contour>
  </outline>
</glyph>
<glyph name="uni025E" format="2">
  <advance width="840"/>
  <unicode hex="025E"/>
  <guideline x="363" y="0" angle="80"/>
  <outline>
    <contour>
      <point x="458" y="1004" type="qcurve" name="at01"/>
      <point x="536" y="1004"/>
      <point x="662" y="963"/>
      <point x="750" y="887"/>
      <point x="798" y="779"/>
      <point x="798" y="713" type="qcurve" name="sh01"/>
      <point x="798" y="681"/>
      <point x="788" y="615"/>
      <point x="762" y="555"/>
      <point x="716" y="504"/>
      <point x="680" y="487" type="qcurve" name="sh02"/>
      <point x="716" y="469"/>
      <point x="762" y="417"/>
      <point x="788" y="357"/>
      <point x="798" y="291"/>
      <point x="798" y="260" type="qcurve" name="sh03"/>
      <point x="798" y="194"/>
      <point x="750" y="87"/>
      <point x="662" y="11"/>
      <point x="536" y="-30"/>
      <point x="458" y="-30" type="qcurve" name="ab01"/>
      <point x="382" y="-30"/>
      <point x="233" y="37"/>
      <point x="115" y="168"/>
      <point x="42" y="361"/>
      <point x="42" y="487" type="qcurve" name="sh04"/>
      <point x="42" y="612"/>
      <point x="115" y="805"/>
      <point x="233" y="936"/>
      <point x="382" y="1004"/>
    </contour>
    <contour>
      <point x="435" y="542" type="line"/>
      <point x="506" y="542" type="line" name="dv02"/>
      <point x="550" y="542"/>
      <point x="614" y="550"/>
      <point x="656" y="573"/>
      <point x="677" y="617"/>
      <point x="677" y="653" type="qcurve" name="ah01"/>
      <point x="677" y="709"/>
      <point x="570" y="752"/>
      <point x="458" y="752" type="qcurve" name="sv01"/>
      <point x="315" y="752"/>
      <point x="164" y="621"/>
      <point x="164" y="487" type="qcurve" name="sh05"/>
      <point x="164" y="353"/>
      <point x="315" y="222"/>
      <point x="458" y="222" type="qcurve" name="sv02"/>
      <point x="569" y="222"/>
      <point x="677" y="264"/>
      <point x="677" y="320" type="qcurve" name="sh06"/>
      <point x="677" y="354"/>
      <point x="656" y="397"/>
      <point x="614" y="421"/>
      <point x="550" y="430"/>
      <point x="506" y="430" type="qcurve" name="dv01"/>
      <point x="420" y="430" type="line"/>
    </contour>
  </outline>
</glyph>
<glyph name="uni0260" format="2">
  <advance width="840"/>
  <unicode hex="0260"/>
  <guideline x="0" y="944" angle="0"/>
  <guideline x="0" y="921" angle="0"/>
  <guideline x="236" y="0" angle="80"/>
  <outline>
    <contour>
      <point x="393" y="1004" type="qcurve" name="at01"/>
      <point x="421" y="1004"/>
      <point x="472" y="988"/>
      <point x="513" y="966"/>
      <point x="545" y="941"/>
      <point x="554" y="931" type="qcurve" name="ah01"/>
      <point x="554" y="1010"/>
      <point x="596" y="1134"/>
      <point x="677" y="1220"/>
      <point x="793" y="1265"/>
      <point x="866" y="1265" type="qcurve" name="av01"/>
      <point x="851" y="1153" type="line"/>
      <point x="827" y="1153"/>
      <point x="794" y="1137"/>
      <point x="774" y="1098"/>
      <point x="765" y="1035"/>
      <point x="765" y="987" type="qcurve" name="sh01"/>
      <point x="765" y="49" type="line"/>
      <point x="765" y="-80"/>
      <point x="713" y="-271"/>
      <point x="616" y="-398"/>
      <point x="481" y="-460"/>
      <point x="398" y="-460" type="qcurve" name="ab01"/>
      <point x="175" y="-460" type="line"/>
      <point x="192" y="-328" type="line" name="sv02"/>
      <point x="391" y="-328" type="line"/>
      <point x="425" y="-328"/>
      <point x="485" y="-309"/>
      <point x="529" y="-248"/>
      <point x="554" y="-135"/>
      <point x="554" y="-40" type="qcurve" name="sh02"/>
      <point x="554" y="80" type="line" name="ih01"/>
      <point x="522" y="42"/>
      <point x="437" y="0"/>
      <point x="392" y="0" type="qcurve" name="ab02"/>
      <point x="320" y="0"/>
      <point x="192" y="61"/>
      <point x="97" y="183"/>
      <point x="42" y="365"/>
      <point x="42" y="487" type="qcurve" name="sh03"/>
      <point x="42" y="602"/>
      <point x="95" y="792"/>
      <point x="190" y="929"/>
      <point x="318" y="1004"/>
    </contour>
    <contour>
      <point x="554" y="821" type="line" name="sh04"/>
      <point x="534" y="852"/>
      <point x="474" y="892"/>
      <point x="429" y="892" type="qcurve" name="sv01"/>
      <point x="392" y="892"/>
      <point x="330" y="834"/>
      <point x="286" y="728"/>
      <point x="261" y="578"/>
      <point x="261" y="487" type="qcurve" name="sh05"/>
      <point x="261" y="386"/>
      <point x="290" y="244"/>
      <point x="338" y="154"/>
      <point x="398" y="112"/>
      <point x="429" y="112" type="qcurve" name="sv03"/>
      <point x="475" y="112"/>
      <point x="534" y="153"/>
      <point x="554" y="182" type="qcurve"/>
    </contour>
  </outline>
</glyph>
<glyph name="uni0262" format="2">
  <advance width="840"/>
  <unicode hex="0262"/>
  <outline>
    <contour>
      <point x="698" y="740" type="line"/>
      <point x="683" y="767"/>
      <point x="644" y="821"/>
      <point x="593" y="865"/>
      <point x="531" y="892"/>
      <point x="492" y="892" type="qcurve"/>
      <point x="440" y="892"/>
      <point x="358" y="839"/>
      <point x="300" y="736"/>
      <point x="269" y="585"/>
      <point x="269" y="487" type="qcurve"/>
      <point x="269" y="397"/>
      <point x="299" y="247"/>
      <point x="353" y="141"/>
      <point x="427" y="82"/>
      <point x="470" y="82" type="qcurve"/>
      <point x="490" y="82"/>
      <point x="521" y="89"/>
      <point x="544" y="101"/>
      <point x="563" y="117"/>
      <point x="572" y="126" type="qcurve"/>
      <point x="572" y="376" type="line"/>
      <point x="427" y="376" type="line"/>
      <point x="442" y="488" type="line"/>
      <point x="783" y="488" type="line"/>
      <point x="783" y="142" type="line"/>
      <point x="752" y="110"/>
      <point x="686" y="48"/>
      <point x="605" y="0"/>
      <point x="506" y="-30"/>
      <point x="443" y="-30" type="qcurve"/>
      <point x="350" y="-30"/>
      <point x="205" y="47"/>
      <point x="104" y="185"/>
      <point x="50" y="374"/>
      <point x="50" y="487" type="qcurve"/>
      <point x="50" y="603"/>
      <point x="110" y="794"/>
      <point x="221" y="930"/>
      <point x="380" y="1004"/>
      <point x="477" y="1004" type="qcurve"/>
      <point x="531" y="1004"/>
      <point x="623" y="980"/>
      <point x="698" y="939"/>
      <point x="759" y="883"/>
      <point x="783" y="852" type="qcurve"/>
    </contour>
  </outline>
</glyph>
<glyph name="uni0263" format="2">
  <advance width="768"/>
  <unicode hex="0263"/>
  <outline>
    <contour>
      <point x="249" y="1004" type="line"/>
      <point x="440" y="459" type="line"/>
      <point x="629" y="1004" type="line"/>
      <point x="736" y="974" type="line"/>
      <point x="497" y="291" type="line"/>
      <point x="529" y="202"/>
      <point x="584" y="44"/>
      <point x="624" y="-87"/>
      <point x="647" y="-187"/>
      <point x="647" y="-217" type="qcurve"/>
      <point x="647" y="-273"/>
      <point x="617" y="-372"/>
      <point x="560" y="-447"/>
      <point x="479" y="-490"/>
      <point x="428" y="-490" type="qcurve"/>
      <point x="376" y="-490"/>
      <point x="302" y="-448"/>
      <point x="255" y="-377"/>
      <point x="233" y="-284"/>
      <point x="233" y="-232" type="qcurve"/>
      <point x="233" y="-212"/>
      <point x="239" y="-157"/>
      <point x="259" y="-73"/>
      <point x="296" y="46"/>
      <point x="326" y="130" type="qcurve"/>
      <point x="32" y="974" type="line"/>
    </contour>
    <contour>
      <point x="383" y="-34" type="qcurve"/>
      <point x="367" y="-80"/>
      <point x="345" y="-149"/>
      <point x="331" y="-203"/>
      <point x="325" y="-246"/>
      <point x="325" y="-265" type="qcurve"/>
      <point x="325" y="-289"/>
      <point x="338" y="-331"/>
      <point x="359" y="-361"/>
      <point x="386" y="-378"/>
      <point x="401" y="-378" type="qcurve"/>
      <point x="426" y="-378"/>
      <point x="466" y="-335"/>
      <point x="466" y="-286" type="qcurve"/>
      <point x="466" y="-268"/>
      <point x="456" y="-230"/>
      <point x="436" y="-176"/>
      <point x="404" y="-96"/>
    </contour>
  </outline>
</glyph>
<glyph name="uni026D" format="2">
  <advance width="432"/>
  <unicode hex="026D"/>
  <outline>
    <contour>
      <point x="313" y="1494" type="line"/>
      <point x="313" y="-191" type="line"/>
      <point x="313" y="-239"/>
      <point x="326" y="-309"/>
      <point x="358" y="-356"/>
      <point x="409" y="-378"/>
      <point x="447" y="-378" type="qcurve"/>
      <point x="432" y="-490" type="line"/>
      <point x="326" y="-490"/>
      <point x="196" y="-447"/>
      <point x="125" y="-357"/>
      <point x="101" y="-216"/>
      <point x="101" y="-118" type="qcurve"/>
      <point x="101" y="1464" type="line"/>
      <point x="268" y="1494" type="line"/>
    </contour>
  </outline>
</glyph>
<glyph name="uni026E" format="2">
  <advance width="936"/>
  <unicode hex="026E"/>
  <outline>
    <contour>
      <point x="326" y="-226" type="line"/>
      <point x="338" y="-253"/>
      <point x="370" y="-307"/>
      <point x="411" y="-351"/>
      <point x="464" y="-378"/>
      <point x="497" y="-378" type="qcurve"/>
      <point x="534" y="-378"/>
      <point x="600" y="-322"/>
      <point x="650" y="-217"/>
      <point x="678" y="-67"/>
      <point x="678" y="27" type="qcurve"/>
      <point x="678" y="121"/>
      <point x="650" y="271"/>
      <point x="600" y="376"/>
      <point x="534" y="432"/>
      <point x="497" y="432" type="qcurve"/>
      <point x="459" y="432"/>
      <point x="407" y="421"/>
      <point x="383" y="407" type="qcurve"/>
      <point x="383" y="468" type="line"/>
      <point x="589" y="862" type="line"/>
      <point x="287" y="835" type="line"/>
      <point x="287" y="154" type="line"/>
      <point x="287" y="140"/>
      <point x="290" y="114"/>
      <point x="302" y="94"/>
      <point x="323" y="82"/>
      <point x="341" y="82" type="qcurve"/>
      <point x="326" y="-30" type="line"/>
      <point x="259" y="-30"/>
      <point x="164" y="2"/>
      <point x="104" y="69"/>
      <point x="75" y="173"/>
      <point x="75" y="245" type="qcurve"/>
      <point x="75" y="1464" type="line"/>
      <point x="242" y="1494" type="line"/>
      <point x="287" y="1494" type="line"/>
      <point x="287" y="974" type="line"/>
      <point x="843" y="974" type="line"/>
      <point x="843" y="914" type="line"/>
      <point x="633" y="524" type="line"/>
      <point x="695" y="501"/>
      <point x="792" y="410"/>
      <point x="860" y="281"/>
      <point x="897" y="120"/>
      <point x="897" y="27" type="qcurve"/>
      <point x="897" y="-86"/>
      <point x="844" y="-275"/>
      <point x="745" y="-413"/>
      <point x="605" y="-490"/>
      <point x="519" y="-490" type="qcurve"/>
      <point x="465" y="-490"/>
      <point x="380" y="-466"/>
      <point x="314" y="-425"/>
      <point x="262" y="-370"/>
      <point x="241" y="-338" type="qcurve"/>
    </contour>
  </outline>
</glyph>
<glyph name="uni0270" format="2">
  <advance width="1248"/>
  <unicode hex="0270"/>
  <outline>
    <contour>
      <point x="512" y="974" type="line" name="dh03"/>
      <point x="679" y="1004" type="line" name="at01"/>
      <point x="724" y="1004" type="line" name="dh04"/>
      <point x="724" y="233" type="line"/>
      <point x="724" y="191"/>
      <point x="740" y="134"/>
      <point x="765" y="98"/>
      <point x="796" y="82"/>
      <point x="811" y="82" type="qcurve" name="sv01"/>
      <point x="830" y="82"/>
      <point x="868" y="102"/>
      <point x="905" y="136"/>
      <point x="937" y="180"/>
      <point x="950" y="204" type="qcurve" name="sh01"/>
      <point x="950" y="974" type="line"/>
      <point x="1116" y="1004" type="line" name="at02"/>
      <point x="1161" y="1004" type="line"/>
      <point x="1161" y="-460" type="line" name="dh06"/>
      <point x="995" y="-490" type="line" name="ab01"/>
      <point x="950" y="-490" type="line" name="dh05"/>
      <point x="950" y="81" type="line" name="iv01"/>
      <point x="932" y="58"/>
      <point x="889" y="18"/>
      <point x="840" y="-12"/>
      <point x="787" y="-30"/>
      <point x="759" y="-30" type="qcurve" name="ab02"/>
      <point x="684" y="-30"/>
      <point x="575" y="50"/>
      <point x="545" y="122" type="qcurve" name="ih01"/>
      <point x="523" y="92"/>
      <point x="475" y="37"/>
      <point x="421" y="-5"/>
      <point x="358" y="-30"/>
      <point x="322" y="-30" type="qcurve" name="ab03"/>
      <point x="275" y="-30"/>
      <point x="185" y="7"/>
      <point x="117" y="83"/>
      <point x="75" y="197"/>
      <point x="75" y="275" type="qcurve" name="dh01"/>
      <point x="75" y="801" type="line"/>
      <point x="75" y="849"/>
      <point x="54" y="892"/>
      <point x="21" y="892" type="qcurve"/>
      <point x="36" y="1004" type="line" name="at03"/>
      <point x="165" y="1004"/>
      <point x="287" y="864"/>
      <point x="287" y="727" type="qcurve"/>
      <point x="287" y="234" type="line" name="dh02"/>
      <point x="287" y="192"/>
      <point x="302" y="134"/>
      <point x="328" y="98"/>
      <point x="359" y="82"/>
      <point x="374" y="82" type="qcurve" name="sv02"/>
      <point x="394" y="82"/>
      <point x="432" y="103"/>
      <point x="468" y="137"/>
      <point x="500" y="182"/>
      <point x="512" y="205" type="qcurve"/>
    </contour>
  </outline>
</glyph>
<glyph name="uni0272" format="2">
  <advance width="840"/>
  <unicode hex="0272"/>
  <outline>
    <contour>
      <point x="75" y="944" type="line" name="sh01"/>
      <point x="242" y="974" type="line" name="at01"/>
      <point x="287" y="974" type="line" name="sh02"/>
      <point x="287" y="892" type="line" name="iv01"/>
      <point x="306" y="914"/>
      <point x="354" y="955"/>
      <point x="408" y="986"/>
      <point x="465" y="1004"/>
      <point x="494" y="1004" type="qcurve" name="at02"/>
      <point x="555" y="1004"/>
      <point x="653" y="960"/>
      <point x="722" y="877"/>
      <point x="759" y="756"/>
      <point x="759" y="680" type="qcurve"/>
      <point x="759" y="172" type="line" name="sh03"/>
      <point x="759" y="124"/>
      <point x="780" y="82"/>
      <point x="813" y="82" type="qcurve"/>
      <point x="798" y="-30" type="line" name="ab02"/>
      <point x="727" y="-30"/>
      <point x="631" y="12"/>
      <point x="572" y="86"/>
      <point x="548" y="187"/>
      <point x="548" y="247" type="qcurve" name="ah01"/>
      <point x="548" y="724" type="line"/>
      <point x="548" y="802"/>
      <point x="498" y="892"/>
      <point x="448" y="892" type="qcurve" name="sv01"/>
      <point x="423" y="892"/>
      <point x="374" y="868"/>
      <point x="331" y="832"/>
      <point x="296" y="789"/>
      <point x="287" y="770" type="qcurve" name="sh04"/>
      <point x="287" y="-76" type="line"/>
      <point x="287" y="-198"/>
      <point x="254" y="-358"/>
      <point x="179" y="-452"/>
      <point x="60" y="-490"/>
      <point x="-26" y="-490" type="qcurve" name="ab01"/>
      <point x="-11" y="-378" type="line"/>
      <point x="14" y="-378"/>
      <point x="47" y="-363"/>
      <point x="67" y="-322"/>
      <point x="75" y="-249"/>
      <point x="75" y="-191" type="qcurve"/>
    </contour>
  </outline>
</glyph>
<glyph name="uni0273" format="2">
  <advance width="840"/>
  <unicode hex="0273"/>
  <outline>
    <contour>
      <point x="759" y="680" type="qcurve" name="hr00"/>
      <point x="759" y="-221" type="line" name="sh01"/>
      <point x="759" y="-269"/>
      <point x="773" y="-330" name="hr01"/>
      <point x="799" y="-365"/>
      <point x="836" y="-378"/>
      <point x="860" y="-378" type="qcurve"/>
      <point x="845" y="-490" type="line" name="ab01"/>
      <point x="751" y="-490"/>
      <point x="634" y="-429" name="hr02"/>
      <point x="569" y="-320"/>
      <point x="548" y="-168"/>
      <point x="548" y="-78" type="qcurve" name="ah01"/>
      <point x="548" y="724" type="line"/>
      <point x="548" y="802"/>
      <point x="498" y="892"/>
      <point x="448" y="892" type="qcurve" name="sv01"/>
      <point x="423" y="892"/>
      <point x="374" y="868"/>
      <point x="331" y="832"/>
      <point x="296" y="789"/>
      <point x="287" y="770" type="qcurve"/>
      <point x="287" y="0" type="line" name="sh03"/>
      <point x="75" y="0" type="line" name="sh02"/>
      <point x="75" y="944" type="line"/>
      <point x="242" y="974" type="line" name="at01"/>
      <point x="287" y="974" type="line" name="sh04"/>
      <point x="287" y="892" type="line" name="ih01"/>
      <point x="306" y="914"/>
      <point x="354" y="955"/>
      <point x="408" y="986"/>
      <point x="465" y="1004"/>
      <point x="494" y="1004" type="qcurve" name="at02"/>
      <point x="555" y="1004"/>
      <point x="653" y="960"/>
      <point x="722" y="877"/>
      <point x="759" y="757"/>
    </contour>
  </outline>
</glyph>
<glyph name="uni0275" format="2">
  <advance width="840"/>
  <unicode hex="0275"/>
  <outline>
    <contour>
      <point x="420" y="1004" type="qcurve" name="at01"/>
      <point x="508" y="1004"/>
      <point x="648" y="927"/>
      <point x="746" y="789"/>
      <point x="798" y="599"/>
      <point x="798" y="487" type="qcurve" name="sh01"/>
      <point x="798" y="374"/>
      <point x="746" y="185"/>
      <point x="648" y="47"/>
      <point x="508" y="-30"/>
      <point x="420" y="-30" type="qcurve" name="ab01"/>
      <point x="332" y="-30"/>
      <point x="192" y="47"/>
      <point x="95" y="185"/>
      <point x="42" y="374"/>
      <point x="42" y="487" type="qcurve" name="sh02"/>
      <point x="42" y="599"/>
      <point x="95" y="789"/>
      <point x="192" y="927"/>
      <point x="332" y="1004"/>
    </contour>
    <contour>
      <point x="420" y="82" type="qcurve" name="sv01"/>
      <point x="456" y="82"/>
      <point x="512" y="130"/>
      <point x="552" y="220"/>
      <point x="575" y="349"/>
      <point x="578" y="431" type="qcurve" name="ah01"/>
      <point x="262" y="431" type="line" name="sh03"/>
      <point x="265" y="349"/>
      <point x="287" y="220"/>
      <point x="327" y="130"/>
      <point x="384" y="82"/>
    </contour>
    <contour>
      <point x="420" y="892" type="qcurve" name="sv02"/>
      <point x="384" y="892"/>
      <point x="327" y="844"/>
      <point x="287" y="754"/>
      <point x="265" y="625"/>
      <point x="262" y="543" type="qcurve" name="sh04"/>
      <point x="578" y="543" type="line" name="sh05"/>
      <point x="575" y="625"/>
      <point x="552" y="754"/>
      <point x="512" y="844"/>
      <point x="456" y="892"/>
    </contour>
  </outline>
</glyph>
<glyph name="uni0276" format="2">
  <advance width="1008"/>
  <unicode hex="0276"/>
  <guideline x="833" y="0" angle="80"/>
  <outline>
    <contour>
      <point x="420" y="-30" type="qcurve" name="ab02"/>
      <point x="332" y="-30"/>
      <point x="192" y="47"/>
      <point x="95" y="185"/>
      <point x="42" y="374"/>
      <point x="42" y="487" type="qcurve" name="sh01"/>
      <point x="42" y="599"/>
      <point x="95" y="789" name="hr00"/>
      <point x="192" y="927"/>
      <point x="332" y="1004"/>
      <point x="420" y="1004" type="qcurve" name="at01"/>
      <point x="458" y="1004"/>
      <point x="529" y="988"/>
      <point x="560" y="974" type="qcurve" name="at02"/>
      <point x="962" y="974" type="line"/>
      <point x="943" y="835" type="line"/>
      <point x="684" y="862" type="line" name="sh03"/>
      <point x="684" y="599" type="line" name="dv02"/>
      <point x="912" y="599" type="line"/>
      <point x="897" y="487" type="line" name="sv01"/>
      <point x="684" y="487" type="line" name="dv01"/>
      <point x="684" y="112" type="line" name="sh02"/>
      <point x="962" y="141" type="line"/>
      <point x="944" y="0" type="line" name="ab01"/>
      <point x="560" y="0" type="line"/>
      <point x="529" y="-14"/>
      <point x="458" y="-30"/>
    </contour>
    <contour>
      <point x="420" y="892" type="qcurve" name="sv02"/>
      <point x="381" y="892"/>
      <point x="322" y="836"/>
      <point x="281" y="731"/>
      <point x="261" y="581"/>
      <point x="261" y="487" type="qcurve" name="sh04"/>
      <point x="261" y="393"/>
      <point x="281" y="243"/>
      <point x="322" y="138"/>
      <point x="381" y="82"/>
      <point x="420" y="82" type="qcurve" name="sv03"/>
      <point x="449" y="82"/>
      <point x="473" y="97" type="qcurve" name="ah01"/>
      <point x="473" y="876" type="line"/>
      <point x="461" y="884"/>
      <point x="435" y="892"/>
    </contour>
  </outline>
</glyph>
<glyph name="uni027E" format="2">
  <advance width="432"/>
  <unicode hex="027E"/>
  <outline>
    <contour>
      <point x="110" y="0" type="line" name="dh01"/>
      <point x="110" y="590" type="line"/>
      <point x="110" y="716"/>
      <point x="146" y="876"/>
      <point x="221" y="969"/>
      <point x="340" y="1004"/>
      <point x="423" y="1004" type="qcurve" name="at01"/>
      <point x="408" y="892" type="line"/>
      <point x="383" y="892"/>
      <point x="350" y="877"/>
      <point x="330" y="837"/>
      <point x="322" y="763"/>
      <point x="322" y="705" type="qcurve"/>
      <point x="322" y="0" type="line" name="dh02"/>
    </contour>
  </outline>
</glyph>
<glyph name="uni0284" format="2">
  <advance width="552"/>
  <unicode hex="0284"/>
  <outline>
    <contour>
      <point x="501" y="139" type="line"/>
      <point x="482" y="0" type="line"/>
      <point x="382" y="0" type="line"/>
      <point x="382" y="-76" type="line"/>
      <point x="382" y="-202"/>
      <point x="347" y="-362"/>
      <point x="272" y="-455"/>
      <point x="152" y="-490"/>
      <point x="69" y="-490" type="qcurve"/>
      <point x="84" y="-378" type="line"/>
      <point x="109" y="-378"/>
      <point x="143" y="-363"/>
      <point x="162" y="-323"/>
      <point x="170" y="-250"/>
      <point x="170" y="-191" type="qcurve"/>
      <point x="170" y="0" type="line"/>
      <point x="51" y="0" type="line"/>
      <point x="65" y="109" type="line"/>
      <point x="170" y="116" type="line"/>
      <point x="170" y="1050" type="line"/>
      <point x="170" y="1176"/>
      <point x="206" y="1336"/>
      <point x="281" y="1429"/>
      <point x="400" y="1464"/>
      <point x="483" y="1464" type="qcurve"/>
      <point x="468" y="1352" type="line"/>
      <point x="443" y="1352"/>
      <point x="410" y="1337"/>
      <point x="390" y="1297"/>
      <point x="382" y="1223"/>
      <point x="382" y="1165" type="qcurve"/>
      <point x="382" y="130" type="line"/>
    </contour>
  </outline>
</glyph>
<glyph name="uni0286" format="2">
  <advance width="552"/>
  <unicode hex="0286"/>
  <outline>
    <contour>
      <point x="550" y="0" type="line"/>
      <point x="531" y="-139" type="line"/>
      <point x="430" y="-133" type="line"/>
      <point x="430" y="-217"/>
      <point x="387" y="-349"/>
      <point x="310" y="-441"/>
      <point x="202" y="-490"/>
      <point x="137" y="-490" type="qcurve"/>
      <point x="96" y="-490"/>
      <point x="31" y="-455"/>
      <point x="-14" y="-393"/>
      <point x="-38" y="-306"/>
      <point x="-38" y="-255" type="qcurve"/>
      <point x="-38" y="-203"/>
      <point x="-10" y="-110"/>
      <point x="47" y="-40"/>
      <point x="134" y="0"/>
      <point x="191" y="0" type="qcurve"/>
      <point x="218" y="0" type="line"/>
      <point x="218" y="1050" type="line"/>
      <point x="218" y="1176"/>
      <point x="254" y="1336"/>
      <point x="329" y="1429"/>
      <point x="448" y="1464"/>
      <point x="531" y="1464" type="qcurve"/>
      <point x="516" y="1352" type="line"/>
      <point x="491" y="1352"/>
      <point x="458" y="1337"/>
      <point x="438" y="1297"/>
      <point x="430" y="1223"/>
      <point x="430" y="1165" type="qcurve"/>
      <point x="430" y="0" type="line"/>
    </contour>
    <contour>
      <point x="218" y="-122" type="line"/>
      <point x="164" y="-118" type="line"/>
      <point x="142" y="-118"/>
      <point x="101" y="-133"/>
      <point x="67" y="-166"/>
      <point x="47" y="-218"/>
      <point x="47" y="-255" type="qcurve"/>
      <point x="47" y="-286"/>
      <point x="59" y="-332"/>
      <point x="81" y="-363"/>
      <point x="108" y="-378"/>
      <point x="122" y="-378" type="qcurve"/>
      <point x="139" y="-378"/>
      <point x="173" y="-361"/>
      <point x="201" y="-319"/>
      <point x="218" y="-249"/>
      <point x="218" y="-195" type="qcurve"/>
    </contour>
  </outline>
</glyph>
<glyph name="uni0287" format="2">
  <advance width="552"/>
  <unicode hex="0287"/>
  <guideline x="39" y="0" angle="90"/>
  <guideline x="487" y="0" angle="90"/>
  <outline>
    <contour>
      <point x="62" y="1464" type="line" name="at01"/>
      <point x="167" y="1464"/>
      <point x="298" y="1421"/>
      <point x="368" y="1331"/>
      <point x="392" y="1190"/>
      <point x="392" y="1092" type="qcurve" name="sh01"/>
      <point x="392" y="599" type="line" name="sv01"/>
      <point x="495" y="599" type="line"/>
      <point x="476" y="460" type="line"/>
      <point x="392" y="465" type="line"/>
      <point x="392" y="0" type="line" name="dh02"/>
      <point x="181" y="0" type="line" name="dh01"/>
      <point x="181" y="480" type="line" name="dv01"/>
      <point x="47" y="487" type="line"/>
      <point x="62" y="599" type="line"/>
      <point x="181" y="599" type="line" name="sh02"/>
      <point x="181" y="1165" type="line"/>
      <point x="181" y="1213"/>
      <point x="167" y="1283"/>
      <point x="136" y="1330"/>
      <point x="85" y="1352"/>
      <point x="47" y="1352" type="qcurve" name="sv02"/>
    </contour>
  </outline>
</glyph>
<glyph name="uni0289" format="2">
  <advance width="840"/>
  <unicode hex="0289"/>
  <outline>
    <contour>
      <point x="287" y="1004" type="line"/>
      <point x="287" y="599" type="line"/>
      <point x="548" y="599" type="line"/>
      <point x="548" y="974" type="line"/>
      <point x="714" y="1004" type="line"/>
      <point x="759" y="1004" type="line"/>
      <point x="759" y="599" type="line"/>
      <point x="828" y="599" type="line"/>
      <point x="813" y="487" type="line"/>
      <point x="759" y="487" type="line"/>
      <point x="759" y="165" type="line"/>
      <point x="759" y="117"/>
      <point x="782" y="82"/>
      <point x="813" y="82" type="qcurve"/>
      <point x="798" y="-30" type="line"/>
      <point x="748" y="-30"/>
      <point x="675" y="-11"/>
      <point x="623" y="21"/>
      <point x="590" y="61"/>
      <point x="580" y="82" type="qcurve"/>
      <point x="562" y="62"/>
      <point x="512" y="23"/>
      <point x="452" y="-10"/>
      <point x="383" y="-30"/>
      <point x="347" y="-30" type="qcurve"/>
      <point x="293" y="-30"/>
      <point x="194" y="6"/>
      <point x="119" y="85"/>
      <point x="75" y="210"/>
      <point x="75" y="298" type="qcurve"/>
      <point x="75" y="487" type="line"/>
      <point x="12" y="487" type="line"/>
      <point x="27" y="599" type="line"/>
      <point x="75" y="599" type="line"/>
      <point x="75" y="974" type="line"/>
      <point x="242" y="1004" type="line"/>
    </contour>
    <contour>
      <point x="296" y="169" type="qcurve"/>
      <point x="305" y="135"/>
      <point x="332" y="96"/>
      <point x="364" y="82"/>
      <point x="378" y="82" type="qcurve"/>
      <point x="405" y="82"/>
      <point x="455" y="103"/>
      <point x="499" y="137"/>
      <point x="535" y="183"/>
      <point x="548" y="208" type="qcurve"/>
      <point x="548" y="487" type="line"/>
      <point x="287" y="487" type="line"/>
      <point x="287" y="258" type="line"/>
      <point x="287" y="204"/>
    </contour>
  </outline>
</glyph>
<glyph name="uni028F" format="2">
  <advance width="720"/>
  <unicode hex="028F"/>
  <outline>
    <contour>
      <point x="229" y="1004" type="line"/>
      <point x="414" y="538" type="line"/>
      <point x="599" y="1004" type="line"/>
      <point x="705" y="974" type="line"/>
      <point x="466" y="373" type="line"/>
      <point x="466" y="0" type="line"/>
      <point x="254" y="0" type="line"/>
      <point x="254" y="373" type="line"/>
      <point x="15" y="974" type="line"/>
    </contour>
  </outline>
</glyph>
<glyph name="uni0291" format="2">
  <advance width="840"/>
  <unicode hex="0291"/>
  <outline>
    <contour>
      <point x="23" y="60" type="line"/>
      <point x="443" y="862" type="line"/>
      <point x="62" y="835" type="line"/>
      <point x="80" y="974" type="line"/>
      <point x="698" y="974" type="line"/>
      <point x="698" y="914" type="line"/>
      <point x="270" y="112" type="line"/>
      <point x="362" y="117" type="line"/>
      <point x="410" y="226"/>
      <point x="485" y="369"/>
      <point x="551" y="453"/>
      <point x="615" y="487"/>
      <point x="653" y="487" type="qcurve"/>
      <point x="677" y="487"/>
      <point x="730" y="462"/>
      <point x="773" y="411"/>
      <point x="801" y="332"/>
      <point x="801" y="277" type="qcurve"/>
      <point x="801" y="200"/>
      <point x="749" y="94"/>
      <point x="650" y="29"/>
      <point x="505" y="0"/>
      <point x="412" y="0" type="qcurve"/>
      <point x="322" y="-208" type="line"/>
      <point x="245" y="-151" type="line"/>
      <point x="311" y="0" type="line"/>
      <point x="23" y="0" type="line"/>
    </contour>
    <contour>
      <point x="467" y="126" type="qcurve"/>
      <point x="536" y="129"/>
      <point x="632" y="147"/>
      <point x="691" y="182"/>
      <point x="717" y="237"/>
      <point x="717" y="278" type="qcurve"/>
      <point x="717" y="320"/>
      <point x="681" y="375"/>
      <point x="647" y="375" type="qcurve"/>
      <point x="621" y="375"/>
      <point x="578" y="343"/>
      <point x="537" y="280"/>
      <point x="494" y="187"/>
    </contour>
  </outline>
</glyph>
<glyph name="uni0295" format="2">
  <advance width="768"/>
  <unicode hex="0295"/>
  <outline>
    <contour>
      <point x="525" y="0" type="line" name="sh01"/>
      <point x="314" y="0" type="line" name="ah01"/>
      <point x="314" y="548" type="line"/>
      <point x="252" y="568"/>
      <point x="155" y="651"/>
      <point x="86" y="768"/>
      <point x="50" y="914"/>
      <point x="50" y="997" type="qcurve" name="sh02"/>
      <point x="50" y="1098"/>
      <point x="103" y="1269"/>
      <point x="202" y="1394"/>
      <point x="341" y="1464"/>
      <point x="428" y="1464" type="qcurve" name="at01"/>
      <point x="482" y="1464"/>
      <point x="566" y="1440"/>
      <point x="633" y="1399"/>
      <point x="685" y="1343"/>
      <point x="706" y="1312" type="qcurve"/>
      <point x="621" y="1200" type="line" name="iv01"/>
      <point x="608" y="1227"/>
      <point x="577" y="1281"/>
      <point x="536" y="1325"/>
      <point x="483" y="1352"/>
      <point x="450" y="1352" type="qcurve" name="sv01"/>
      <point x="413" y="1352"/>
      <point x="347" y="1303"/>
      <point x="297" y="1212"/>
      <point x="269" y="1080"/>
      <point x="269" y="997" type="qcurve" name="sh03"/>
      <point x="269" y="927"/>
      <point x="296" y="814"/>
      <point x="343" y="734"/>
      <point x="407" y="690"/>
      <point x="443" y="690" type="qcurve"/>
      <point x="525" y="690" type="line"/>
    </contour>
  </outline>
</glyph>
<glyph name="uni0296" format="2">
  <advance width="768"/>
  <unicode hex="0296"/>
  <outline>
    <contour>
      <point x="230" y="1434" type="line"/>
      <point x="442" y="1434" type="line"/>
      <point x="442" y="886" type="line"/>
      <point x="503" y="866"/>
      <point x="601" y="783"/>
      <point x="669" y="666"/>
      <point x="706" y="520"/>
      <point x="706" y="437" type="qcurve"/>
      <point x="706" y="336"/>
      <point x="653" y="164"/>
      <point x="554" y="40"/>
      <point x="414" y="-30"/>
      <point x="328" y="-30" type="qcurve"/>
      <point x="274" y="-30"/>
      <point x="189" y="-6"/>
      <point x="122" y="35"/>
      <point x="71" y="90"/>
      <point x="50" y="122" type="qcurve"/>
      <point x="134" y="234" type="line"/>
      <point x="147" y="207"/>
      <point x="179" y="153"/>
      <point x="220" y="109"/>
      <point x="272" y="82"/>
      <point x="305" y="82" type="qcurve"/>
      <point x="343" y="82"/>
      <point x="409" y="131"/>
      <point x="458" y="222"/>
      <point x="487" y="354"/>
      <point x="487" y="437" type="qcurve"/>
      <point x="487" y="507"/>
      <point x="459" y="620"/>
      <point x="412" y="700"/>
      <point x="349" y="744"/>
      <point x="313" y="744" type="qcurve"/>
      <point x="230" y="744" type="line"/>
    </contour>
  </outline>
</glyph>
<glyph name="uni029A" format="2">
  <advance width="840"/>
  <unicode hex="029A"/>
  <outline>
    <contour>
      <point x="383" y="1004" type="qcurve"/>
      <point x="458" y="1004"/>
      <point x="608" y="936"/>
      <point x="725" y="805"/>
      <point x="798" y="612"/>
      <point x="798" y="487" type="qcurve"/>
      <point x="798" y="361"/>
      <point x="725" y="168"/>
      <point x="608" y="37"/>
      <point x="458" y="-30"/>
      <point x="383" y="-30" type="qcurve"/>
      <point x="305" y="-30"/>
      <point x="179" y="11"/>
      <point x="90" y="87"/>
      <point x="42" y="194"/>
      <point x="42" y="260" type="qcurve"/>
      <point x="42" y="291"/>
      <point x="52" y="357"/>
      <point x="78" y="417"/>
      <point x="125" y="469"/>
      <point x="161" y="487" type="qcurve"/>
      <point x="124" y="504"/>
      <point x="78" y="555"/>
      <point x="52" y="615"/>
      <point x="42" y="681"/>
      <point x="42" y="713" type="qcurve"/>
      <point x="42" y="779"/>
      <point x="90" y="887"/>
      <point x="179" y="963"/>
      <point x="305" y="1004"/>
    </contour>
    <contour>
      <point x="420" y="430" type="line"/>
      <point x="334" y="430" type="line"/>
      <point x="290" y="430"/>
      <point x="221" y="418"/>
      <point x="174" y="390"/>
      <point x="149" y="344"/>
      <point x="149" y="310" type="qcurve"/>
      <point x="149" y="246"/>
      <point x="260" y="182"/>
      <point x="383" y="182" type="qcurve"/>
      <point x="454" y="182"/>
      <point x="568" y="219"/>
      <point x="648" y="294"/>
      <point x="692" y="409"/>
      <point x="692" y="487" type="qcurve"/>
      <point x="692" y="565"/>
      <point x="648" y="680"/>
      <point x="568" y="755"/>
      <point x="454" y="792"/>
      <point x="383" y="792" type="qcurve"/>
      <point x="260" y="792"/>
      <point x="149" y="726"/>
      <point x="149" y="663" type="qcurve"/>
      <point x="149" y="627"/>
      <point x="174" y="580"/>
      <point x="221" y="553"/>
      <point x="290" y="542"/>
      <point x="334" y="542" type="qcurve"/>
      <point x="420" y="542" type="line"/>
    </contour>
  </outline>
</glyph>
<glyph name="uni02A1" format="2">
  <advance width="768"/>
  <unicode hex="02A1"/>
  <outline>
    <contour>
      <point x="544" y="375" type="line"/>
      <point x="525" y="236" type="line"/>
      <point x="442" y="241" type="line"/>
      <point x="442" y="0" type="line"/>
      <point x="230" y="0" type="line"/>
      <point x="230" y="256" type="line"/>
      <point x="128" y="263" type="line"/>
      <point x="143" y="375" type="line"/>
      <point x="230" y="375" type="line"/>
      <point x="230" y="690" type="line"/>
      <point x="313" y="690" type="line"/>
      <point x="349" y="690"/>
      <point x="412" y="734"/>
      <point x="459" y="814"/>
      <point x="487" y="927"/>
      <point x="487" y="997" type="qcurve"/>
      <point x="487" y="1080"/>
      <point x="458" y="1212"/>
      <point x="409" y="1303"/>
      <point x="343" y="1352"/>
      <point x="305" y="1352" type="qcurve"/>
      <point x="272" y="1352"/>
      <point x="220" y="1325"/>
      <point x="179" y="1281"/>
      <point x="147" y="1227"/>
      <point x="134" y="1200" type="qcurve"/>
      <point x="50" y="1312" type="line"/>
      <point x="71" y="1343"/>
      <point x="122" y="1399"/>
      <point x="189" y="1440"/>
      <point x="274" y="1464"/>
      <point x="328" y="1464" type="qcurve"/>
      <point x="414" y="1464"/>
      <point x="554" y="1394"/>
      <point x="653" y="1269"/>
      <point x="706" y="1098"/>
      <point x="706" y="997" type="qcurve"/>
      <point x="706" y="914"/>
      <point x="669" y="768"/>
      <point x="601" y="651"/>
      <point x="503" y="568"/>
      <point x="442" y="548" type="qcurve"/>
      <point x="442" y="375" type="line"/>
    </contour>
  </outline>
</glyph>
<glyph name="uni02A2" format="2">
  <advance width="768"/>
  <unicode hex="02A2"/>
  <outline>
    <contour>
      <point x="525" y="0" type="line"/>
      <point x="314" y="0" type="line"/>
      <point x="314" y="256" type="line"/>
      <point x="212" y="263" type="line"/>
      <point x="227" y="375" type="line"/>
      <point x="314" y="375" type="line"/>
      <point x="314" y="548" type="line"/>
      <point x="252" y="568"/>
      <point x="155" y="651"/>
      <point x="86" y="768"/>
      <point x="50" y="914"/>
      <point x="50" y="997" type="qcurve"/>
      <point x="50" y="1098"/>
      <point x="103" y="1269"/>
      <point x="202" y="1394"/>
      <point x="341" y="1464"/>
      <point x="428" y="1464" type="qcurve"/>
      <point x="482" y="1464"/>
      <point x="566" y="1440"/>
      <point x="633" y="1399"/>
      <point x="685" y="1343"/>
      <point x="706" y="1312" type="qcurve"/>
      <point x="621" y="1200" type="line"/>
      <point x="608" y="1227"/>
      <point x="577" y="1281"/>
      <point x="536" y="1325"/>
      <point x="483" y="1352"/>
      <point x="450" y="1352" type="qcurve"/>
      <point x="413" y="1352"/>
      <point x="347" y="1303"/>
      <point x="297" y="1212"/>
      <point x="269" y="1080"/>
      <point x="269" y="997" type="qcurve"/>
      <point x="269" y="927"/>
      <point x="296" y="814"/>
      <point x="343" y="734"/>
      <point x="407" y="690"/>
      <point x="443" y="690" type="qcurve"/>
      <point x="525" y="690" type="line"/>
      <point x="525" y="375" type="line"/>
      <point x="627" y="375" type="line"/>
      <point x="608" y="236" type="line"/>
      <point x="525" y="241" type="line"/>
    </contour>
  </outline>
</glyph>
<glyph name="uni02A6" format="2">
  <advance width="936"/>
  <unicode hex="02A6"/>
  <outline>
    <contour>
      <point x="338" y="1322" type="line" name="sh01"/>
      <point x="338" y="1004" type="line" name="at01"/>
      <point x="624" y="1004" type="line"/>
      <point x="674" y="1004"/>
      <point x="756" y="983"/>
      <point x="824" y="944"/>
      <point x="881" y="888"/>
      <point x="908" y="852" type="qcurve"/>
      <point x="822" y="740" type="line" name="ih01"/>
      <point x="790" y="819"/>
      <point x="704" y="892"/>
      <point x="656" y="892" type="qcurve" name="sv01"/>
      <point x="641" y="892"/>
      <point x="610" y="875"/>
      <point x="584" y="840"/>
      <point x="566" y="788"/>
      <point x="566" y="753" type="qcurve" name="dh04"/>
      <point x="566" y="722"/>
      <point x="587" y="673"/>
      <point x="620" y="635"/>
      <point x="658" y="607"/>
      <point x="676" y="598" type="qcurve"/>
      <point x="797" y="538"/>
      <point x="912" y="378"/>
      <point x="912" y="260" type="qcurve" name="dh06"/>
      <point x="912" y="192"/>
      <point x="866" y="85"/>
      <point x="787" y="10"/>
      <point x="683" y="-30"/>
      <point x="625" y="-30" type="qcurve" name="ab01"/>
      <point x="457" y="-30" type="line"/>
      <point x="351" y="-30"/>
      <point x="221" y="13"/>
      <point x="150" y="103"/>
      <point x="126" y="244"/>
      <point x="126" y="342" type="qcurve" name="dh01"/>
      <point x="126" y="885" type="line" name="sv02"/>
      <point x="24" y="892" type="line" name="sv03"/>
      <point x="39" y="1004" type="line" name="at02"/>
      <point x="126" y="1004" type="line" name="sh02"/>
      <point x="126" y="1292" type="line"/>
      <point x="293" y="1322" type="line"/>
    </contour>
    <contour>
      <point x="338" y="269" type="line" name="dh02"/>
      <point x="338" y="222"/>
      <point x="350" y="152"/>
      <point x="380" y="105"/>
      <point x="428" y="82"/>
      <point x="464" y="82" type="qcurve" name="sv04"/>
      <point x="590" y="82" type="line"/>
      <point x="613" y="82"/>
      <point x="661" y="101"/>
      <point x="699" y="140"/>
      <point x="723" y="201"/>
      <point x="723" y="242" type="qcurve" name="dh05"/>
      <point x="723" y="300"/>
      <point x="653" y="377"/>
      <point x="582" y="412" type="qcurve"/>
      <point x="545" y="430"/>
      <point x="474" y="488"/>
      <point x="419" y="569"/>
      <point x="385" y="672"/>
      <point x="385" y="735" type="qcurve" name="dh03"/>
      <point x="385" y="764"/>
      <point x="396" y="840"/>
      <point x="411" y="869" type="qcurve" name="ih02"/>
      <point x="338" y="873" type="line" name="sv05"/>
    </contour>
  </outline>
</glyph>
<glyph name="uni02AB" format="2">
  <advance width="840"/>
  <unicode hex="02AB"/>
  <outline>
    <contour>
      <point x="92" y="1464" type="line" name="dh01"/>
      <point x="258" y="1494" type="line" name="av01"/>
      <point x="303" y="1494" type="line" name="dh02"/>
      <point x="303" y="974" type="line"/>
      <point x="818" y="974" type="line"/>
      <point x="818" y="914" type="line"/>
      <point x="390" y="112" type="line"/>
      <point x="817" y="141" type="line"/>
      <point x="799" y="0" type="line"/>
      <point x="195" y="0" type="line"/>
      <point x="164" y="19"/>
      <point x="125" y="70"/>
      <point x="101" y="131"/>
      <point x="92" y="203"/>
      <point x="92" y="245" type="qcurve"/>
    </contour>
    <contour>
      <point x="563" y="862" type="line"/>
      <point x="303" y="843" type="line" name="sh01"/>
      <point x="303" y="366" type="line"/>
    </contour>
  </outline>
</glyph>
<glyph name="uni02AC" format="2">
  <advance width="720"/>
  <unicode hex="02AC"/>
  <outline>
    <contour>
      <point x="439" y="602" type="line" name="hr00"/>
      <point x="519" y="221" type="line" name="iv01"/>
      <point x="600" y="602" type="line"/>
      <point x="664" y="584" type="line"/>
      <point x="537" y="0" type="line" name="ab01"/>
      <point x="434" y="0" type="line"/>
      <point x="353" y="372" type="line" name="iv02"/>
      <point x="273" y="0" type="line" name="ab02"/>
      <point x="170" y="0" type="line"/>
      <point x="44" y="584" type="line"/>
      <point x="174" y="602" type="line"/>
      <point x="254" y="221" type="line" name="iv03"/>
      <point x="335" y="602" type="line"/>
    </contour>
    <contour>
      <point x="439" y="1464" type="line" name="at01"/>
      <point x="519" y="1083" type="line" name="iv04"/>
      <point x="600" y="1464" type="line" name="at02"/>
      <point x="664" y="1446" type="line"/>
      <point x="537" y="862" type="line"/>
      <point x="434" y="862" type="line"/>
      <point x="353" y="1234" type="line" name="iv05"/>
      <point x="273" y="862" type="line"/>
      <point x="170" y="862" type="line"/>
      <point x="44" y="1446" type="line"/>
      <point x="174" y="1464" type="line" name="at03"/>
      <point x="254" y="1083" type="line" name="iv06"/>
      <point x="335" y="1464" type="line"/>
    </contour>
  </outline>
</glyph>
<glyph name="circumflex" format="2">
  <advance width="576"/>
  <unicode hex="02C6"/>
  <outline>
    <contour>
      <point x="210" y="1524" type="line"/>
      <point x="366" y="1524" type="line"/>
      <point x="530" y="1189" type="line"/>
      <point x="439" y="1159" type="line"/>
      <point x="288" y="1362" type="line"/>
      <point x="137" y="1159" type="line"/>
      <point x="47" y="1189" type="line"/>
    </contour>
  </outline>
</glyph>
<glyph name="caron" format="2">
  <advance width="576"/>
  <unicode hex="02C7"/>
  <outline>
    <contour>
      <point x="47" y="1494" type="line"/>
      <point x="137" y="1524" type="line"/>
      <point x="288" y="1321" type="line"/>
      <point x="439" y="1524" type="line"/>
      <point x="530" y="1494" type="line"/>
      <point x="366" y="1159" type="line"/>
      <point x="210" y="1159" type="line"/>
    </contour>
  </outline>
</glyph>
<glyph name="uni02C9" format="2">
  <advance width="576"/>
  <unicode hex="02C9"/>
  <guideline x="-149" y="0" angle="80"/>
  <outline>
    <contour>
      <point x="569" y="1294" type="line" name="dv02"/>
      <point x="546" y="1142" type="line" name="dv01"/>
      <point x="3" y="1142" type="line"/>
      <point x="23" y="1294" type="line"/>
    </contour>
  </outline>
</glyph>
<glyph name="ring" format="2">
  <advance width="576"/>
  <unicode hex="02DA"/>
  <outline>
    <contour>
      <point x="128" y="1393" type="qcurve"/>
      <point x="128" y="1437"/>
      <point x="154" y="1514"/>
      <point x="197" y="1572"/>
      <point x="255" y="1606"/>
      <point x="288" y="1606" type="qcurve"/>
      <point x="321" y="1606"/>
      <point x="379" y="1572"/>
      <point x="422" y="1514"/>
      <point x="448" y="1437"/>
      <point x="448" y="1393" type="qcurve"/>
      <point x="448" y="1349"/>
      <point x="422" y="1272"/>
      <point x="379" y="1214"/>
      <point x="321" y="1180"/>
      <point x="288" y="1180" type="qcurve"/>
      <point x="255" y="1180"/>
      <point x="197" y="1214"/>
      <point x="154" y="1272"/>
      <point x="128" y="1349"/>
    </contour>
    <contour>
      <point x="235" y="1392" type="qcurve"/>
      <point x="235" y="1363"/>
      <point x="266" y="1322"/>
      <point x="287" y="1322" type="qcurve"/>
      <point x="311" y="1322"/>
      <point x="341" y="1363"/>
      <point x="341" y="1392" type="qcurve"/>
      <point x="341" y="1423"/>
      <point x="311" y="1464"/>
      <point x="287" y="1464" type="qcurve"/>
      <point x="266" y="1464"/>
      <point x="235" y="1423"/>
    </contour>
  </outline>
</glyph>
<glyph name="ogonek" format="2">
  <advance width="576"/>
  <unicode hex="02DB"/>
  <outline>
    <contour>
      <point x="413" y="-418" type="line"/>
      <point x="394" y="-431"/>
      <point x="344" y="-450"/>
      <point x="310" y="-450" type="qcurve"/>
      <point x="265" y="-450"/>
      <point x="199" y="-415"/>
      <point x="156" y="-356"/>
      <point x="136" y="-280"/>
      <point x="136" y="-239" type="qcurve"/>
      <point x="136" y="-209"/>
      <point x="146" y="-148"/>
      <point x="178" y="-83"/>
      <point x="236" y="-16"/>
      <point x="282" y="20" type="qcurve"/>
      <point x="394" y="0" type="line"/>
      <point x="354" y="-25"/>
      <point x="299" y="-77"/>
      <point x="265" y="-129"/>
      <point x="250" y="-182"/>
      <point x="250" y="-209" type="qcurve"/>
      <point x="250" y="-232"/>
      <point x="263" y="-269"/>
      <point x="284" y="-294"/>
      <point x="311" y="-308"/>
      <point x="324" y="-308" type="qcurve"/>
      <point x="347" y="-308"/>
      <point x="381" y="-284"/>
      <point x="394" y="-270" type="qcurve"/>
    </contour>
  </outline>
</glyph>
<glyph name="hungarumlaut" format="2">
  <advance width="576"/>
  <unicode hex="02DD"/>
  <outline>
    <contour>
      <point x="39" y="1180" type="line"/>
      <point x="167" y="1517" type="line"/>
      <point x="188" y="1524" type="line"/>
      <point x="266" y="1460" type="line"/>
      <point x="271" y="1434" type="line"/>
      <point x="92" y="1137" type="line"/>
    </contour>
    <contour>
      <point x="305" y="1180" type="line"/>
      <point x="433" y="1517" type="line"/>
      <point x="454" y="1524" type="line"/>
      <point x="532" y="1460" type="line"/>
      <point x="537" y="1434" type="line"/>
      <point x="357" y="1137" type="line"/>
    </contour>
  </outline>
</glyph>
<glyph name="lefttorightmark" format="2">
  <advance width="576"/>
  <unicode hex="02EA"/>
  <outline>
    <contour>
      <point x="545" y="0" type="line" name="ab01"/>
      <point x="32" y="0" type="line" name="dh01"/>
      <point x="32" y="992" type="line" name="at01"/>
      <point x="194" y="992" type="line"/>
      <point x="194" y="136" type="line" name="dh02"/>
      <point x="545" y="136" type="line"/>
    </contour>
  </outline>
</glyph>
<glyph name="uni02EC" format="2">
  <advance width="576"/>
  <unicode hex="02EC"/>
  <guideline x="0" y="472" angle="320"/>
  <guideline x="0" y="-171" angle="40"/>
  <guideline x="287" y="0" angle="90"/>
  <guideline x="101" y="0" angle="130"/>
  <guideline x="474" y="0" angle="50"/>
  <outline>
    <contour>
      <point x="523" y="-114" type="line" name="hr00"/>
      <point x="287" y="-490" type="line" name="ab01"/>
      <point x="52" y="-114" type="line"/>
      <point x="122" y="-36" type="line" name="av01"/>
      <point x="287" y="-296" type="line" name="iv01"/>
      <point x="453" y="-36" type="line" name="av02"/>
    </contour>
  </outline>
</glyph>
<glyph name="uni02ED" format="2">
  <advance width="576"/>
  <unicode hex="02ED"/>
  <outline>
    <contour>
      <point x="546" y="1173" type="line" name="dv02"/>
      <point x="546" y="1037" type="line" name="dv01"/>
      <point x="30" y="1037" type="line"/>
      <point x="30" y="1173" type="line"/>
    </contour>
    <contour>
      <point x="546" y="1369" type="line" name="dv04"/>
      <point x="546" y="1232" type="line" name="dv03"/>
      <point x="30" y="1232" type="line"/>
      <point x="30" y="1369" type="line"/>
    </contour>
  </outline>
</glyph>
<glyph name="acutecomb" format="2">
  <unicode hex="0301"/>
  <outline>
    <contour>
      <point x="-551" y="1597" type="line"/>
      <point x="-340" y="1966" type="line"/>
      <point x="-307" y="1966" type="line"/>
      <point x="-218" y="1848" type="line"/>
      <point x="-218" y="1804" type="line"/>
      <point x="-493" y="1516" type="line"/>
    </contour>
  </outline>
</glyph>
<glyph name="tildecomb" format="2">
  <unicode hex="0303"/>
  <anchor x="-400" y="1500" name="_AccentDefault"/>
  <outline>
    <contour>
      <point x="-496" y="1864" type="qcurve"/>
      <point x="-470" y="1864"/>
      <point x="-427" y="1843"/>
      <point x="-389" y="1812"/>
      <point x="-356" y="1776"/>
      <point x="-324" y="1745"/>
      <point x="-291" y="1724"/>
      <point x="-273" y="1724" type="qcurve"/>
      <point x="-235" y="1724"/>
      <point x="-197" y="1804"/>
      <point x="-197" y="1864" type="qcurve"/>
      <point x="-105" y="1864" type="line"/>
      <point x="-105" y="1795"/>
      <point x="-129" y="1686"/>
      <point x="-173" y="1611"/>
      <point x="-236" y="1572"/>
      <point x="-273" y="1572" type="qcurve"/>
      <point x="-299" y="1572"/>
      <point x="-341" y="1593"/>
      <point x="-378" y="1624"/>
      <point x="-410" y="1660"/>
      <point x="-443" y="1691"/>
      <point x="-476" y="1712"/>
      <point x="-496" y="1712" type="qcurve"/>
      <point x="-534" y="1712"/>
      <point x="-572" y="1632"/>
      <point x="-572" y="1572" type="qcurve"/>
      <point x="-663" y="1572" type="line"/>
      <point x="-663" y="1641"/>
      <point x="-639" y="1750"/>
      <point x="-595" y="1825"/>
      <point x="-533" y="1864"/>
    </contour>
  </outline>
</glyph>
<glyph name="macroncomb" format="2">
  <unicode hex="0304"/>
  <outline>
    <contour>
      <point x="-650" y="1805" type="line"/>
      <point x="-92" y="1805" type="line"/>
      <point x="-116" y="1623" type="line"/>
      <point x="-674" y="1623" type="line"/>
    </contour>
  </outline>
</glyph>
<glyph name="dotaccentcomb" format="2">
  <unicode hex="0307"/>
  <anchor x="-400" y="1500" name="_AccentDefault"/>
  <outline>
    <contour>
      <point x="-494" y="1718" type="qcurve"/>
      <point x="-494" y="1748"/>
      <point x="-476" y="1802"/>
      <point x="-447" y="1841"/>
      <point x="-407" y="1864"/>
      <point x="-384" y="1864" type="qcurve"/>
      <point x="-362" y="1864"/>
      <point x="-321" y="1841"/>
      <point x="-292" y="1802"/>
      <point x="-275" y="1748"/>
      <point x="-275" y="1718" type="qcurve"/>
      <point x="-275" y="1688"/>
      <point x="-292" y="1634"/>
      <point x="-321" y="1595"/>
      <point x="-362" y="1572"/>
      <point x="-384" y="1572" type="qcurve"/>
      <point x="-407" y="1572"/>
      <point x="-447" y="1595"/>
      <point x="-476" y="1634"/>
      <point x="-494" y="1688"/>
    </contour>
  </outline>
</glyph>
<glyph name="hookabovecomb" format="2">
  <unicode hex="0309"/>
  <outline>
    <contour>
      <point x="-450" y="1602" type="line"/>
      <point x="-450" y="1640"/>
      <point x="-425" y="1698"/>
      <point x="-396" y="1753"/>
      <point x="-371" y="1811"/>
      <point x="-371" y="1850" type="qcurve"/>
      <point x="-371" y="1887"/>
      <point x="-394" y="1927"/>
      <point x="-414" y="1927" type="qcurve"/>
      <point x="-434" y="1927"/>
      <point x="-467" y="1872"/>
      <point x="-467" y="1830" type="qcurve"/>
      <point x="-574" y="1830" type="line"/>
      <point x="-574" y="1875"/>
      <point x="-545" y="1953"/>
      <point x="-493" y="2011"/>
      <point x="-424" y="2045"/>
      <point x="-384" y="2045" type="qcurve"/>
      <point x="-344" y="2045"/>
      <point x="-278" y="2009"/>
      <point x="-230" y="1950"/>
      <point x="-205" y="1876"/>
      <point x="-205" y="1838" type="qcurve"/>
      <point x="-205" y="1802"/>
      <point x="-225" y="1751"/>
      <point x="-257" y="1711"/>
      <point x="-292" y="1679"/>
      <point x="-323" y="1649"/>
      <point x="-344" y="1616"/>
      <point x="-344" y="1595" type="qcurve"/>
      <point x="-344" y="1516" type="line"/>
      <point x="-450" y="1516" type="line"/>
    </contour>
  </outline>
</glyph>
<glyph name="ringnosp" format="2">
  <unicode hex="030A"/>
  <anchor x="-400" y="1500" name="_AccentDefault"/>
  <outline>
    <contour>
      <point x="-543" y="1718" type="qcurve"/>
      <point x="-543" y="1762"/>
      <point x="-518" y="1839"/>
      <point x="-474" y="1897"/>
      <point x="-416" y="1931"/>
      <point x="-383" y="1931" type="qcurve"/>
      <point x="-350" y="1931"/>
      <point x="-293" y="1897"/>
      <point x="-249" y="1839"/>
      <point x="-224" y="1762"/>
      <point x="-224" y="1718" type="qcurve"/>
      <point x="-224" y="1674"/>
      <point x="-249" y="1597"/>
      <point x="-293" y="1539"/>
      <point x="-350" y="1505"/>
      <point x="-383" y="1505" type="qcurve"/>
      <point x="-416" y="1505"/>
      <point x="-474" y="1539"/>
      <point x="-518" y="1597"/>
      <point x="-543" y="1674"/>
    </contour>
    <contour>
      <point x="-437" y="1717" type="qcurve"/>
      <point x="-437" y="1688"/>
      <point x="-406" y="1647"/>
      <point x="-384" y="1647" type="qcurve"/>
      <point x="-361" y="1647"/>
      <point x="-330" y="1688"/>
      <point x="-330" y="1717" type="qcurve"/>
      <point x="-330" y="1748"/>
      <point x="-361" y="1789"/>
      <point x="-384" y="1789" type="qcurve"/>
      <point x="-406" y="1789"/>
      <point x="-437" y="1748"/>
    </contour>
  </outline>
</glyph>
<glyph name="linevertdblnosp" format="2">
  <unicode hex="030E"/>
  <outline>
    <contour>
      <point x="-588" y="1516" type="line"/>
      <point x="-588" y="1920" type="line"/>
      <point x="-452" y="1920" type="line"/>
      <point x="-452" y="1516" type="line"/>
    </contour>
    <contour>
      <point x="-317" y="1516" type="line"/>
      <point x="-317" y="1920" type="line"/>
      <point x="-180" y="1920" type="line"/>
      <point x="-180" y="1516" type="line"/>
    </contour>
  </outline>
</glyph>
<glyph name="gravedblnosp" format="2">
  <unicode hex="030F"/>
  <anchor x="-400" y="1500" name="_AccentDefault"/>
  <outline>
    <contour>
      <point x="-182" y="1533" type="line" name="av03"/>
      <point x="-361" y="1830" type="line"/>
      <point x="-356" y="1856" type="line"/>
      <point x="-278" y="1920" type="line" name="av01"/>
      <point x="-257" y="1913" type="line"/>
      <point x="-129" y="1576" type="line"/>
    </contour>
    <contour>
      <point x="-453" y="1533" type="line" name="av04"/>
      <point x="-633" y="1830" type="line"/>
      <point x="-628" y="1856" type="line"/>
      <point x="-550" y="1920" type="line" name="av02"/>
      <point x="-529" y="1913" type="line"/>
      <point x="-401" y="1576" type="line"/>
    </contour>
  </outline>
</glyph>
<glyph name="candrabindunosp" format="2">
  <unicode hex="0310"/>
  <anchor x="-400" y="1500" name="_AccentDefault"/>
  <outline>
    <contour>
      <point x="-480" y="1845" type="line"/>
      <point x="-480" y="1813"/>
      <point x="-465" y="1756"/>
      <point x="-439" y="1714"/>
      <point x="-404" y="1690"/>
      <point x="-384" y="1690" type="qcurve"/>
      <point x="-365" y="1690"/>
      <point x="-329" y="1714"/>
      <point x="-303" y="1756"/>
      <point x="-288" y="1813"/>
      <point x="-288" y="1845" type="qcurve"/>
      <point x="-128" y="1845" type="line"/>
      <point x="-128" y="1776"/>
      <point x="-168" y="1656"/>
      <point x="-237" y="1567"/>
      <point x="-330" y="1516"/>
      <point x="-383" y="1516" type="qcurve"/>
      <point x="-437" y="1516"/>
      <point x="-531" y="1567"/>
      <point x="-600" y="1656"/>
      <point x="-640" y="1776"/>
      <point x="-640" y="1845" type="qcurve"/>
    </contour>
    <contour>
      <point x="-494" y="2021" type="qcurve"/>
      <point x="-494" y="2051"/>
      <point x="-476" y="2105"/>
      <point x="-447" y="2144"/>
      <point x="-407" y="2167"/>
      <point x="-384" y="2167" type="qcurve"/>
      <point x="-362" y="2167"/>
      <point x="-321" y="2144"/>
      <point x="-292" y="2105"/>
      <point x="-275" y="2051"/>
      <point x="-275" y="2021" type="qcurve"/>
      <point x="-275" y="1991"/>
      <point x="-292" y="1937"/>
      <point x="-321" y="1898"/>
      <point x="-362" y="1875"/>
      <point x="-384" y="1875" type="qcurve"/>
      <point x="-407" y="1875"/>
      <point x="-447" y="1898"/>
      <point x="-476" y="1937"/>
      <point x="-494" y="1991"/>
    </contour>
  </outline>
</glyph>
<glyph name="breveinvnosp" format="2">
  <unicode hex="0311"/>
  <outline>
    <contour>
      <point x="-641" y="1591" type="line"/>
      <point x="-641" y="1659"/>
      <point x="-601" y="1779"/>
      <point x="-532" y="1868"/>
      <point x="-438" y="1920"/>
      <point x="-384" y="1920" type="qcurve"/>
      <point x="-331" y="1920"/>
      <point x="-238" y="1868"/>
      <point x="-169" y="1779"/>
      <point x="-129" y="1659"/>
      <point x="-129" y="1591" type="qcurve"/>
      <point x="-289" y="1591" type="line"/>
      <point x="-289" y="1623"/>
      <point x="-304" y="1679"/>
      <point x="-330" y="1721"/>
      <point x="-365" y="1745"/>
      <point x="-385" y="1745" type="qcurve"/>
      <point x="-404" y="1745"/>
      <point x="-440" y="1721"/>
      <point x="-466" y="1679"/>
      <point x="-481" y="1623"/>
      <point x="-481" y="1591" type="qcurve"/>
    </contour>
  </outline>
</glyph>
<glyph name="commaturnsupnosp" format="2">
  <unicode hex="0312"/>
  <anchor x="-400" y="1500" name="_AccentDefault"/>
  <outline>
    <contour>
      <point x="-291" y="1664" type="line"/>
      <point x="-402" y="1516" type="line"/>
      <point x="-422" y="1516" type="line"/>
      <point x="-428" y="1523"/>
      <point x="-452" y="1560"/>
      <point x="-476" y="1623"/>
      <point x="-495" y="1710"/>
      <point x="-495" y="1767" type="qcurve"/>
      <point x="-495" y="1826"/>
      <point x="-470" y="1923"/>
      <point x="-428" y="2001"/>
      <point x="-376" y="2060"/>
      <point x="-349" y="2083" type="qcurve"/>
      <point x="-291" y="2006" type="line"/>
      <point x="-302" y="1996"/>
      <point x="-325" y="1965"/>
      <point x="-345" y="1921"/>
      <point x="-359" y="1867"/>
      <point x="-359" y="1834" type="qcurve"/>
      <point x="-359" y="1803"/>
      <point x="-343" y="1755"/>
      <point x="-320" y="1719"/>
      <point x="-298" y="1696"/>
      <point x="-291" y="1690" type="qcurve"/>
    </contour>
  </outline>
</glyph>
<glyph name="apostrophesupnosp" format="2">
  <unicode hex="0313"/>
  <anchor x="-400" y="1500" name="_AccentDefault"/>
  <outline>
    <contour>
      <point x="-495" y="1935" type="line" name="hr00"/>
      <point x="-384" y="2083" type="line" name="av01"/>
      <point x="-364" y="2083" type="line"/>
      <point x="-358" y="2076"/>
      <point x="-334" y="2039"/>
      <point x="-310" y="1976"/>
      <point x="-291" y="1889"/>
      <point x="-291" y="1832" type="qcurve" name="dh02"/>
      <point x="-291" y="1773"/>
      <point x="-317" y="1676"/>
      <point x="-358" y="1598"/>
      <point x="-410" y="1539"/>
      <point x="-437" y="1516" type="qcurve" name="av02"/>
      <point x="-495" y="1593" type="line"/>
      <point x="-485" y="1603"/>
      <point x="-461" y="1634"/>
      <point x="-441" y="1678"/>
      <point x="-428" y="1732"/>
      <point x="-428" y="1765" type="qcurve" name="dh01"/>
      <point x="-428" y="1796"/>
      <point x="-443" y="1844"/>
      <point x="-466" y="1880"/>
      <point x="-488" y="1903"/>
      <point x="-495" y="1909" type="qcurve"/>
    </contour>
  </outline>
</glyph>
<glyph name="commasuprevnosp" format="2">
  <unicode hex="0314"/>
  <outline>
    <contour>
      <point x="-272" y="1909" type="line"/>
      <point x="-278" y="1903"/>
      <point x="-301" y="1880"/>
      <point x="-323" y="1844"/>
      <point x="-339" y="1796"/>
      <point x="-339" y="1765" type="qcurve"/>
      <point x="-339" y="1732"/>
      <point x="-326" y="1678"/>
      <point x="-305" y="1634"/>
      <point x="-282" y="1603"/>
      <point x="-272" y="1593" type="qcurve"/>
      <point x="-329" y="1516" type="line"/>
      <point x="-356" y="1539"/>
      <point x="-409" y="1598"/>
      <point x="-450" y="1676"/>
      <point x="-476" y="1773"/>
      <point x="-476" y="1832" type="qcurve"/>
      <point x="-476" y="1889"/>
      <point x="-457" y="1976"/>
      <point x="-433" y="2039"/>
      <point x="-409" y="2076"/>
      <point x="-403" y="2083" type="qcurve"/>
      <point x="-383" y="2083" type="line"/>
      <point x="-272" y="1935" type="line"/>
    </contour>
  </outline>
</glyph>
<glyph name="commasuprightnosp" format="2">
  <unicode hex="0315"/>
  <outline>
    <contour>
      <point x="-68" y="1935" type="line"/>
      <point x="44" y="2083" type="line"/>
      <point x="64" y="2083" type="line"/>
      <point x="70" y="2076"/>
      <point x="94" y="2039"/>
      <point x="118" y="1976"/>
      <point x="137" y="1889"/>
      <point x="137" y="1832" type="qcurve"/>
      <point x="137" y="1773"/>
      <point x="111" y="1676"/>
      <point x="70" y="1598"/>
      <point x="17" y="1539"/>
      <point x="-10" y="1516" type="qcurve"/>
      <point x="-68" y="1593" type="line"/>
      <point x="-57" y="1603"/>
      <point x="-34" y="1634"/>
      <point x="-14" y="1678"/>
      <point x="0" y="1732"/>
      <point x="0" y="1765" type="qcurve"/>
      <point x="0" y="1796"/>
      <point x="-16" y="1844"/>
      <point x="-38" y="1880"/>
      <point x="-61" y="1903"/>
      <point x="-68" y="1909" type="qcurve"/>
    </contour>
  </outline>
</glyph>
<glyph name="gravesubnosp" format="2">
  <unicode hex="0316"/>
  <anchor x="-512" y="0" name="_AccentBelow"/>
  <outline>
    <contour>
      <point x="-284" y="-490" type="line"/>
      <point x="-531" y="-231" type="line"/>
      <point x="-531" y="-192" type="line"/>
      <point x="-452" y="-85" type="line"/>
      <point x="-422" y="-85" type="line"/>
      <point x="-233" y="-417" type="line"/>
    </contour>
  </outline>
</glyph>
<glyph name="anglesupnosp" format="2">
  <unicode hex="031A"/>
  <outline>
    <contour>
      <point x="-146" y="1920" type="line"/>
      <point x="-146" y="1567" type="line"/>
      <point x="-283" y="1567" type="line"/>
      <point x="-283" y="1798" type="line"/>
      <point x="-623" y="1798" type="line"/>
      <point x="-623" y="1920" type="line"/>
    </contour>
  </outline>
</glyph>
<glyph name="tackupsubnosp" format="2">
  <unicode hex="031D"/>
  <outline>
    <contour>
      <point x="-589" y="-434" type="line" name="dv01"/>
      <point x="-589" y="-312" type="line" name="sv01"/>
      <point x="-452" y="-312" type="line" name="dh01"/>
      <point x="-452" y="-168" type="line" name="dv02"/>
      <point x="-316" y="-168" type="line"/>
      <point x="-316" y="-312" type="line" name="dh02"/>
      <point x="-179" y="-312" type="line"/>
      <point x="-179" y="-434" type="line"/>
    </contour>
  </outline>
</glyph>
<glyph name="plussubnosp" format="2">
  <unicode hex="031F"/>
  <outline>
    <contour>
      <point x="-589" y="-346" type="line" name="dv01"/>
      <point x="-589" y="-224" type="line" name="dv02"/>
      <point x="-452" y="-224" type="line" name="dh01"/>
      <point x="-452" y="-80" type="line" name="av01"/>
      <point x="-316" y="-80" type="line"/>
      <point x="-316" y="-224" type="line" name="dh02"/>
      <point x="-179" y="-224" type="line"/>
      <point x="-179" y="-346" type="line" name="sv01"/>
      <point x="-316" y="-346" type="line" name="sh01"/>
      <point x="-316" y="-490" type="line" name="ab01"/>
      <point x="-452" y="-490" type="line" name="sh02"/>
      <point x="-452" y="-346" type="line"/>
    </contour>
  </outline>
</glyph>
<glyph name="minussubnosp" format="2">
  <unicode hex="0320"/>
  <outline>
    <contour>
      <point x="-566" y="-118" type="line" name="av01"/>
      <point x="-566" y="-141"/>
      <point x="-550" y="-168"/>
      <point x="-528" y="-168" type="qcurve"/>
      <point x="-241" y="-168" type="line" name="dv02"/>
      <point x="-219" y="-168"/>
      <point x="-203" y="-141"/>
      <point x="-203" y="-118" type="qcurve" name="av02"/>
      <point x="-172" y="-118" type="line"/>
      <point x="-172" y="-380" type="line" name="dh02"/>
      <point x="-203" y="-380" type="line"/>
      <point x="-203" y="-357"/>
      <point x="-219" y="-330"/>
      <point x="-241" y="-330" type="qcurve" name="dv01"/>
      <point x="-528" y="-330" type="line"/>
      <point x="-550" y="-330"/>
      <point x="-566" y="-357"/>
      <point x="-566" y="-380" type="qcurve" name="av03"/>
      <point x="-597" y="-380" type="line" name="dh01"/>
      <point x="-597" y="-118" type="line"/>
    </contour>
  </outline>
</glyph>
<glyph name="hooksubretronosp" format="2">
  <unicode hex="0322"/>
  <guideline x="24" y="0" angle="90"/>
  <outline>
    <contour>
      <point x="-77" y="136" type="line" name="av01"/>
      <point x="-77" y="-221" type="line" name="dh02"/>
      <point x="-77" y="-269"/>
      <point x="-64" y="-330"/>
      <point x="-38" y="-365"/>
      <point x="0" y="-378"/>
      <point x="24" y="-378" type="qcurve"/>
      <point x="9" y="-490" type="line" name="ab01"/>
      <point x="-86" y="-490"/>
      <point x="-203" y="-429"/>
      <point x="-267" y="-320"/>
      <point x="-289" y="-168"/>
      <point x="-289" y="-78" type="qcurve" name="dh01"/>
      <point x="-289" y="136" type="line"/>
    </contour>
  </outline>
</glyph>
<glyph name="dotbelowcomb" format="2">
  <unicode hex="0323"/>
  <anchor x="-512" y="0" name="_AccentBelow"/>
  <outline>
    <contour>
      <point x="-494" y="-314" type="qcurve"/>
      <point x="-494" y="-284"/>
      <point x="-476" y="-230"/>
      <point x="-447" y="-191"/>
      <point x="-407" y="-168"/>
      <point x="-384" y="-168" type="qcurve"/>
      <point x="-362" y="-168"/>
      <point x="-321" y="-191"/>
      <point x="-292" y="-230"/>
      <point x="-275" y="-284"/>
      <point x="-275" y="-314" type="qcurve"/>
      <point x="-275" y="-344"/>
      <point x="-292" y="-398"/>
      <point x="-321" y="-437"/>
      <point x="-362" y="-460"/>
      <point x="-384" y="-460" type="qcurve"/>
      <point x="-407" y="-460"/>
      <point x="-447" y="-437"/>
      <point x="-476" y="-398"/>
      <point x="-494" y="-344"/>
    </contour>
  </outline>
</glyph>
<glyph name="ringsubnosp" format="2">
  <unicode hex="0325"/>
  <anchor x="-512" y="0" name="_AccentBelow"/>
  <outline>
    <contour>
      <point x="-543" y="-277" type="qcurve"/>
      <point x="-543" y="-233"/>
      <point x="-518" y="-156"/>
      <point x="-474" y="-98"/>
      <point x="-416" y="-64"/>
      <point x="-383" y="-64" type="qcurve"/>
      <point x="-350" y="-64"/>
      <point x="-293" y="-98"/>
      <point x="-249" y="-156"/>
      <point x="-224" y="-233"/>
      <point x="-224" y="-277" type="qcurve"/>
      <point x="-224" y="-321"/>
      <point x="-249" y="-398"/>
      <point x="-293" y="-456"/>
      <point x="-350" y="-490"/>
      <point x="-383" y="-490" type="qcurve"/>
      <point x="-416" y="-490"/>
      <point x="-474" y="-456"/>
      <point x="-518" y="-398"/>
      <point x="-543" y="-321"/>
    </contour>
    <contour>
      <point x="-437" y="-278" type="qcurve"/>
      <point x="-437" y="-307"/>
      <point x="-406" y="-348"/>
      <point x="-384" y="-348" type="qcurve"/>
      <point x="-361" y="-348"/>
      <point x="-330" y="-307"/>
      <point x="-330" y="-278" type="qcurve"/>
      <point x="-330" y="-247"/>
      <point x="-361" y="-206"/>
      <point x="-384" y="-206" type="qcurve"/>
      <point x="-406" y="-206"/>
      <point x="-437" y="-247"/>
    </contour>
  </outline>
</glyph>
<glyph name="commasubnosp" format="2">
  <unicode hex="0326"/>
  <outline>
    <contour>
      <point x="-469" y="-169" type="line"/>
      <point x="-404" y="-82" type="line"/>
      <point x="-387" y="-82" type="line"/>
      <point x="-380" y="-87"/>
      <point x="-358" y="-114"/>
      <point x="-336" y="-157"/>
      <point x="-320" y="-217"/>
      <point x="-320" y="-256" type="qcurve"/>
      <point x="-320" y="-308"/>
      <point x="-350" y="-391"/>
      <point x="-390" y="-451"/>
      <point x="-429" y="-486"/>
      <point x="-438" y="-490" type="qcurve"/>
      <point x="-455" y="-490" type="line"/>
      <point x="-469" y="-382" type="line"/>
      <point x="-453" y="-365"/>
      <point x="-434" y="-315"/>
      <point x="-434" y="-286" type="qcurve"/>
      <point x="-434" y="-258"/>
      <point x="-449" y="-207"/>
      <point x="-469" y="-190" type="qcurve"/>
    </contour>
  </outline>
</glyph>
<glyph name="ogoneknosp" format="2">
  <unicode hex="0328"/>
  <outline>
    <contour>
      <point x="-112" y="-418" type="line"/>
      <point x="-131" y="-431"/>
      <point x="-182" y="-450"/>
      <point x="-215" y="-450" type="qcurve"/>
      <point x="-260" y="-450"/>
      <point x="-326" y="-415"/>
      <point x="-369" y="-356"/>
      <point x="-389" y="-280"/>
      <point x="-389" y="-239" type="qcurve"/>
      <point x="-389" y="-209"/>
      <point x="-379" y="-148"/>
      <point x="-347" y="-83"/>
      <point x="-290" y="-16"/>
      <point x="-243" y="20" type="qcurve"/>
      <point x="-131" y="0" type="line"/>
      <point x="-171" y="-25"/>
      <point x="-227" y="-77"/>
      <point x="-260" y="-129"/>
      <point x="-275" y="-182"/>
      <point x="-275" y="-209" type="qcurve"/>
      <point x="-275" y="-232"/>
      <point x="-263" y="-269"/>
      <point x="-241" y="-294"/>
      <point x="-215" y="-308"/>
      <point x="-201" y="-308" type="qcurve"/>
      <point x="-178" y="-308"/>
      <point x="-144" y="-284"/>
      <point x="-131" y="-270" type="qcurve"/>
    </contour>
  </outline>
</glyph>
<glyph name="bridgesubnosp" format="2">
  <unicode hex="032A"/>
  <anchor x="-512" y="0" name="_AccentBelow"/>
  <outline>
    <contour>
      <point x="-127" y="-136" type="line" name="sv01"/>
      <point x="-127" y="-460" type="line" name="sh01"/>
      <point x="-263" y="-460" type="line" name="ah01"/>
      <point x="-263" y="-278" type="line" name="sv02"/>
      <point x="-506" y="-278" type="line"/>
      <point x="-506" y="-460" type="line" name="sh03"/>
      <point x="-642" y="-460" type="line" name="sh02"/>
      <point x="-642" y="-136" type="line" name="sv03"/>
    </contour>
  </outline>
</glyph>
<glyph name="aceksubnosp" format="2">
  <unicode hex="032C"/>
  <anchor x="-512" y="0" name="_AccentBelow"/>
  <outline>
    <contour>
      <point x="-626" y="-155" type="line"/>
      <point x="-535" y="-125" type="line"/>
      <point x="-384" y="-328" type="line"/>
      <point x="-233" y="-125" type="line"/>
      <point x="-143" y="-155" type="line"/>
      <point x="-306" y="-490" type="line"/>
      <point x="-462" y="-490" type="line"/>
    </contour>
  </outline>
</glyph>
<glyph name="breveinvsubnosp" format="2">
  <unicode hex="032F"/>
  <anchor x="-512" y="0" name="_AccentBelow"/>
  <outline>
    <contour>
      <point x="-640" y="-490" type="line"/>
      <point x="-640" y="-421"/>
      <point x="-600" y="-301"/>
      <point x="-531" y="-212"/>
      <point x="-437" y="-160"/>
      <point x="-383" y="-160" type="qcurve"/>
      <point x="-330" y="-160"/>
      <point x="-237" y="-212"/>
      <point x="-168" y="-301"/>
      <point x="-128" y="-421"/>
      <point x="-128" y="-490" type="qcurve"/>
      <point x="-288" y="-490" type="line"/>
      <point x="-288" y="-458"/>
      <point x="-303" y="-401"/>
      <point x="-329" y="-359"/>
      <point x="-365" y="-335"/>
      <point x="-384" y="-335" type="qcurve"/>
      <point x="-404" y="-335"/>
      <point x="-439" y="-359"/>
      <point x="-465" y="-401"/>
      <point x="-480" y="-458"/>
      <point x="-480" y="-490" type="qcurve"/>
    </contour>
  </outline>
</glyph>
<glyph name="tildemidnosp" format="2">
  <unicode hex="0334"/>
  <anchor x="-512" y="500" name="_AccentMiddle"/>
  <outline>
    <contour>
      <point x="-734" y="407" type="line"/>
      <point x="-734" y="435"/>
      <point x="-707" y="518"/>
      <point x="-654" y="596"/>
      <point x="-578" y="651"/>
      <point x="-527" y="651" type="qcurve"/>
      <point x="-486" y="651"/>
      <point x="-427" y="624"/>
      <point x="-380" y="583"/>
      <point x="-343" y="535"/>
      <point x="-303" y="494"/>
      <point x="-257" y="467"/>
      <point x="-227" y="467" type="qcurve"/>
      <point x="-195" y="467"/>
      <point x="-147" y="499"/>
      <point x="-113" y="551"/>
      <point x="-96" y="617"/>
      <point x="-96" y="651" type="qcurve"/>
      <point x="-35" y="569" type="line"/>
      <point x="-35" y="541"/>
      <point x="-62" y="458"/>
      <point x="-114" y="380"/>
      <point x="-192" y="325"/>
      <point x="-242" y="325" type="qcurve"/>
      <point x="-287" y="325"/>
      <point x="-347" y="352"/>
      <point x="-392" y="393"/>
      <point x="-427" y="441"/>
      <point x="-464" y="482"/>
      <point x="-510" y="509"/>
      <point x="-543" y="509" type="qcurve"/>
      <point x="-574" y="509"/>
      <point x="-622" y="477"/>
      <point x="-655" y="425"/>
      <point x="-672" y="359"/>
      <point x="-672" y="325" type="qcurve"/>
    </contour>
  </outline>
</glyph>
<glyph name="squaresubnosp" format="2">
  <unicode hex="033B"/>
  <anchor x="-512" y="0" name="_AccentBelow"/>
  <outline>
    <contour>
      <point x="-347" y="-388" type="line"/>
      <point x="-347" y="-253" type="line"/>
      <point x="-422" y="-253" type="line"/>
      <point x="-422" y="-388" type="line"/>
    </contour>
    <contour>
      <point x="-513" y="-151" type="line"/>
      <point x="-255" y="-151" type="line"/>
      <point x="-255" y="-490" type="line"/>
      <point x="-513" y="-490" type="line"/>
    </contour>
  </outline>
</glyph>
<glyph name="seagullsubnosp" format="2">
  <unicode hex="033C"/>
  <anchor x="-512" y="0" name="_AccentBelow"/>
  <outline>
    <contour>
      <point x="-213" y="-460" type="line"/>
      <point x="-213" y="-419" type="line"/>
      <point x="-213" y="-384"/>
      <point x="-249" y="-336"/>
      <point x="-275" y="-336" type="qcurve"/>
      <point x="-302" y="-336"/>
      <point x="-338" y="-384"/>
      <point x="-338" y="-419" type="qcurve"/>
      <point x="-338" y="-460" type="line"/>
      <point x="-430" y="-460" type="line"/>
      <point x="-430" y="-419" type="line"/>
      <point x="-430" y="-384"/>
      <point x="-466" y="-336"/>
      <point x="-492" y="-336" type="qcurve"/>
      <point x="-519" y="-336"/>
      <point x="-555" y="-384"/>
      <point x="-555" y="-419" type="qcurve"/>
      <point x="-555" y="-460" type="line"/>
      <point x="-647" y="-460" type="line"/>
      <point x="-647" y="-419" type="line"/>
      <point x="-647" y="-377"/>
      <point x="-622" y="-302"/>
      <point x="-581" y="-246"/>
      <point x="-524" y="-214"/>
      <point x="-493" y="-214" type="qcurve"/>
      <point x="-461" y="-214"/>
      <point x="-405" y="-246"/>
      <point x="-384" y="-274" type="qcurve"/>
      <point x="-364" y="-246"/>
      <point x="-308" y="-214"/>
      <point x="-276" y="-214" type="qcurve"/>
      <point x="-245" y="-214"/>
      <point x="-188" y="-246"/>
      <point x="-146" y="-302"/>
      <point x="-122" y="-377"/>
      <point x="-122" y="-419" type="qcurve"/>
      <point x="-122" y="-460" type="line"/>
    </contour>
  </outline>
</glyph>
<glyph name="xsupnosp" format="2">
  <unicode hex="033D"/>
  <outline>
    <contour>
      <point x="-206" y="1841" type="line"/>
      <point x="-298" y="1718" type="line"/>
      <point x="-206" y="1595" type="line"/>
      <point x="-292" y="1481" type="line"/>
      <point x="-384" y="1603" type="line"/>
      <point x="-476" y="1480" type="line"/>
      <point x="-562" y="1595" type="line"/>
      <point x="-470" y="1718" type="line"/>
      <point x="-563" y="1841" type="line"/>
      <point x="-476" y="1955" type="line"/>
      <point x="-384" y="1833" type="line"/>
      <point x="-292" y="1956" type="line"/>
    </contour>
  </outline>
</glyph>
<glyph name="overscoredblnosp" format="2">
  <unicode hex="033F"/>
  <anchor x="-400" y="1500" name="_AccentDefault"/>
  <outline>
    <contour>
      <point x="-743" y="1717" type="line"/>
      <point x="-5" y="1717" type="line"/>
      <point x="-26" y="1555" type="line"/>
      <point x="-764" y="1555" type="line"/>
    </contour>
    <contour>
      <point x="-743" y="2017" type="line"/>
      <point x="-5" y="2017" type="line"/>
      <point x="-26" y="1855" type="line"/>
      <point x="-764" y="1855" type="line"/>
    </contour>
  </outline>
</glyph>
<glyph name="graveleftnosp" format="2">
  <unicode hex="0340"/>
  <guideline x="-362" y="0" angle="90"/>
  <anchor x="-400" y="1500" name="_AccentDefault"/>
  <outline>
    <contour>
      <point x="-305" y="1678" type="line" name="av01"/>
      <point x="-520" y="1886" type="line"/>
      <point x="-520" y="1930" type="line"/>
      <point x="-431" y="2048" type="line" name="av02"/>
      <point x="-398" y="2048" type="line"/>
      <point x="-247" y="1759" type="line"/>
    </contour>
  </outline>
</glyph>
<glyph name="acuterightnosp" format="2">
  <unicode hex="0341"/>
  <anchor x="-400" y="1600" name="_AccentDefault"/>
  <outline>
    <contour>
      <point x="-523" y="1759" type="line"/>
      <point x="-371" y="2048" type="line"/>
      <point x="-338" y="2048" type="line"/>
      <point x="-250" y="1930" type="line"/>
      <point x="-250" y="1886" type="line"/>
      <point x="-465" y="1678" type="line"/>
    </contour>
  </outline>
</glyph>
<glyph name="uni0342" format="2">
  <unicode hex="0342"/>
  <anchor x="-400" y="1500" name="_AccentDefault"/>
  <outline>
    <contour>
      <point x="-496" y="1994" type="qcurve"/>
      <point x="-470" y="1994"/>
      <point x="-427" y="1973"/>
      <point x="-389" y="1942"/>
      <point x="-356" y="1906"/>
      <point x="-324" y="1875"/>
      <point x="-291" y="1854"/>
      <point x="-273" y="1854" type="qcurve"/>
      <point x="-235" y="1854"/>
      <point x="-197" y="1934"/>
      <point x="-197" y="1994" type="qcurve"/>
      <point x="-105" y="1994" type="line"/>
      <point x="-105" y="1925"/>
      <point x="-129" y="1816"/>
      <point x="-173" y="1741"/>
      <point x="-236" y="1702"/>
      <point x="-273" y="1702" type="qcurve"/>
      <point x="-299" y="1702"/>
      <point x="-341" y="1723"/>
      <point x="-378" y="1754"/>
      <point x="-410" y="1790"/>
      <point x="-443" y="1821"/>
      <point x="-476" y="1842"/>
      <point x="-496" y="1842" type="qcurve"/>
      <point x="-534" y="1842"/>
      <point x="-572" y="1762"/>
      <point x="-572" y="1702" type="qcurve"/>
      <point x="-663" y="1702" type="line"/>
      <point x="-663" y="1771"/>
      <point x="-639" y="1880"/>
      <point x="-595" y="1955"/>
      <point x="-533" y="1994"/>
    </contour>
  </outline>
</glyph>
<glyph name="uni0343" format="2">
  <unicode hex="0343"/>
  <anchor x="-400" y="1500" name="_AccentDefault"/>
  <outline>
    <contour>
      <point x="-495" y="1883" type="line"/>
      <point x="-384" y="2031" type="line"/>
      <point x="-364" y="2031" type="line"/>
      <point x="-358" y="2024"/>
      <point x="-334" y="1987"/>
      <point x="-310" y="1924"/>
      <point x="-291" y="1837"/>
      <point x="-291" y="1780" type="qcurve"/>
      <point x="-291" y="1721"/>
      <point x="-317" y="1624"/>
      <point x="-358" y="1546"/>
      <point x="-410" y="1487"/>
      <point x="-437" y="1464" type="qcurve"/>
      <point x="-495" y="1541" type="line"/>
      <point x="-485" y="1551"/>
      <point x="-461" y="1582"/>
      <point x="-441" y="1626"/>
      <point x="-428" y="1680"/>
      <point x="-428" y="1713" type="qcurve"/>
      <point x="-428" y="1744"/>
      <point x="-443" y="1792"/>
      <point x="-466" y="1828"/>
      <point x="-488" y="1851"/>
      <point x="-495" y="1857" type="qcurve"/>
    </contour>
  </outline>
</glyph>
<glyph name="diaeresistonosnosp" format="2">
  <unicode hex="0344"/>
  <anchor x="-400" y="1500" name="_AccentDefault"/>
  <outline>
    <contour>
      <point x="-695" y="1624" type="qcurve"/>
      <point x="-695" y="1652"/>
      <point x="-680" y="1700"/>
      <point x="-654" y="1736"/>
      <point x="-618" y="1756"/>
      <point x="-598" y="1756" type="qcurve"/>
      <point x="-577" y="1756"/>
      <point x="-541" y="1736"/>
      <point x="-514" y="1700"/>
      <point x="-499" y="1652"/>
      <point x="-499" y="1624" type="qcurve"/>
      <point x="-499" y="1597"/>
      <point x="-514" y="1549"/>
      <point x="-541" y="1514"/>
      <point x="-577" y="1494"/>
      <point x="-598" y="1494" type="qcurve"/>
      <point x="-618" y="1494"/>
      <point x="-654" y="1514"/>
      <point x="-680" y="1549"/>
      <point x="-695" y="1597"/>
    </contour>
    <contour>
      <point x="-259" y="1624" type="qcurve"/>
      <point x="-259" y="1652"/>
      <point x="-244" y="1700"/>
      <point x="-218" y="1736"/>
      <point x="-182" y="1756"/>
      <point x="-161" y="1756" type="qcurve"/>
      <point x="-140" y="1756"/>
      <point x="-104" y="1736"/>
      <point x="-77" y="1700"/>
      <point x="-62" y="1652"/>
      <point x="-62" y="1624" type="qcurve"/>
      <point x="-62" y="1597"/>
      <point x="-77" y="1549"/>
      <point x="-104" y="1514"/>
      <point x="-140" y="1494"/>
      <point x="-161" y="1494" type="qcurve"/>
      <point x="-182" y="1494"/>
      <point x="-218" y="1514"/>
      <point x="-244" y="1549"/>
      <point x="-259" y="1597"/>
    </contour>
    <contour>
      <point x="-458" y="1759" type="line"/>
      <point x="-306" y="2048" type="line"/>
      <point x="-273" y="2048" type="line"/>
      <point x="-185" y="1930" type="line"/>
      <point x="-185" y="1886" type="line"/>
      <point x="-400" y="1678" type="line"/>
    </contour>
  </outline>
</glyph>
<glyph name="iotasubnosp" format="2">
  <unicode hex="0345"/>
  <guideline x="0" y="-405" angle="320"/>
  <guideline x="-138" y="0" angle="90"/>
  <outline>
    <contour>
      <point x="-566" y="29" type="line" name="dh01"/>
      <point x="-407" y="29" type="line" name="dh02"/>
      <point x="-407" y="-201" type="line"/>
      <point x="-407" y="-242"/>
      <point x="-395" y="-298"/>
      <point x="-377" y="-332"/>
      <point x="-352" y="-348"/>
      <point x="-338" y="-348" type="qcurve" name="sv01"/>
      <point x="-314" y="-348"/>
      <point x="-273" y="-316"/>
      <point x="-260" y="-299" type="qcurve" name="iv01"/>
      <point x="-203" y="-410" type="line"/>
      <point x="-214" y="-424"/>
      <point x="-243" y="-452"/>
      <point x="-281" y="-475"/>
      <point x="-326" y="-490"/>
      <point x="-352" y="-490" type="qcurve" name="ab01"/>
      <point x="-399" y="-490"/>
      <point x="-477" y="-455"/>
      <point x="-534" y="-389"/>
      <point x="-566" y="-292"/>
      <point x="-566" y="-230" type="qcurve"/>
    </contour>
  </outline>
</glyph>
<glyph name="uni0347" format="2">
  <unicode hex="0347"/>
  <outline>
    <contour>
      <point x="-761" y="-348" type="line"/>
      <point x="-14" y="-348" type="line"/>
      <point x="-14" y="-490" type="line"/>
      <point x="-761" y="-490" type="line"/>
    </contour>
    <contour>
      <point x="-761" y="-56" type="line"/>
      <point x="-14" y="-56" type="line"/>
      <point x="-14" y="-198" type="line"/>
      <point x="-761" y="-198" type="line"/>
    </contour>
  </outline>
</glyph>
<glyph name="uni0348" format="2">
  <unicode hex="0348"/>
  <outline>
    <contour>
      <point x="-586" y="-490" type="line"/>
      <point x="-586" y="-89" type="line"/>
      <point x="-449" y="-89" type="line"/>
      <point x="-449" y="-490" type="line"/>
    </contour>
    <contour>
      <point x="-314" y="-490" type="line"/>
      <point x="-314" y="-89" type="line"/>
      <point x="-178" y="-89" type="line"/>
      <point x="-178" y="-490" type="line"/>
    </contour>
  </outline>
</glyph>
<glyph name="uni034c" format="2">
  <unicode hex="034C"/>
  <outline>
    <contour>
      <point x="-768" y="1857" type="line"/>
      <point x="-768" y="1884"/>
      <point x="-743" y="1958"/>
      <point x="-689" y="2025"/>
      <point x="-606" y="2072"/>
      <point x="-550" y="2072" type="qcurve"/>
      <point x="-506" y="2072"/>
      <point x="-441" y="2049"/>
      <point x="-389" y="2016"/>
      <point x="-346" y="1976"/>
      <point x="-302" y="1943"/>
      <point x="-253" y="1920"/>
      <point x="-221" y="1920" type="qcurve"/>
      <point x="-189" y="1920"/>
      <point x="-142" y="1950"/>
      <point x="-112" y="1995"/>
      <point x="-97" y="2049"/>
      <point x="-97" y="2072" type="qcurve"/>
      <point x="-69" y="2072" type="line"/>
      <point x="-2" y="1983" type="line"/>
      <point x="-2" y="1956"/>
      <point x="-29" y="1883"/>
      <point x="-83" y="1815"/>
      <point x="-166" y="1768"/>
      <point x="-223" y="1768" type="qcurve"/>
      <point x="-266" y="1768"/>
      <point x="-330" y="1791"/>
      <point x="-380" y="1824"/>
      <point x="-422" y="1864"/>
      <point x="-466" y="1897"/>
      <point x="-518" y="1920"/>
      <point x="-551" y="1920" type="qcurve"/>
      <point x="-583" y="1920"/>
      <point x="-629" y="1890"/>
      <point x="-659" y="1845"/>
      <point x="-674" y="1792"/>
      <point x="-674" y="1768" type="qcurve"/>
      <point x="-701" y="1768" type="line"/>
    </contour>
    <contour>
      <point x="-768" y="1553" type="line"/>
      <point x="-768" y="1580"/>
      <point x="-743" y="1654"/>
      <point x="-689" y="1721"/>
      <point x="-606" y="1768"/>
      <point x="-550" y="1768" type="qcurve"/>
      <point x="-506" y="1768"/>
      <point x="-441" y="1745"/>
      <point x="-389" y="1712"/>
      <point x="-346" y="1672"/>
      <point x="-302" y="1639"/>
      <point x="-253" y="1616"/>
      <point x="-221" y="1616" type="qcurve"/>
      <point x="-189" y="1616"/>
      <point x="-142" y="1646"/>
      <point x="-112" y="1691"/>
      <point x="-97" y="1745"/>
      <point x="-97" y="1768" type="qcurve"/>
      <point x="-69" y="1768" type="line"/>
      <point x="-2" y="1679" type="line"/>
      <point x="-2" y="1652"/>
      <point x="-29" y="1579"/>
      <point x="-83" y="1511"/>
      <point x="-166" y="1464"/>
      <point x="-223" y="1464" type="qcurve"/>
      <point x="-266" y="1464"/>
      <point x="-330" y="1487"/>
      <point x="-380" y="1520"/>
      <point x="-422" y="1560"/>
      <point x="-466" y="1593"/>
      <point x="-518" y="1616"/>
      <point x="-551" y="1616" type="qcurve"/>
      <point x="-583" y="1616"/>
      <point x="-629" y="1586"/>
      <point x="-659" y="1541"/>
      <point x="-674" y="1488"/>
      <point x="-674" y="1464" type="qcurve"/>
      <point x="-701" y="1464" type="line"/>
    </contour>
  </outline>
</glyph>
<glyph name="uni034E" format="2">
  <unicode hex="034E"/>
  <outline>
    <contour>
      <point x="-430" y="-490" type="line" name="dh01"/>
      <point x="-430" y="-249" type="line" name="iv01"/>
      <point x="-482" y="-318" type="line" name="iv02"/>
      <point x="-530" y="-253" type="line"/>
      <point x="-384" y="-60" type="line" name="ih01"/>
      <point x="-239" y="-253" type="line"/>
      <point x="-287" y="-318" type="line" name="iv03"/>
      <point x="-338" y="-249" type="line" name="iv04"/>
      <point x="-338" y="-490" type="line" name="dh02"/>
    </contour>
  </outline>
</glyph>
<glyph name="uni0361" format="2">
  <unicode hex="0361"/>
  <outline>
    <contour>
      <point x="478" y="1516" type="line"/>
      <point x="433" y="1555"/>
      <point x="323" y="1617"/>
      <point x="200" y="1660"/>
      <point x="68" y="1684"/>
      <point x="0" y="1684" type="qcurve"/>
      <point x="-62" y="1684"/>
      <point x="-191" y="1660"/>
      <point x="-317" y="1616"/>
      <point x="-432" y="1554"/>
      <point x="-479" y="1516" type="qcurve"/>
      <point x="-528" y="1582" type="line"/>
      <point x="-473" y="1651"/>
      <point x="-346" y="1748"/>
      <point x="-211" y="1809"/>
      <point x="-70" y="1836"/>
      <point x="0" y="1836" type="qcurve"/>
      <point x="70" y="1836"/>
      <point x="211" y="1809"/>
      <point x="347" y="1749"/>
      <point x="473" y="1652"/>
      <point x="528" y="1582" type="qcurve"/>
    </contour>
  </outline>
</glyph>
<glyph name="uni0394" format="2">
  <advance width="1008"/>
  <unicode hex="0394"/>
  <outline>
    <contour>
      <point x="446" y="1434" type="line"/>
      <point x="554" y="1464" type="line"/>
      <point x="996" y="0" type="line"/>
      <point x="11" y="0" type="line"/>
    </contour>
    <contour>
      <point x="701" y="142" type="line"/>
      <point x="443" y="992" type="line"/>
      <point x="185" y="142" type="line"/>
    </contour>
  </outline>
</glyph>
<glyph name="Lambda" format="2">
  <advance width="936"/>
  <unicode hex="039B"/>
  <outline>
    <contour>
      <point x="682" y="-30" type="line" name="ab01"/>
      <point x="407" y="978" type="line" name="iv01"/>
      <point x="133" y="-30" type="line" name="ab02"/>
      <point x="12" y="0" type="line"/>
      <point x="404" y="1434" type="line"/>
      <point x="524" y="1464" type="line" name="at01"/>
      <point x="924" y="0" type="line"/>
    </contour>
  </outline>
</glyph>
<glyph name="Xi" format="2">
  <advance width="816"/>
  <unicode hex="039E"/>
  <outline>
    <contour>
      <point x="97" y="162" type="line"/>
      <point x="741" y="162" type="line"/>
      <point x="719" y="0" type="line"/>
      <point x="75" y="0" type="line"/>
    </contour>
    <contour>
      <point x="225" y="859" type="line"/>
      <point x="611" y="859" type="line"/>
      <point x="592" y="717" type="line"/>
      <point x="206" y="717" type="line"/>
    </contour>
    <contour>
      <point x="96" y="1434" type="line"/>
      <point x="741" y="1434" type="line"/>
      <point x="719" y="1272" type="line"/>
      <point x="75" y="1272" type="line"/>
    </contour>
  </outline>
</glyph>
<glyph name="Pi" format="2">
  <advance width="1128"/>
  <unicode hex="03A0"/>
  <outline>
    <contour>
      <point x="1029" y="1434" type="line"/>
      <point x="1029" y="0" type="line"/>
      <point x="795" y="0" type="line"/>
      <point x="795" y="1292" type="line"/>
      <point x="333" y="1292" type="line"/>
      <point x="333" y="0" type="line"/>
      <point x="99" y="0" type="line"/>
      <point x="99" y="1434" type="line"/>
    </contour>
  </outline>
</glyph>
<glyph name="Psi" format="2">
  <advance width="1200"/>
  <unicode hex="03A8"/>
  <outline>
    <contour>
      <point x="1155" y="1464" type="line" name="at01"/>
      <point x="1155" y="1027" type="line" name="dh06"/>
      <point x="1155" y="897"/>
      <point x="1085" y="697"/>
      <point x="965" y="557"/>
      <point x="806" y="476"/>
      <point x="717" y="465" type="qcurve"/>
      <point x="717" y="0" type="line" name="dh04"/>
      <point x="483" y="0" type="line" name="dh03"/>
      <point x="483" y="465" type="line"/>
      <point x="394" y="476"/>
      <point x="235" y="557"/>
      <point x="115" y="697"/>
      <point x="45" y="897"/>
      <point x="45" y="1027" type="qcurve" name="dh01"/>
      <point x="45" y="1434" type="line"/>
      <point x="287" y="1464" type="line" name="at02"/>
      <point x="287" y="1027" type="line" name="dh02"/>
      <point x="287" y="929"/>
      <point x="318" y="777"/>
      <point x="372" y="669"/>
      <point x="443" y="606"/>
      <point x="483" y="597" type="qcurve" name="sh01"/>
      <point x="483" y="1434" type="line"/>
      <point x="717" y="1464" type="line" name="sh02"/>
      <point x="717" y="597" type="line"/>
      <point x="756" y="606"/>
      <point x="827" y="669"/>
      <point x="881" y="777"/>
      <point x="914" y="929"/>
      <point x="914" y="1027" type="qcurve" name="dh05"/>
      <point x="914" y="1434" type="line"/>
    </contour>
  </outline>
</glyph>
<glyph name="beta" format="2">
  <advance width="840"/>
  <unicode hex="03B2"/>
  <outline>
    <contour>
      <point x="75" y="929" type="line"/>
      <point x="75" y="1043"/>
      <point x="131" y="1239"/>
      <point x="226" y="1382"/>
      <point x="355" y="1464"/>
      <point x="428" y="1464" type="qcurve"/>
      <point x="494" y="1464"/>
      <point x="593" y="1421"/>
      <point x="659" y="1348"/>
      <point x="692" y="1250"/>
      <point x="692" y="1195" type="qcurve"/>
      <point x="692" y="1146"/>
      <point x="662" y="1060"/>
      <point x="617" y="990"/>
      <point x="566" y="940"/>
      <point x="544" y="927" type="qcurve"/>
      <point x="582" y="912"/>
      <point x="671" y="846"/>
      <point x="749" y="739"/>
      <point x="800" y="588"/>
      <point x="800" y="486" type="qcurve"/>
      <point x="800" y="446"/>
      <point x="788" y="342"/>
      <point x="753" y="230"/>
      <point x="685" y="121"/>
      <point x="571" y="33"/>
      <point x="404" y="-25"/>
      <point x="287" y="-30" type="qcurve"/>
      <point x="287" y="-460" type="line"/>
      <point x="120" y="-490" type="line"/>
      <point x="75" y="-490" type="line"/>
    </contour>
    <contour>
      <point x="581" y="492" type="qcurve"/>
      <point x="581" y="591"/>
      <point x="545" y="731"/>
      <point x="485" y="821"/>
      <point x="404" y="862"/>
      <point x="359" y="862" type="qcurve"/>
      <point x="373" y="974" type="line"/>
      <point x="407" y="974"/>
      <point x="459" y="1011"/>
      <point x="494" y="1073"/>
      <point x="511" y="1153"/>
      <point x="511" y="1196" type="qcurve"/>
      <point x="511" y="1225"/>
      <point x="499" y="1278"/>
      <point x="476" y="1318"/>
      <point x="444" y="1342"/>
      <point x="424" y="1342" type="qcurve"/>
      <point x="395" y="1342"/>
      <point x="344" y="1294"/>
      <point x="308" y="1186"/>
      <point x="287" y="1014"/>
      <point x="287" y="891" type="qcurve"/>
      <point x="287" y="82" type="line"/>
      <point x="349" y="88"/>
      <point x="442" y="132"/>
      <point x="507" y="196"/>
      <point x="548" y="276"/>
      <point x="572" y="362"/>
      <point x="581" y="451"/>
    </contour>
  </outline>
</glyph>
<glyph name="delta" format="2">
  <advance width="840"/>
  <unicode hex="03B4"/>
  <outline>
    <contour>
      <point x="626" y="1200" type="line" name="ih01"/>
      <point x="606" y="1247"/>
      <point x="559" y="1306"/>
      <point x="509" y="1340"/>
      <point x="459" y="1352"/>
      <point x="438" y="1352" type="qcurve" name="sv01"/>
      <point x="414" y="1352"/>
      <point x="365" y="1333"/>
      <point x="323" y="1294"/>
      <point x="297" y="1233" name="hr00"/>
      <point x="297" y="1192" type="qcurve" name="sh02"/>
      <point x="297" y="1156"/>
      <point x="323" y="1094"/>
      <point x="371" y="1045" name="hr01"/>
      <point x="435" y="1011"/>
      <point x="473" y="1003" type="qcurve"/>
      <point x="549" y="987"/>
      <point x="669" y="900"/>
      <point x="753" y="766"/>
      <point x="798" y="590"/>
      <point x="798" y="487" type="qcurve" name="dh04"/>
      <point x="798" y="374"/>
      <point x="746" y="185"/>
      <point x="648" y="47"/>
      <point x="508" y="-30"/>
      <point x="420" y="-30" type="qcurve" name="ab01"/>
      <point x="332" y="-30"/>
      <point x="192" y="47"/>
      <point x="95" y="185"/>
      <point x="42" y="374"/>
      <point x="42" y="487" type="qcurve" name="dh01"/>
      <point x="42" y="570"/>
      <point x="73" y="724"/>
      <point x="132" y="852"/>
      <point x="221" y="948"/>
      <point x="279" y="974" type="qcurve" name="ih02"/>
      <point x="246" y="985"/>
      <point x="192" y="1026"/>
      <point x="152" y="1081"/>
      <point x="131" y="1148"/>
      <point x="131" y="1184" type="qcurve" name="sh01"/>
      <point x="131" y="1251"/>
      <point x="173" y="1356"/>
      <point x="245" y="1427"/>
      <point x="345" y="1464"/>
      <point x="403" y="1464" type="qcurve" name="at01"/>
      <point x="500" y="1464"/>
      <point x="650" y="1393"/>
      <point x="710" y="1312" type="qcurve"/>
    </contour>
    <contour>
      <point x="420" y="892" type="qcurve"/>
      <point x="381" y="892"/>
      <point x="322" y="836"/>
      <point x="281" y="731"/>
      <point x="261" y="581"/>
      <point x="261" y="487" type="qcurve" name="dh02"/>
      <point x="261" y="393"/>
      <point x="281" y="243"/>
      <point x="322" y="138"/>
      <point x="381" y="82"/>
      <point x="420" y="82" type="qcurve" name="sv02"/>
      <point x="459" y="82"/>
      <point x="518" y="138"/>
      <point x="559" y="243"/>
      <point x="579" y="393"/>
      <point x="579" y="487" type="qcurve" name="dh03"/>
      <point x="579" y="581"/>
      <point x="559" y="731"/>
      <point x="518" y="836"/>
      <point x="459" y="892"/>
    </contour>
  </outline>
</glyph>
<glyph name="zeta" format="2">
  <advance width="768"/>
  <unicode hex="03B6"/>
  <outline>
    <contour>
      <point x="457" y="132" type="qcurve" name="sv01"/>
      <point x="520" y="132"/>
      <point x="617" y="86"/>
      <point x="681" y="3"/>
      <point x="714" y="-112"/>
      <point x="714" y="-181" type="qcurve" name="dh04"/>
      <point x="714" y="-241"/>
      <point x="683" y="-343"/>
      <point x="624" y="-418"/>
      <point x="539" y="-460"/>
      <point x="484" y="-460" type="qcurve" name="ab01"/>
      <point x="443" y="-460"/>
      <point x="374" y="-438"/>
      <point x="314" y="-398"/>
      <point x="261" y="-342"/>
      <point x="236" y="-308" type="qcurve"/>
      <point x="323" y="-196" type="line" name="ih01"/>
      <point x="354" y="-275"/>
      <point x="431" y="-348"/>
      <point x="467" y="-348" type="qcurve" name="sv02"/>
      <point x="514" y="-348"/>
      <point x="578" y="-273"/>
      <point x="578" y="-200" type="qcurve" name="dh03"/>
      <point x="578" y="-153"/>
      <point x="557" y="-88"/>
      <point x="517" y="-48"/>
      <point x="461" y="-30"/>
      <point x="427" y="-30" type="qcurve" name="ab02"/>
      <point x="350" y="-30"/>
      <point x="214" y="40"/>
      <point x="113" y="172"/>
      <point x="54" y="364"/>
      <point x="54" y="487" type="qcurve" name="dh01"/>
      <point x="54" y="540"/>
      <point x="62" y="650"/>
      <point x="90" y="771"/>
      <point x="146" y="904"/>
      <point x="243" y="1055"/>
      <point x="387" y="1225"/>
      <point x="490" y="1322" type="qcurve" name="ih02"/>
      <point x="139" y="1295" type="line"/>
      <point x="157" y="1434" type="line"/>
      <point x="714" y="1434" type="line" name="sh01"/>
      <point x="714" y="1374" type="line"/>
      <point x="607" y="1267"/>
      <point x="458" y="1086"/>
      <point x="360" y="930"/>
      <point x="305" y="793"/>
      <point x="279" y="668"/>
      <point x="273" y="548"/>
      <point x="273" y="487" type="qcurve" name="dh02"/>
      <point x="273" y="389"/>
      <point x="307" y="254"/>
      <point x="359" y="170"/>
      <point x="425" y="132"/>
    </contour>
  </outline>
</glyph>
